<svg width="100" height="100" viewBox="0 0 100 100" fill="none" xmlns="http://www.w3.org/2000/svg">
<path d="M67.4115 38.4893H67.3914C65.525 38.4793 63.6987 37.7546 62.2538 36.4362C61.1199 35.3996 60.277 34.0309 59.7953 32.5112L53.6643 32.4106L53.7044 29.814L60.8289 29.9247C61.441 29.9348 61.9728 30.3776 62.0832 30.9814C62.6251 33.8195 64.8627 35.8726 67.3914 35.8827H67.4015C69.9201 35.8827 72.1578 33.8397 72.7197 31.0217C72.7197 31.0116 72.7298 30.9915 72.7298 30.9814L72.9505 30.0555C73.0609 29.5926 73.4121 29.2303 73.8637 29.1095C74.1346 29.029 76.5127 28.3648 76.6432 28.3245C76.7134 28.3044 76.7736 28.2943 76.8439 28.2842C77.9778 28.1434 79.0515 27.932 79.4428 27.771C80.2656 27.4288 80.4563 26.2915 80.4563 25.9292L80.4764 20.6355C80.4563 20.2228 80.2155 16.6702 80.1252 15.2813V13.9529C80.1151 13.7918 80.1051 13.6107 80.0951 13.4799C79.8843 13.2786 79.794 13.0471 79.6636 12.7452C79.5833 12.5539 79.4829 12.2923 79.3525 11.9702C79.1016 11.3261 78.7504 10.4505 78.3792 9.47431C77.6165 7.53193 76.7435 5.24736 76.1916 3.83837C76.0512 3.47606 75.9408 3.17414 75.8505 2.95273C75.6598 2.84202 75.4993 2.75144 75.3688 2.69106C72.0675 2.67093 46.289 2.46965 39.3853 2.97286C37.6292 3.16408 36.6157 3.33517 34.8497 4.9555C34.8296 4.97563 30.4646 8.69937 24.2131 13.4396C23.9924 13.6006 23.7415 13.6912 23.4706 13.7013C11.8507 14.0535 6.37188 16.1368 5.51895 16.64C4.73626 17.6967 3.70272 20.1121 3.37158 20.9676C3.28127 21.1991 3.13075 21.4004 2.93006 21.5413C2.89996 21.5714 2.78958 21.7023 2.6491 22.0042C2.65913 22.749 2.68923 24.641 2.69927 25.5065L5.42864 28.8177L7.52584 29.6429L8.51926 29.7335H8.6196L10.2653 29.7436C10.8874 29.7436 11.4192 30.1964 11.5396 30.8003C12.0815 33.6585 14.3091 35.7317 16.8479 35.7418H16.8579C19.3966 35.7418 21.6243 33.6786 22.1862 30.8506C22.3066 30.2468 22.8384 29.8039 23.4606 29.8039L25.2367 29.814H36.8566V32.4106H24.4439C23.3301 35.9129 20.2796 38.3484 16.8378 38.3484H16.8178C13.3659 38.3384 10.3154 35.8726 9.22167 32.3401H8.78015C8.67981 32.3502 8.56943 32.3602 8.46908 32.3502L7.08433 32.2294C6.96391 32.2193 6.83347 32.1891 6.72309 32.1388L4.14423 31.1123C3.93351 31.0318 3.76292 30.9009 3.61241 30.7298L0.371275 26.8149C0.18062 26.5834 0.0702412 26.3117 0.0702412 26.0097C0.0702412 25.8688 0 22.4269 0 21.7627V21.7123C0 21.4909 0.0501723 21.2695 0.160551 21.0884C0.441516 20.4141 0.762619 20.0014 1.01348 19.7297C1.37472 18.834 2.43837 16.328 3.42175 15.0197C3.66258 14.6574 4.11413 14.3152 5.30823 13.8522C6.28157 13.4698 7.56598 13.0873 9.00091 12.7452C11.6901 12.1212 16.2659 11.3261 22.9187 11.0946C28.7086 6.6966 32.8026 3.22446 33.0635 3.00305C35.3915 0.889573 36.9669 0.577583 39.1043 0.356172H39.1344C46.5599 -0.197358 74.5159 0.0542464 75.7 0.0743747C75.9609 0.0743747 76.2117 0.164952 76.4224 0.305851C76.5027 0.346107 76.7335 0.487006 77.3356 0.809059C77.5563 0.929829 77.757 1.04054 77.9276 1.31227C77.9276 1.32233 77.9376 1.32233 77.9376 1.3324C78.0079 1.4431 78.0079 1.4431 78.5598 2.88228C79.3926 5.03601 81.4798 10.4405 82.0016 11.7086C82.1923 11.8998 82.3327 12.1212 82.4532 12.3728C82.5234 12.5238 82.6137 12.7351 82.6739 13.8522V15.1505C83.0251 20.5449 83.0251 20.5449 83.0251 20.5952L83.005 25.9393C83.005 27.1168 82.4431 29.3309 80.386 30.1864C79.5331 30.5386 77.9276 30.7802 77.1951 30.8707C76.9242 30.9513 76.0612 31.1928 75.2484 31.4243L75.2183 31.5752C74.837 33.4975 73.8536 35.2386 72.4689 36.4966C71.0941 37.7647 69.2679 38.4893 67.4115 38.4893Z" transform="translate(8.03027 26.0162)" fill="#DA6F25"/>
<path fill-rule="evenodd" clip-rule="evenodd" d="M6.03076 0L12.0615 10.4768H8.44897V13.8382H3.6123V10.4768H0L6.03076 0ZM6.03101 33.4734L12.0618 23.0067H8.44922V19.6352H3.61255V23.0067H0.000244141L6.03101 33.4734Z" transform="translate(47.2747 40.4219)" fill="#DA6F25"/>
</svg>
