<svg width="100" height="100" viewBox="0 0 100 100" fill="none" xmlns="http://www.w3.org/2000/svg">
<path d="M16.1153 3.66336L10.0646 0L4.62589 8.93699L0 6.13915L3.17089 18.8905L15.6337 15.6095L10.6967 12.6104" transform="translate(67.9587 31.1511)" fill="#DA6F25"/>
<path fill-rule="evenodd" clip-rule="evenodd" d="M6.56371 33.8458C6.56371 33.8458 11.5207 33.8458 11.9421 33.7754C12.2524 33.7209 12.4067 33.4979 12.4748 33.3995C12.4949 33.3707 12.5073 33.3527 12.5142 33.3527V27.4148H25.5288C29.5828 25.3617 34.1684 24.2043 39.0251 24.2043C39.5669 24.2043 40.1189 24.2144 40.6706 24.2446C40.8113 23.7213 40.9416 23.1274 40.9919 22.4633C41.5337 16.2335 40.9116 14.0395 40.9116 14.0395C40.9116 14.0395 43.7412 14.1502 44.2029 13.9892C44.5742 13.8483 44.8049 13.1036 44.8049 12.7614C44.8049 12.6752 44.8093 12.5054 44.8149 12.2941C44.8315 11.6664 44.8574 10.6724 44.8049 10.4164C44.7346 10.0641 43.5608 9.45026 43.5608 9.45026H39.5669C39.5669 9.45026 37.4397 3.5929 36.1953 2.34497C35.5732 1.72095 33.5764 0.754822 32.2017 0.483093C30.8169 0.211365 22.4182 0 22.4182 0C22.4182 0 14.0093 0.211365 12.6345 0.483093C11.2598 0.754822 9.22289 1.68073 8.64086 2.34497C7.54711 3.57275 5.26928 9.45026 5.26928 9.45026H1.27538C0.99462 9.45026 0.101554 10.0742 0.031241 10.4164C-0.0212492 10.6724 0.00462968 11.6664 0.0212312 12.2941C0.0268465 12.5054 0.031241 12.6752 0.031241 12.7614C0.031241 13.1036 0.261954 13.8583 0.633292 13.9892C1.09496 14.1502 3.92455 14.0395 3.92455 14.0395C3.92455 14.0395 3.29247 16.2335 3.84423 22.4633C4.12524 25.6838 5.74071 27.4148 5.74071 27.4148C5.74071 27.4148 5.82104 32.8394 5.75097 33.2621C5.68066 33.6848 6.56371 33.8458 6.56371 33.8458ZM37.3999 12.6608H7.23632C7.15624 12.4695 7.5476 10.5272 7.5476 10.5272C7.5476 10.5272 9.6748 5.06232 10.4475 4.40814C11.0295 3.92505 12.7053 3.0495 13.8894 2.80792C15.0732 2.56641 22.2981 2.38525 22.2981 2.38525C22.2981 2.38525 29.5229 2.56641 30.707 2.80792C31.8911 3.03943 33.5969 3.8949 34.1489 4.40814C35.1523 5.35419 37.0488 10.5272 37.0488 10.5272C37.0488 10.5272 37.4802 12.4595 37.3999 12.6608Z" transform="translate(16.0486 20)" fill="#DA6F25"/>
<path d="M26.7418 0C11.9912 0 0 12.0368 0 26.821C0 28.5923 0.18062 30.3233 0.501723 32.0041H7.96736V29.1861H2.58889C2.50861 28.4112 2.46848 27.6161 2.46848 26.8311C2.46848 23.5703 3.11068 20.4605 4.27468 17.6123L8.90056 19.6755L9.92408 17.3708L5.33833 15.3277C6.93381 12.3487 9.12132 9.75218 11.7504 7.67896L23.31 23.6005C22.6678 24.3754 22.2966 25.3617 22.2966 26.4386C22.2966 28.8942 24.2834 30.897 26.7418 30.897C29.2003 30.897 31.1871 28.9043 31.1871 26.4386C31.1871 23.9829 29.2003 21.9802 26.7418 21.9802C26.2602 21.9802 25.7986 22.0607 25.3671 22.2016L13.7873 6.23979C17.1991 4.07599 21.1727 2.73745 25.4474 2.51604V7.53806H28.0563V2.51604C32.2508 2.73745 36.1642 4.03573 39.5458 6.12908L36.5656 10.2151L38.6026 11.7046L41.6129 7.56826C44.3021 9.6616 46.5499 12.3185 48.1754 15.3479L43.68 17.3506L44.7035 19.6553L49.2491 17.6224C50.4031 20.4605 51.0252 23.5502 51.0252 26.7908C51.0252 27.5859 50.9851 28.3709 50.9048 29.1458H45.0748V31.9638H52.992C53.3231 30.2932 53.4937 28.5621 53.4937 26.7808C53.4837 12.0267 41.4925 0 26.7418 0V0Z" transform="translate(28.3022 47.5658)" fill="#DA6F25"/>
</svg>
