<svg width="100" height="100" viewBox="0 0 100 100" fill="none" xmlns="http://www.w3.org/2000/svg">
<path fill-rule="evenodd" clip-rule="evenodd" d="M8.51175 0H6.09354V13.0734H8.51175V0ZM21.8777 49.9887C17.2417 49.9887 12.7263 47.4928 8.83304 42.7827C4.74881 37.8312 2.50125 32.004 1.52786 28.9747C0.705109 26.3983 0.183136 23.9929 0.0427556 22.0304C-0.137908 19.6452 0.253449 18.1356 1.22684 17.4311C1.64822 17.1292 2.74197 16.3442 9.51541 15.7403C13.4187 15.3981 18.2654 15.2069 23.1621 15.2069C27.7981 15.2069 31.9925 15.3679 35.2737 15.69C40.5821 16.1932 41.9969 16.9581 42.6189 17.4915C43.6324 18.3771 43.9737 20.1484 43.6526 22.9261C43.3916 25.2912 42.649 28.1796 41.5755 31.0882C39.7491 35.9794 37.1302 40.468 34.21 43.7086C30.437 47.8752 26.293 49.9887 21.8777 49.9887ZM2.65189 19.3836C2.47122 19.6252 2.16019 20.9335 2.74197 24.0836C3.29398 26.972 4.38773 30.2932 5.85281 33.4232C7.83963 37.6803 13.3687 47.5734 21.8677 47.5734C25.3496 47.5734 28.6912 45.943 31.8221 42.7124C35.1734 39.2503 37.3911 34.8925 38.6656 31.8431C39.8997 28.9044 40.7727 25.8951 41.1541 23.3791C41.5655 20.6115 41.1841 19.5145 41.0235 19.3434C40.9434 19.2729 40.0603 18.6087 35.043 18.1357C31.8321 17.8237 27.7278 17.6627 23.1621 17.6627C18.3257 17.6627 13.5594 17.8539 9.7161 18.1759C4.0867 18.659 2.85257 19.2629 2.65189 19.3836ZM13.3782 0H15.7964V13.0734H13.3782V0ZM23.0816 0H20.6634V13.0734H23.0816V0ZM27.9585 0H30.3767V13.0734H27.9585V0ZM37.6722 0H35.2539V13.0734H37.6722V0Z" transform="translate(28.0479 34.3836)" fill="#DA6F25"/>
<path d="M43.4793 12.1776L40.7399 0.422695L37.7095 5.31388C33.0836 3.38156 27.6048 2.33489 21.8149 2.3047C16.2157 2.2745 10.6365 3.22054 6.01064 4.99183L3.15082 0L0 11.6543L11.6199 14.8145L8.84036 9.95347C12.6635 8.61493 17.189 7.91044 21.7748 7.94063C26.4107 7.97083 30.9463 8.75583 34.6891 10.1749L31.739 14.9352L43.4793 12.1776V12.1776Z" transform="translate(28.2002 15.02)" fill="#DA6F25"/>
</svg>
