<svg width="100" height="100" viewBox="0 0 100 100" fill="none" xmlns="http://www.w3.org/2000/svg">
<path d="M3.15082 15.7504C3.15082 10.819 5.0674 6.18947 8.53932 2.70726C9.16146 2.08328 9.15143 1.08693 8.53932 0.462952C8.23829 0.161027 7.83691 0 7.4255 0C7.00405 0 6.60267 0.171091 6.31167 0.462952C2.23768 4.53894 0 9.9736 0 15.7504C0 21.5273 2.23768 26.9519 6.31167 31.0379C6.61271 31.3398 7.01409 31.5009 7.4255 31.5009C7.84695 31.5009 8.24832 31.3298 8.53932 31.0379C9.16146 30.4139 9.16146 29.4176 8.53932 28.7936C5.05737 25.3114 3.15082 20.6819 3.15082 15.7504Z" transform="translate(28.04 34.3586)" fill="#DA6F25"/>
<path fill-rule="evenodd" clip-rule="evenodd" d="M0 17.0386C0 7.6387 7.62622 0 16.9883 0C26.3506 0 33.9766 7.6387 33.9766 17.0386C33.9766 26.4285 26.3606 34.0773 16.9883 34.0773C7.61621 34.0773 0 26.4386 0 17.0386ZM30.8062 17.0387C30.7959 9.41003 24.5947 3.19037 16.9885 3.1803C9.38257 3.19037 3.18115 9.41003 3.17114 17.0487C3.18115 24.6673 9.38257 30.887 16.9885 30.9071C24.5947 30.887 30.7959 24.6673 30.8062 17.0387Z" transform="translate(32.5959 33.0704)" fill="#DA6F25"/>
<path fill-rule="evenodd" clip-rule="evenodd" d="M27.8062 0.462952C27.5051 0.161011 27.1038 0 26.6924 0C26.2708 0 25.8694 0.171082 25.5684 0.462952C24.9463 1.08691 24.9463 2.08331 25.5684 2.70728C25.5723 2.71109 25.5759 2.71347 25.5794 2.71548C25.5845 2.71878 25.5884 2.72116 25.5884 2.72739C29.0503 6.20959 30.957 10.8391 30.957 15.7504C30.957 20.6819 29.0403 25.3114 25.5684 28.7936C24.9463 29.4176 24.9463 30.4139 25.5684 31.048C25.8694 31.3499 26.2708 31.5109 26.6821 31.5109C27.0938 31.5109 27.5051 31.3398 27.7961 31.048C31.8701 26.9619 34.1077 21.5373 34.1077 15.7605C34.1277 9.9736 31.8801 4.53894 27.8062 0.462952ZM0.0705639 21.1348C0.140876 21.2354 0.251228 21.2858 0.381599 21.2858H2.17799C2.35841 21.2858 2.50904 21.165 2.54908 21.004L3.11109 18.8603H5.5293L6.06129 21.004C6.10133 21.175 6.25196 21.2958 6.43238 21.2958H8.27882C8.39918 21.2958 8.50953 21.2354 8.58985 21.1449C8.66016 21.0543 8.69019 20.9235 8.66016 20.8127L5.63966 9.88306C5.58961 9.71198 5.44923 9.60126 5.26856 9.60126H3.45216C3.28175 9.60126 3.13111 9.72202 3.08106 9.88306L0.0205151 20.8027C-0.0197681 20.9134 0.000495535 21.0442 0.0705639 21.1348ZM4.33521 14.1804L3.7732 16.304H4.86695L4.33521 14.1804ZM9.77393 21.2858H13.6875C15.1826 21.2858 16.9185 20.3599 16.9185 17.7331C16.9185 16.455 16.4971 15.4586 15.7346 14.895C16.2564 14.3515 16.5374 13.5967 16.5374 12.6809C16.5374 10.6278 15.5339 9.59119 13.5772 9.59119H9.78419C9.57325 9.59119 9.40284 9.76227 9.40284 9.97363V20.8932C9.39283 21.1247 9.56324 21.2858 9.77393 21.2858ZM13.4771 16.4247H11.9316V18.659H13.4468C13.9185 18.659 14.3701 18.5282 14.3701 17.6023C14.3701 16.5556 13.8884 16.4247 13.4771 16.4247ZM13.3464 14.0194H11.9316V12.228H13.2061C13.7378 12.228 14.0388 12.3689 14.0388 13.1035C14.0488 13.9288 13.6475 14.0194 13.3464 14.0194ZM24.8555 17.6626C24.8555 20.0176 23.3804 21.5474 21.1126 21.5474C20.0488 21.5474 19.0957 21.175 18.4334 20.5007C17.6809 19.7358 17.2896 18.6288 17.2996 17.2903C17.2996 17.0789 17.47 16.9078 17.6809 16.9078H19.3967C19.6074 16.9078 19.7781 17.0789 19.7781 17.2903C19.7781 18.7093 20.6611 18.9207 21.1829 18.9207C21.6143 18.9207 22.367 18.7999 22.367 17.9444C22.367 17.25 21.7849 17.0185 20.7515 16.6763C20.5908 16.616 20.4102 16.5556 20.2295 16.4952C18.8447 15.992 17.5706 15.2372 17.5706 13.023C17.5706 10.5976 19.2864 9.3295 20.9722 9.3295C22.708 9.3295 24.5645 10.346 24.5845 13.1841C24.5945 13.1942 24.5945 13.2143 24.5945 13.2344C24.5945 13.4457 24.4241 13.6168 24.2131 13.6168H22.4873C22.2866 13.6168 22.116 13.4558 22.106 13.2445C22.0559 12.1877 21.5842 11.9663 20.8919 11.9663C20.6409 11.9663 20.0591 12.0468 20.0591 12.8218C20.0591 13.325 20.1091 13.3853 22.0256 14.0496L22.2666 14.1301L22.2859 14.1367C22.9468 14.3644 24.8555 15.0219 24.8555 17.6626Z" transform="translate(37.0103 34.3586)" fill="#DA6F25"/>
</svg>
