<svg width="103" height="100" viewBox="0 0 103 100" fill="none" xmlns="http://www.w3.org/2000/svg">
<path fill-rule="evenodd" clip-rule="evenodd" d="M56.2708 53.5062C57.116 53.5552 57.9819 53.6054 58.9324 53.4206L59.2234 55.041C58.0393 55.2624 57.0059 55.202 56.0825 55.1416C54.8684 55.0611 53.895 55.0007 52.8616 55.5542C52.5605 55.7152 52.2495 55.8763 51.9385 56.0373C52.1392 57.2853 52.0186 58.493 51.7478 59.3082C51.0955 61.2304 50.3831 62.0154 46.3191 64.1993C43.2786 62.7199 42.0745 61.8544 41.4021 60.7977C38.5322 61.955 35.542 63.052 32.5317 64.0584C31.3276 67.118 30.1335 70.4995 29.7422 72.3111L28.1768 71.9689C28.5381 70.3184 29.5012 67.4803 30.5549 64.7126C26.6516 65.9606 22.748 67.0475 19.0654 67.8929L18.7043 66.3229C22.748 65.407 27.043 64.1893 31.3076 62.7803C32.0801 60.848 32.8428 59.1069 33.3745 58.0401C34.3679 55.9367 35.4417 55.0208 36.4854 54.1452C37.2478 53.5011 37.9705 52.8872 38.7432 51.76C40.77 48.8012 42.6465 44.1314 43.7703 39.5119C43.5696 39.4516 43.3689 39.3912 43.1382 39.2704C42.8848 39.1364 42.6582 39.04 42.4446 38.9491C42.0322 38.7736 41.668 38.6185 41.2517 38.2539C40.509 37.5897 39.9473 37.0462 39.9573 36.0499C39.9631 35.6094 40.106 35.3098 40.259 34.9886C40.3647 34.7666 40.4756 34.5344 40.5493 34.2383C40.5828 34.1014 40.6179 33.9765 40.6511 33.8581C40.7668 33.4458 40.8601 33.1129 40.79 32.6281C40.7097 32.0745 40.519 31.7726 40.198 31.3096L41.623 30.3133C42.2852 31.1385 43.3689 31.1989 44.2019 30.9876C44.042 30.567 43.8425 30.1763 43.6331 29.7659L43.6299 29.7598C43.2185 28.9445 42.7869 28.0891 42.5461 26.9015C42.0344 24.5364 42.6062 20.0479 43.1182 16.4549C42.4758 16.153 41.9941 15.5592 41.8638 14.8346C39.5811 15.3668 38.5269 16.6004 37.2664 18.0755L37.2581 18.0853L37.0808 18.2908C36.4841 18.9836 35.8628 19.7052 35.0503 20.4102C34.2275 21.1348 33.2542 22.0305 32.2207 22.9966C33.2944 24.9088 33.2642 27.284 32.8228 28.6225C32.1704 30.5448 31.458 31.3298 27.394 33.5137C25.1865 32.4469 23.9521 31.6921 23.1797 30.9574C19.0254 34.1779 14.6804 36.7242 10.8472 36.7242H9.31201V42.6822C10.2551 42.9841 11.7705 43.2558 13.1453 42.4004C14.4294 44.3729 14.4294 46.9594 13.958 48.3785C13.3257 50.2404 12.6433 51.0354 8.91064 53.0684V63.052H7.30518V52.6558C4.07397 50.975 3.53223 50.0995 2.94019 48.3785C2.46851 46.9494 2.38818 44.3126 3.75293 42.4004C5.20776 43.3162 6.81348 42.9539 7.70654 42.6318V36.7242H6.43213C5.82251 36.7242 5.32251 37.0036 4.62476 37.3936L4.61597 37.3985L4.58838 37.4139C3.52954 38.0051 2.21851 38.737 0 38.737V37.1267C1.81616 37.1267 2.83984 36.5531 3.82324 35.9995L3.85718 35.9805C4.6189 35.5536 5.40356 35.1139 6.42212 35.1139H7.95728C10.7268 31.8632 12.1516 27.9381 13.657 23.7917C14.8108 20.6115 16.0049 17.3204 17.8613 14.3515C19.1458 12.3185 20.5405 10.6781 21.9653 9.22882C21.7849 8.9068 21.6846 8.53442 21.6846 8.14191C21.6846 7.92053 21.7146 7.70917 21.7747 7.50787C19.7578 5.51514 17.9917 3.28094 16.2258 0.986267L17.5 0C19.1858 2.19397 20.8716 4.32758 22.7681 6.22974C23.0894 6.03851 23.4707 5.9278 23.8821 5.9278C24.3335 5.9278 24.7449 6.05865 25.0962 6.2901C25.1514 6.23981 25.2065 6.19196 25.2617 6.14417C25.3169 6.09637 25.3721 6.04852 25.4272 5.99823C27.4543 4.19678 29.3708 2.48584 31.147 0.191223L32.4114 1.17749C30.572 3.5578 28.5378 5.37122 26.5776 7.11865L26.491 7.19586C26.4153 7.26672 26.3372 7.33502 26.259 7.40332C26.1816 7.47089 26.1042 7.53845 26.0293 7.60852C26.0696 7.7796 26.0896 7.95068 26.0896 8.13184C26.0896 8.42371 26.0293 8.70551 25.929 8.96716C29.5815 11.6543 33.5752 12.9626 38.1409 12.9626C38.9939 12.9626 39.7263 12.8519 40.439 12.7412C41.2517 12.6104 42.0344 12.4997 42.7969 12.6003C43.1482 12.3588 43.5696 12.2179 44.0312 12.2179C44.6934 12.2179 45.2957 12.5098 45.697 12.9828C47.1021 13.059 48.2014 13.2882 49.259 13.5088L49.4397 13.5464C50.8547 13.8483 52.3196 14.1603 54.5874 14.1603V15.7706C52.1492 15.7706 50.5938 15.4485 49.0986 15.1265L48.9326 15.092C48.0688 14.9126 47.228 14.738 46.2188 14.6434C46.1384 15.529 45.5264 16.2637 44.7136 16.5355C44.2419 19.8868 43.6499 24.4358 44.1016 26.5594C44.3022 27.5456 44.6633 28.2703 45.0447 29.0251C45.2957 29.5182 45.5464 30.0214 45.7571 30.585C46.6301 31.0178 48.3962 31.3197 49.3494 30.1825L50.8447 31.1486C50.3931 31.5009 50.2727 31.8833 50.1824 32.4469C50.1028 32.9492 50.2061 33.2809 50.3372 33.7023C50.3713 33.8129 50.4077 33.9296 50.4431 34.0572C50.5198 34.3338 50.6199 34.5577 50.7148 34.7702C50.8684 35.1142 51.009 35.4284 51.0151 35.8888C51.0247 36.8461 50.4985 37.3573 49.8254 38.0111L49.7207 38.113C49.3047 38.516 48.9138 38.6607 48.457 38.8298C48.2634 38.9014 48.0581 38.9774 47.8342 39.0792C47.6155 39.1815 47.4165 39.2454 47.228 39.306C46.8975 39.4121 46.5984 39.5082 46.2788 39.7837C46.2275 39.828 46.1797 39.8682 46.1348 39.9061C45.8625 40.135 45.6929 40.2778 45.4861 40.7096C45.396 40.5586 45.3057 40.4479 45.2153 40.3473C44.0312 44.9969 42.1248 49.6465 40.0676 52.6558C39.1746 53.9641 38.3015 54.7088 37.5188 55.363C36.5254 56.1983 35.6726 56.9229 34.8296 58.7144L34.8196 58.7345C34.4182 59.5195 33.8965 60.7071 33.3245 62.0859C35.843 61.2204 38.3315 60.2945 40.74 59.3283C40.74 59.3233 40.7375 59.3182 40.7351 59.3132C40.7324 59.3082 40.73 59.3031 40.73 59.2981C40.2583 57.869 40.178 55.2322 41.5427 53.32C43.7 54.6585 46.1887 53.2395 46.1887 53.2395C46.2009 53.2395 46.249 53.2607 46.3279 53.2953C46.894 53.545 49.0498 54.495 50.9348 53.32C51.1658 53.6722 51.3564 54.0446 51.5068 54.427C51.6069 54.3718 51.7073 54.319 51.8074 54.2663C51.908 54.2133 52.0083 54.1604 52.1089 54.105C53.5439 53.3401 54.8884 53.4206 56.1829 53.5011L56.2708 53.5062ZM35.9727 17.0686L36.0239 17.0087L36.0398 16.9902C36.7969 16.1009 37.5361 15.2325 38.5327 14.5328C38.3921 14.5429 38.2617 14.5429 38.1213 14.5429C33.124 14.5429 28.769 13.0937 24.7954 10.1147C24.5144 10.2455 24.2034 10.316 23.8723 10.316C23.6313 10.316 23.4106 10.2858 23.2 10.2153C21.7952 11.6243 20.4404 13.2145 19.1963 15.1769C17.4302 18.005 16.2661 21.2155 15.1423 24.3152C13.8076 28.0189 12.4229 31.8231 9.99463 35.0839H10.8274C14.199 35.0839 18.2932 32.6484 22.1965 29.619C22.0459 29.3071 21.9155 28.9749 21.7852 28.5925C21.3135 27.1634 21.2332 24.5266 22.5979 22.6144C24.7554 23.9529 27.2439 22.5339 27.2439 22.5339C27.2554 22.5339 27.3013 22.5541 27.377 22.5873C27.7009 22.7299 28.5708 23.1127 29.6121 23.178C29.7961 23.0042 29.9802 22.8334 30.1611 22.6654C30.3157 22.5222 30.4678 22.381 30.6155 22.242L30.8408 22.0325C31.99 20.9639 33.0637 19.9655 33.9871 19.1624C34.7576 18.4874 35.3765 17.7648 35.9727 17.0686Z" transform="translate(9.00977 14.0703)" fill="#DA6F25"/>
<path d="M0 1.07687L1.25431 0C7.31512 7.10531 10.5161 15.2573 10.5161 23.5502C10.5161 31.843 7.31512 39.995 1.25431 47.1003L0 46.0235C5.79992 39.2201 8.87046 31.4505 8.87046 23.5502C8.85039 15.6599 5.78988 7.87018 0 1.07687Z" transform="translate(85.5732 23.9938)" fill="#DA6F25"/>
<path fill-rule="evenodd" clip-rule="evenodd" d="M15.634 18.2564C15.634 24.2849 13.2961 30.2328 8.85083 35.4359L10.1052 36.5128C14.8113 31.0077 17.2898 24.6975 17.2898 18.2564C17.2898 11.8254 14.7913 5.49506 10.1052 0L8.85083 1.07684C13.2861 6.28003 15.634 12.2079 15.634 18.2564ZM5.16772 18.2565C5.16772 22.8658 3.38159 27.3847 0 31.36L1.25439 32.4369C4.88672 28.1596 6.82349 23.2584 6.82349 18.2565C6.82349 13.2546 4.90674 8.35333 1.25439 4.07605L0 5.15289C3.38159 9.11819 5.16772 13.6471 5.16772 18.2565Z" transform="translate(70.0298 29.2875)" fill="#DA6F25"/>
</svg>
