<svg width="100" height="100" viewBox="0 0 100 100" fill="none" xmlns="http://www.w3.org/2000/svg">
<path fill-rule="evenodd" clip-rule="evenodd" d="M38.874 0C42.0146 0 43.7908 2.17389 43.7908 7.09521C43.7908 12.0267 42.0247 14.1905 38.874 14.1905C35.7332 14.1905 33.957 12.0166 33.957 7.09521C33.957 2.16382 35.7332 0 38.874 0ZM12.4629 0.231506H13.8376V10.0944C13.8376 12.1575 14.8311 13.1439 16.8479 13.1439C18.865 13.1439 19.8584 12.1375 19.8584 10.0944V0.231506H21.2332V10.1246C21.2332 13.013 19.6577 14.2006 16.8379 14.2006C14.0083 14.2006 12.4429 13.013 12.4429 10.1246V0.231506H12.4629ZM6.28149 0.231873H4.55566L0 13.9594H1.46509L2.71924 9.95386H8.10791L9.36206 13.9594H10.8271L6.28149 0.231873ZM5.43896 1.18762L7.81714 8.91693H3.02075L5.39893 1.18762H5.43896ZM22.9089 1.26813H26.8726L26.8826 13.959H28.2573V1.26813H32.2209V0.231506H22.9089V1.26813ZM42.4055 7.09528C42.4055 11.5235 41.071 13.1438 38.8735 13.1438C36.676 13.1438 35.3313 11.5336 35.3413 7.09528C35.3413 2.66705 36.686 1.04669 38.8735 1.04669C41.061 1.04669 42.4055 2.65698 42.4055 7.09528ZM1.82666 24.2044H4.33521V42.7225H1.82666V24.2044ZM25.2471 19.0314H13.6172V45.4901H18.2332V35.3353H25.2471C32.783 35.3655 34.218 30.4844 34.218 27.2236C34.218 23.9225 32.7729 19.0314 25.2471 19.0314ZM18.2429 31.5613H24.9961C27.0632 31.5613 29.6121 30.5247 29.6121 27.1934C29.6121 23.7112 27.5046 22.8256 25.0764 22.8256H18.2429V31.5613ZM43.0681 24.2044H40.5596V42.7225H43.0681V24.2044Z" transform="translate(28.0002 35.3579)" fill="#DA6F25"/>
<path d="M22.718 4.11625C22.718 4.94151 21.9253 5.61581 20.962 5.61581H1.75603C0.792722 5.61581 0 4.94151 0 4.11625V1.49956C0 0.6743 0.792722 0 1.75603 0H20.962C21.9253 0 22.718 0.6743 22.718 1.49956V4.11625Z" transform="translate(39.2588 20.0906)" fill="#DA6F25"/>
</svg>
