<svg width="104" height="100" viewBox="0 0 104 100" fill="none" xmlns="http://www.w3.org/2000/svg">
<path d="M0.00163828 18.9492C0.00163828 19.1605 -0.0184306 19.4323 0.081914 19.5933C0.182259 19.7442 1.09539 20.4387 2.28949 20.7507C3.47356 21.0626 4.7379 21.0123 5.14932 21.2337C5.56073 21.2136 5.99221 21.2337 5.99221 21.2337V21.2237L6.70466 20.6601L7.03579 20.65C7.69807 22.7333 9.64475 24.2429 11.9426 24.2429C13.4077 24.2429 14.7222 23.6391 15.6554 22.6427C16.2976 22.0892 16.7893 21.3847 17.0703 20.5695L17.1405 20.5796L18.2242 20.5494C18.2242 20.8211 18.2142 21.0325 18.2242 21.0928L47.8259 20.6701V20.6601H47.8359V20.5393C47.8359 20.4286 47.8459 20.2575 47.856 20.0462L47.876 20.0562L48.5684 20.3984L48.8494 20.4085C49.1203 21.2941 49.6421 22.059 50.3244 22.6528C51.2577 23.629 52.5822 24.253 54.0372 24.253C56.6662 24.253 58.8136 22.2804 59.1347 19.7342H59.1648L59.3053 19.392L60.108 19.8851V19.9556C60.108 19.9556 60.1281 19.9556 60.1582 19.9657H60.1783C60.2987 19.9858 60.5295 20.0059 60.7201 20.0059C60.971 20.0059 61.1015 19.1001 61.7236 18.8888C62.0447 18.3755 62.2253 17.3792 62.2956 16.4432V16.4231C62.3457 15.7186 62.3257 15.0443 62.2153 14.6618C61.9544 14.0982 61.2921 13.8567 61.2419 13.2629C61.1918 12.6691 61.1316 11.4514 61.0513 11.0387C61.0513 11.0287 61.0413 11.0186 61.0413 11.0085C61.0513 10.9985 61.0613 10.9783 61.0613 10.9783C61.0613 10.9783 60.9309 9.94174 60.8004 9.71026C60.67 9.47879 60.3388 8.66359 59.807 8.18051C59.7568 8.14025 59.6966 8.09999 59.6465 8.07987C59.4357 7.75781 58.7935 6.87216 57.9607 6.40921C57.9105 6.37902 57.9306 6.41928 57.9607 6.48973L57.8202 6.41928L57.77 6.36896C57.5693 6.03684 56.1043 4.6983 54.7998 3.64156C54.4887 3.38996 54.1977 3.15848 53.9067 2.9572C53.4953 2.65528 53.1742 2.44393 52.9836 2.38354V2.39361L52.9735 2.38354C52.9735 2.38354 52.7829 2.15207 52.5922 2.13194C52.7729 1.94072 53.2043 1.78976 53.2043 1.47777C53.2043 1.31674 52.6424 1.20604 52.0604 1.11546C51.8698 1.09533 51.6992 1.0752 51.5286 1.04501C51.2075 1.01482 50.9265 0.994687 50.8061 0.994687C50.5954 0.984623 48.2272 0.682698 45.4678 0.431094C44.9761 0.390837 44.4744 0.330452 44.0328 0.290195C41.2934 0.038591 38.3935 -0.202949 33.607 0.270067C29.4628 0.682698 28.2787 1.63879 28.2787 1.63879C28.2386 1.65892 28.1884 1.67905 28.1483 1.70924C28.1483 1.71931 28.1483 1.71931 28.1583 1.72937C28.1483 1.72937 28.1483 1.73944 28.1583 1.73944C22.3082 4.64798 18.6557 6.78159 18.1138 7.22441C18.0938 7.23447 18.0637 7.2546 18.0336 7.26467C17.9633 7.27473 17.7225 7.30492 17.6523 7.34518C17.3813 7.38544 16.9799 7.44582 16.5083 7.52634C16.5585 7.50621 16.6087 7.50621 16.6087 7.50621C15.1236 7.73768 13.799 7.96916 12.5848 8.20064C8.65134 8.94538 3.8348 10.143 2.52029 11.6627L2.49018 11.6929H2.50022C2.48015 11.713 2.46008 11.7432 2.42998 11.7734C0.453189 14.3901 0.453189 14.9436 0.302672 15.6179C0.152155 16.2922 0.172224 17.6811 0.182259 17.7314C0.202327 17.7817 0.392982 17.8119 0.392982 17.8119L0.312707 18.6372C0.272569 18.5869 0.00163828 18.7378 0.00163828 18.9492V18.9492Z" transform="translate(37.2524 34.2911)" fill="#DA6F25"/>
<path d="M36.2946 6.79332H12.1618V0L0 12.2078L12.1618 24.4056V17.6224H36.2946" transform="translate(46.7366 60.6877)" fill="#DA6F25"/>
<path d="M26.4609 14.667C26.2 14.1034 25.5377 13.8619 25.4875 13.2681C25.4374 12.6743 25.3771 11.4566 25.2969 11.0439C25.2969 11.0339 25.2868 11.0238 25.2868 11.0137C25.2969 11.0037 25.3069 10.9835 25.3069 10.9835C25.3069 10.9835 25.1765 9.94694 25.046 9.71546C24.9156 9.48398 24.5844 8.66879 24.0526 8.18571C24.0024 8.14545 23.9422 8.10519 23.892 8.08506C23.6813 7.76301 23.0391 6.87736 22.2063 6.41441C22.1561 6.38422 22.1762 6.42448 22.2063 6.49493L22.0658 6.42448L22.0156 6.37416C21.8149 6.04204 20.3499 4.7035 19.0454 3.64676C18.7343 3.39516 18.4433 3.16368 18.1523 2.9624C17.7409 2.66048 17.4198 2.44913 17.2292 2.38874V2.39881L17.2191 2.38874C17.2191 2.38874 17.0285 2.15727 16.8378 2.13714C17.0184 1.94592 17.4499 1.79496 17.4499 1.48297C17.4499 1.32194 16.888 1.21123 16.306 1.12066C16.1153 1.10053 15.9448 1.0804 15.7742 1.05021C15.4531 1.02002 15.1721 0.999887 15.0517 0.999887C14.841 0.989823 12.4728 0.687897 9.71336 0.436293C9.22167 0.396036 8.71995 0.335651 8.27843 0.295395C5.9705 0.0840471 3.56223 -0.1273 0 0.0941113V20.8565L12.0815 20.6753V20.6653H12.0915V20.5445C12.0915 20.4338 12.1016 20.2627 12.1116 20.0514L12.1216 20.0614L12.814 20.4036L13.095 20.4137C13.3659 21.2993 13.8877 22.0642 14.57 22.658C15.5032 23.6342 16.8278 24.2582 18.2828 24.2582C20.9118 24.2582 23.0592 22.2856 23.3803 19.7394H23.4104L23.5509 19.3972L24.3536 19.8903V19.9608C24.3536 19.9608 24.3737 19.9608 24.4038 19.9709H24.4239C24.5443 19.991 24.7751 20.0111 24.9657 20.0111C25.2166 20.0111 25.347 19.1053 25.9692 18.894C26.2903 18.3807 26.4709 17.3844 26.5411 16.4484V16.4283C26.5913 15.7238 26.5712 15.0495 26.4609 14.667V14.667Z" transform="translate(1.06006 34.2658)" fill="#DA6F25"/>
<path fill-rule="evenodd" clip-rule="evenodd" d="M0 21.3461L11.9109 0L24.7751 21.3461H0ZM22.8381 20.2692L11.9507 2.19397L1.84595 20.2692H22.8381Z" transform="translate(26.7283 14.0706)" fill="#DA6F25"/>
<path fill-rule="evenodd" clip-rule="evenodd" d="M2.448 0H0.36084V8.50421H2.448V0ZM1.40479 9.79242C1.77612 9.79242 2.10718 9.92328 2.37817 10.1749C2.66919 10.4265 2.79956 10.7485 2.79956 11.131C2.79956 11.5034 2.65918 11.8254 2.38818 12.087C2.10718 12.3487 1.77612 12.4796 1.39478 12.4796C1.2041 12.4796 1.03345 12.4293 0.863037 12.3688C0.692383 12.3085 0.552002 12.2179 0.421387 12.0971C0.291016 11.9864 0.190674 11.8354 0.110352 11.6744C0.0300293 11.5034 0 11.3322 0 11.141C0 10.7686 0.140381 10.4466 0.411377 10.1849C0.692383 9.92328 1.02344 9.79242 1.40479 9.79242Z" transform="translate(37.3445 21.0048)" fill="#DA6F25"/>
</svg>
