<svg width="100" height="100" viewBox="0 0 100 100" fill="none" xmlns="http://www.w3.org/2000/svg">
<path fill-rule="evenodd" clip-rule="evenodd" d="M32.2908 0C34.8997 0 36.3748 1.80151 36.3748 5.89758C36.3748 9.99371 34.8997 11.7952 32.2908 11.7952C29.6819 11.7952 28.2068 9.99371 28.2068 5.89758C28.2068 1.80151 29.6819 0 32.2908 0ZM19.0256 1.04669H22.3269L22.3169 11.5939H23.4609V1.04669H26.7622V0.181152H19.0256V1.04669ZM5.20776 0.190613H3.77295L0 11.5933H1.21411L2.25781 8.27216H6.73315L7.77661 11.5933H8.99097L5.20776 0.190613ZM4.51562 0.986328L6.48242 7.40729H2.49878L4.47559 0.986328H4.51562ZM10.3455 0.191223H11.4895V8.39349C11.4895 10.1044 12.3123 10.9297 13.988 10.9297C15.6638 10.9297 16.4866 10.0944 16.4866 8.39349V0.191223H17.6306V8.41364C17.6306 10.819 16.3259 11.8053 13.978 11.8053C11.6299 11.8053 10.3254 10.819 10.3254 8.41364V0.191223H10.3455ZM35.2212 5.89764C35.2212 9.58112 34.1174 10.9297 32.2913 10.9297C30.4648 10.9297 29.3511 9.60126 29.3611 5.89764C29.3611 2.21411 30.4751 0.86554 32.2913 0.86554C34.1074 0.86554 35.2212 2.2041 35.2212 5.89764Z" transform="translate(32.0876 18.0603)" fill="#DA6F25"/>
<path d="M17.2392 46.6173V29.3169H0V17.3003H17.2392V0H29.2203V17.3003H46.4595V29.3169H29.2203V46.6173" transform="translate(27.0505 34.9279)" fill="#DA6F25"/>
</svg>
