<svg width="100" height="102" viewBox="0 0 100 102" fill="none" xmlns="http://www.w3.org/2000/svg">
<path fill-rule="evenodd" clip-rule="evenodd" d="M25.5076 18.1558L23.2397 22.1915L20.9922 18.2061C13.5967 17.884 6.37183 15.7404 0 11.9562L0.672363 10.819C6.6228 14.3415 13.3357 16.4046 20.2295 16.8374L16.7576 10.6278H21.2129V8.7659C15.5935 8.47403 10.1248 6.83359 5.28809 3.95523L5.7998 3.07965C10.4861 5.85736 15.7842 7.45755 21.2129 7.72928V0H25.2969V7.6991C30.5046 7.33679 35.5723 5.75671 40.0776 3.07965L40.5894 3.95523C35.9233 6.72287 30.6853 8.35327 25.2869 8.71558V10.6076H29.7422L26.2803 16.777C32.9531 16.2637 39.4355 14.2307 45.1953 10.7989L45.8674 11.9361C39.6763 15.6196 32.6821 17.7431 25.5076 18.1558ZM22.1157 32.3362H24.3735V41.4845H22.1157V32.3362ZM23.2395 42.8734C22.8181 42.8734 22.4668 43.0143 22.1858 43.3061C21.8848 43.5879 21.7444 43.9301 21.7444 44.3427C21.7444 44.544 21.7844 44.7252 21.8647 44.9063C21.9451 45.0875 22.0554 45.2384 22.196 45.3592C22.3364 45.48 22.4971 45.5806 22.6775 45.6611C22.8582 45.7416 23.0488 45.7718 23.2495 45.7718C23.6709 45.7718 24.0222 45.6309 24.3032 45.3391C24.6042 45.0573 24.7446 44.7151 24.7446 44.3025C24.7446 43.91 24.5942 43.5678 24.2932 43.286C23.9822 43.0042 23.6409 42.8734 23.2395 42.8734Z" transform="translate(26.874 44.2877)" fill="#DA6F25"/>
<path fill-rule="evenodd" clip-rule="evenodd" d="M58.6917 0.0100708L59.5645 1.4895C50.8445 6.66248 40.9204 9.48044 30.7756 9.66159L43.8105 31.2794H17.1489L29.2102 9.65155C18.925 9.5509 8.84033 6.72287 0 1.47943L0.873047 0C9.61304 5.18304 19.5974 7.94064 29.7822 7.94064C39.9673 7.94064 49.9617 5.20319 58.6917 0.0100708ZM30.0232 10.6882L19.1558 30.1422H41.7434L30.0232 10.6882Z" transform="translate(20.0203 60.8433)" fill="#DA6F25"/>
<path fill-rule="evenodd" clip-rule="evenodd" d="M44.2419 0.0100708C44.262 10.1547 44.272 18.7093 44.272 22.2116C44.272 22.9765 44.272 23.4797 44.292 23.7213V23.9125C43.1082 25.0095 42.7568 31.7424 42.7568 32.6281C42.7568 37.3783 32.7224 39.0289 23.3904 39.0289H20.9019C11.5698 39.0289 1.53516 37.3683 1.53516 32.6281C1.53516 31.7525 1.17407 25.0195 0 23.9125V22.2015C0 18.6992 0.0100098 10.1447 0.0300293 0H4.04395L4.40503 17.0688C4.40503 16.7872 4.60815 16.4916 4.92212 16.0343C5.98853 14.4812 8.33545 11.0636 8.35864 0H35.3013V0.0100708H35.9133C35.9365 11.0737 38.2834 14.4913 39.3499 16.0444C39.6638 16.5016 39.8669 16.7973 39.8669 17.0789L40.228 0.0100708H44.2419ZM2.20728 31.8128C2.20728 32.4569 2.37769 33.0205 2.69873 33.5237C3.7124 35.0837 6.18091 35.9995 9.37183 36.553L8.31812 35.0434V35.0334C7.81641 34.9126 7.40503 34.7918 7.09399 34.6509C5.85962 34.0974 5.00684 33.1312 4.39478 31.9436C3.89282 30.9674 3.55176 29.8101 3.31104 28.5822L2.15698 29.186C2.18701 30.0415 2.20728 30.9171 2.20728 31.8128ZM22.1357 26.6801C11.73 26.6801 7.59595 24.3654 7.12427 22.7148C8.24805 19.9874 9.04077 15.5994 9.49243 10.4063C11.6599 11.2014 16.0449 11.5034 22.0454 11.5034C28.1965 11.5134 32.6519 11.2014 34.7693 10.356C35.2307 15.5592 36.0234 19.9874 37.1475 22.7148C36.6758 24.3654 32.5415 26.6801 22.1357 26.6801ZM41.5522 33.5237C41.8633 33.0205 42.0439 32.4569 42.0439 31.8128C42.0439 30.907 42.064 30.0315 42.0942 29.186L40.9402 28.5822C40.6995 29.8101 40.3582 30.9473 39.8564 31.9436C39.2544 33.1312 38.4016 34.0873 37.1572 34.6509C36.8462 34.7918 36.4248 34.9126 35.9331 35.0334V35.0434L34.8794 36.553C38.0803 35.9995 40.5388 35.0937 41.5522 33.5237Z" transform="translate(27.9875 7.01007)" fill="#DA6F25"/>
</svg>
