<svg width="100" height="100" viewBox="0 0 100 100" fill="none" xmlns="http://www.w3.org/2000/svg">
<path fill-rule="evenodd" clip-rule="evenodd" d="M0 24.0634H27.936L13.4463 0L0 24.0634ZM2.10742 22.8356L13.4966 2.46576L25.7688 22.8356H2.10742Z" transform="translate(36.491 63.8341)" fill="#DA6F25"/>
<path fill-rule="evenodd" clip-rule="evenodd" d="M0.411377 9.59119H2.76953V0H0.411377V9.59119ZM0.46167 11.5235C0.150635 11.8154 0 12.1676 0 12.6003C0 12.7916 0.050293 12.9929 0.150635 13.1841C0.230713 13.3854 0.341064 13.5363 0.491699 13.6672C0.64209 13.808 0.802734 13.9087 0.993408 13.9893C1.18408 14.0698 1.38477 14.11 1.59546 14.11C2.02686 14.11 2.38818 13.959 2.70923 13.6571C3.02026 13.3652 3.1709 13.013 3.1709 12.5803C3.1709 12.1575 3.01025 11.7952 2.68921 11.5134C2.36816 11.2216 2.00684 11.0706 1.57544 11.0706C1.14404 11.0706 0.782715 11.2216 0.46167 11.5235Z" transform="translate(48.4827 71.6439)" fill="#DA6F25"/>
<path fill-rule="evenodd" clip-rule="evenodd" d="M18.4048 1.14734C18.4148 1.27814 18.3745 1.409 18.2842 1.50964C18.2041 1.61029 18.0735 1.66058 17.9331 1.66058H0.563513C0.322546 1.66058 0.111853 1.47943 0.0918333 1.23792L0.00150122 0.513245C-0.00850854 0.382446 0.0315305 0.251587 0.121863 0.15094C0.212195 0.050293 0.34281 0 0.473181 0H17.8428C18.0835 0 18.2945 0.181152 18.3145 0.422668L18.4048 1.14734ZM18.4754 6.54175C18.6057 6.54175 18.7361 6.49146 18.8265 6.39081C18.9168 6.29016 18.9568 6.1593 18.9468 6.0285L18.8565 5.30383C18.8365 5.06232 18.6258 4.88116 18.385 4.88116H11.8626C11.7322 4.88116 11.6016 4.93146 11.5113 5.0321C11.4209 5.13275 11.3809 5.26361 11.3909 5.39441L11.4812 6.11908C11.5013 6.3606 11.712 6.54175 11.9529 6.54175H18.4754ZM19.0069 11.4229C19.1372 11.4229 19.2676 11.3726 19.3579 11.2719C19.4483 11.1713 19.4883 11.0404 19.4783 10.9096L19.388 10.1749C19.368 9.93335 19.1573 9.7522 18.9165 9.7522H12.3941C12.2637 9.7522 12.1331 9.80249 12.0428 9.90314C11.9524 10.0038 11.9124 10.1346 11.9224 10.2654L12.0127 10.9901C12.0328 11.2316 12.2434 11.4128 12.4844 11.4128H19.0069V11.4229ZM19.8999 16.1329C19.9903 16.0323 20.0303 15.9014 20.0203 15.7706L19.93 15.046C19.9099 14.8044 19.6993 14.6233 19.4585 14.6233H12.9361C12.8057 14.6233 12.6751 14.6736 12.5848 14.7742C12.4944 14.8749 12.4544 15.0057 12.4644 15.1365L12.5547 15.8612C12.5747 16.1027 12.7854 16.2839 13.0264 16.2839H19.5489C19.6792 16.2939 19.7996 16.2336 19.8999 16.1329ZM20.5623 19.9271L20.6526 20.6517C20.6626 20.7926 20.6226 20.9235 20.5323 21.014C20.4419 21.1147 20.3116 21.165 20.1812 21.165H13.6587C13.4178 21.165 13.2071 20.9838 13.187 20.7423L13.0967 20.0176C13.0867 19.8868 13.1267 19.756 13.2171 19.6553C13.3074 19.5547 13.438 19.5044 13.5684 19.5044H20.0909C20.3316 19.5044 20.5423 19.6855 20.5623 19.9271Z" transform="translate(67.1946 56.9703)" fill="#DA6F25"/>
<path fill-rule="evenodd" clip-rule="evenodd" d="M0.121863 0.15094C0.212195 0.050293 0.34281 0 0.473181 0H6.99564C7.23636 0 7.44706 0.181152 7.46708 0.422668L7.55741 1.14734C7.56742 1.27814 7.52738 1.409 7.43705 1.50964C7.34672 1.61029 7.21634 1.66058 7.08597 1.66058H0.563513C0.322546 1.66058 0.111853 1.47943 0.0918333 1.23792L0.00150122 0.513245C-0.00850854 0.382446 0.0315305 0.251587 0.121863 0.15094ZM1.01517 4.87103C0.884802 4.87103 0.754187 4.92133 0.663855 5.02197C0.573523 5.12262 0.533484 5.25348 0.543493 5.38428L0.633825 6.10895C0.653845 6.35046 0.864538 6.53162 1.10551 6.53162H7.62797C7.75834 6.53162 7.88871 6.48132 7.97904 6.38068C8.06937 6.28003 8.10941 6.14917 8.0994 6.01837L8.00907 5.2937C7.98905 5.05219 7.77836 4.87103 7.53763 4.87103H1.01517ZM1.19584 9.90314C1.28617 9.80249 1.41678 9.7522 1.54716 9.7522H8.06962C8.31034 9.7522 8.52103 9.93335 8.54105 10.1749L8.63138 10.8995C8.64139 11.0303 8.60135 11.1612 8.51102 11.2618C8.42069 11.3625 8.29032 11.4128 8.15995 11.4128H1.63749C1.39652 11.4128 1.18583 11.2316 1.16581 10.9901L1.07548 10.2654C1.06547 10.1346 1.10551 10.0038 1.19584 9.90314ZM1.72758 14.7843C1.81791 14.6837 1.94852 14.6334 2.07889 14.6334H8.60135C8.84208 14.6334 9.05277 14.8145 9.07279 15.056L9.16312 15.7807C9.17313 15.9115 9.13309 16.0424 9.04276 16.143C8.95243 16.2437 8.82206 16.2939 8.69169 16.2939H2.16923C1.92826 16.2939 1.71757 16.1128 1.69755 15.8713L1.60721 15.1466C1.5972 15.0158 1.63724 14.8849 1.72758 14.7843Z" transform="translate(75.9146 37.4559)" fill="#DA6F25"/>
<path fill-rule="evenodd" clip-rule="evenodd" d="M9.27347 1.66058C9.03251 1.66058 8.82181 1.47943 8.80179 1.23792L8.71146 0.513245C8.70145 0.382446 8.74149 0.251587 8.83182 0.15094C8.92216 0.050293 9.05277 0 9.18314 0H15.7056C15.9463 0 16.157 0.181152 16.177 0.422668L16.2674 1.14734C16.2774 1.27814 16.2373 1.409 16.147 1.50964C16.0567 1.61029 15.9263 1.66058 15.7959 1.66058H9.27347ZM9.73514 4.87109C9.60477 4.87109 9.47416 4.92139 9.38383 5.02203C9.29349 5.12268 9.25345 5.25354 9.26346 5.38434L9.3538 6.10901C9.37382 6.35052 9.58451 6.53168 9.82548 6.53168H16.3479C16.4783 6.53168 16.6087 6.48138 16.699 6.38074C16.7893 6.28009 16.8294 6.14923 16.8194 6.01843L16.729 5.29376C16.709 5.05225 16.4983 4.87109 16.2576 4.87109H9.73514ZM9.92557 9.89307C10.0159 9.79242 10.1465 9.74213 10.2769 9.74213H16.7994C17.0401 9.74213 17.2508 9.92328 17.2708 10.1648L17.3611 10.8895C17.3711 11.0203 17.3311 11.1511 17.2408 11.2518C17.1504 11.3524 17.0201 11.4027 16.8897 11.4027H10.3672C10.1263 11.4027 9.91556 11.2216 9.89554 10.98L9.80521 10.2554C9.7952 10.1246 9.83524 9.99371 9.92557 9.89307ZM10.8089 14.6232C10.6785 14.6232 10.5479 14.6735 10.4576 14.7742C10.3672 14.8748 10.3272 15.0057 10.3372 15.1365L10.4275 15.8611C10.4475 16.1027 10.6582 16.2838 10.8992 16.2838H17.4217C17.552 16.2838 17.6824 16.2335 17.7727 16.1329C17.8631 16.0322 17.9031 15.9014 17.8931 15.7706L17.8028 15.0459C17.7828 14.8044 17.5721 14.6232 17.3313 14.6232H10.8089ZM18.2842 21.004C18.3745 20.9033 18.4148 20.7725 18.4048 20.6417L18.3145 19.917C18.2945 19.6755 18.0835 19.4943 17.8428 19.4943H0.473181C0.34281 19.4943 0.212195 19.5446 0.121863 19.6453C0.0315305 19.7459 -0.00850854 19.8768 0.00150122 20.0076L0.0918333 20.7322C0.111853 20.9738 0.322546 21.1549 0.563513 21.1549H17.9331C18.0835 21.165 18.2141 21.1046 18.2842 21.004Z" transform="translate(64.5059 13.0805)" fill="#DA6F25"/>
<path fill-rule="evenodd" clip-rule="evenodd" d="M2.23929 1.14734C2.22928 1.27814 2.26932 1.409 2.35966 1.50964C2.46 1.61029 2.5806 1.66058 2.71097 1.66058H20.0806C20.3213 1.66058 20.5323 1.47943 20.5523 1.23792L20.6426 0.513245C20.6526 0.382446 20.6123 0.251587 20.522 0.15094C20.4319 0.050293 20.3013 0 20.1709 0H2.80131C2.56034 0 2.34965 0.181152 2.32963 0.422668L2.23929 1.14734ZM2.189 6.54175C2.05863 6.54175 1.92801 6.49146 1.83768 6.39081C1.74735 6.29016 1.70731 6.1593 1.71732 6.0285L1.80765 5.30383C1.82767 5.06232 2.03837 4.88116 2.27933 4.88116H8.80179C8.93217 4.88116 9.06254 4.93146 9.15287 5.0321C9.2432 5.13275 9.28324 5.26361 9.27323 5.39441L9.1829 6.11908C9.16288 6.3606 8.95218 6.54175 8.71146 6.54175H2.189ZM1.63724 11.4229C1.50687 11.4229 1.37626 11.3726 1.28593 11.2719C1.19559 11.1713 1.15555 11.0404 1.16556 10.9096L1.2559 10.1849C1.27592 9.94342 1.48661 9.76227 1.72758 9.76227H8.25004C8.38041 9.76227 8.51078 9.81256 8.60111 9.91321C8.69144 10.0139 8.73148 10.1447 8.72147 10.2755L8.63114 11.0002C8.61112 11.2417 8.40043 11.4229 8.1597 11.4229H1.63724ZM0.754187 16.1329C0.663855 16.0322 0.623816 15.9014 0.633825 15.7706L0.724157 15.0459C0.744177 14.8044 0.95487 14.6232 1.19584 14.6232H7.7183C7.84867 14.6232 7.97904 14.6735 8.06937 14.7742C8.1597 14.8748 8.19974 15.0057 8.18973 15.1365L8.0994 15.8611C8.07938 16.1027 7.86869 16.2838 7.62797 16.2838H1.10551C0.975134 16.2939 0.844519 16.2335 0.754187 16.1329ZM0.0918333 19.9271L0.00150122 20.6517C-0.00850854 20.7926 0.0315305 20.9235 0.121863 21.014C0.212195 21.1147 0.34281 21.165 0.473181 21.165H6.99564C7.23636 21.165 7.44706 20.9838 7.46708 20.7423L7.55741 20.0176C7.56742 19.8868 7.52738 19.756 7.43705 19.6553C7.34672 19.5547 7.21634 19.5044 7.08597 19.5044H0.563513C0.322546 19.5044 0.111853 19.6855 0.0918333 19.9271Z" transform="translate(13.0691 56.9705)" fill="#DA6F25"/>
<path fill-rule="evenodd" clip-rule="evenodd" d="M9.05253 0.15094C8.96219 0.050293 8.83182 0 8.70145 0H2.17899C1.93802 0 1.72733 0.181152 1.70731 0.422668L1.61698 1.14734C1.60697 1.27814 1.64701 1.409 1.73734 1.50964C1.82767 1.61029 1.95829 1.66058 2.08866 1.66058H8.61112C8.85184 1.66058 9.06254 1.47943 9.08256 1.23792L9.17289 0.513245C9.1829 0.382446 9.14286 0.251587 9.05253 0.15094ZM8.17948 4.87103C8.30985 4.87103 8.44022 4.92133 8.53055 5.02197C8.62089 5.12262 8.66093 5.25348 8.65092 5.38428L8.56058 6.10895C8.54056 6.35046 8.32987 6.53162 8.08915 6.53162H1.56669C1.43632 6.53162 1.3057 6.48132 1.21537 6.38068C1.12504 6.28003 1.085 6.14917 1.09501 6.01837L1.18534 5.2937C1.20536 5.05219 1.41605 4.87103 1.65702 4.87103H8.17948ZM7.97855 9.90314C7.88822 9.80249 7.75785 9.7522 7.62748 9.7522H1.10502C0.86405 9.7522 0.653357 9.93335 0.633337 10.1749L0.543005 10.8995C0.532995 11.0303 0.573034 11.1612 0.663366 11.2618C0.753698 11.3625 0.884314 11.4128 1.01468 11.4128H7.53715C7.77787 11.4128 7.98856 11.2316 8.00858 10.9901L8.09891 10.2654C8.10892 10.1346 8.06888 10.0038 7.97855 9.90314ZM7.43705 14.7843C7.34672 14.6837 7.21634 14.6334 7.08597 14.6334H0.563513C0.322546 14.6334 0.111853 14.8145 0.0918333 15.056L0.00150122 15.7807C-0.00850854 15.9115 0.0315305 16.0424 0.121863 16.143C0.212195 16.2437 0.34281 16.2939 0.473181 16.2939H6.99564C7.23636 16.2939 7.44706 16.1128 7.46708 15.8713L7.55741 15.1466C7.56742 15.0158 7.52738 14.8849 7.43705 14.7843Z" transform="translate(15.8289 37.456)" fill="#DA6F25"/>
<path fill-rule="evenodd" clip-rule="evenodd" d="M9.14335 1.66058C9.38407 1.66058 9.59476 1.47943 9.61478 1.23792L9.70511 0.513245C9.71512 0.382446 9.67509 0.251587 9.58475 0.15094C9.49442 0.050293 9.36405 0 9.23368 0H2.71122C2.47025 0 2.25956 0.181152 2.23954 0.422668L2.14921 1.14734C2.1392 1.27814 2.17924 1.409 2.26957 1.50964C2.3599 1.61029 2.49051 1.66058 2.62089 1.66058H9.14335ZM8.69193 4.87103C8.8223 4.87103 8.95267 4.92133 9.04301 5.02197C9.13334 5.12262 9.17338 5.25348 9.16337 5.38428L9.07303 6.10895C9.05301 6.35046 8.84232 6.53162 8.6016 6.53162H2.07914C1.94877 6.53162 1.81815 6.48132 1.72782 6.38068C1.63749 6.28003 1.59745 6.14917 1.60746 6.01837L1.69779 5.2937C1.71781 5.05219 1.9285 4.87103 2.16947 4.87103H8.69193ZM8.50101 9.89307C8.41068 9.79242 8.28031 9.74213 8.14994 9.74213H1.62748C1.38651 9.74213 1.17582 9.92328 1.1558 10.1648L1.06547 10.8895C1.05546 11.0203 1.0955 11.1511 1.18583 11.2518C1.27616 11.3524 1.40677 11.4027 1.53715 11.4027H8.05961C8.30033 11.4027 8.51102 11.2216 8.53104 10.98L8.62137 10.2554C8.63138 10.1246 8.59134 9.99371 8.50101 9.89307ZM7.60795 14.6232C7.73832 14.6232 7.86869 14.6735 7.95902 14.7742C8.04935 14.8748 8.08939 15.0057 8.07938 15.1365L7.98905 15.8611C7.96903 16.1027 7.75834 16.2838 7.51761 16.2838H0.995154C0.864782 16.2838 0.734167 16.2335 0.643835 16.1329C0.553503 16.0322 0.513464 15.9014 0.523474 15.7706L0.613806 15.0459C0.633825 14.8044 0.844519 14.6232 1.08549 14.6232H7.60795ZM0.121863 21.0039C0.0315305 20.9033 -0.00850854 20.7724 0.00150122 20.6416L0.0918333 19.9169C0.111853 19.6754 0.322546 19.4943 0.563513 19.4943H17.9331C18.0635 19.4943 18.1941 19.5446 18.2842 19.6452C18.3745 19.7458 18.4148 19.8767 18.4048 20.0075L18.3145 20.7322C18.2945 20.9737 18.0835 21.1548 17.8428 21.1548H0.473181C0.34281 21.1649 0.222204 21.1046 0.121863 21.0039Z" transform="translate(17.9861 13.0806)" fill="#DA6F25"/>
</svg>
