<svg width="100" height="100" viewBox="0 0 100 100" fill="none" xmlns="http://www.w3.org/2000/svg">
<path fill-rule="evenodd" clip-rule="evenodd" d="M9.01099 28.3911V47.996C9.01099 49.5963 10.175 50.8945 11.7705 50.8945C12.1316 50.8945 12.4829 50.8241 12.804 50.7033V56.2587C12.804 58.1105 13.717 59.3987 15.0115 59.3987C16.3159 59.3987 17.2292 58.1105 17.2292 56.2587V54.7592C17.5503 54.8799 17.9014 54.9504 18.2627 54.9504C19.8582 54.9504 21.0022 53.6521 21.0022 52.0519V27.3444H30.0029V23.52H27.655V13.4055C27.655 13.3387 27.6472 13.2799 27.6394 13.2222L27.6389 13.2191C27.6318 13.1647 27.6248 13.1113 27.6248 13.0532C27.4543 11.6141 26.2502 10.507 24.7651 10.507H18.9851C19.0654 10.4365 19.1458 10.356 19.2261 10.2755C20.3098 9.1886 20.9922 7.67896 20.9922 6.01837C20.9922 5.68628 20.9519 5.35413 20.9019 5.0321C20.4202 2.1839 17.9817 0 15.0015 0C12.0312 0 9.57275 2.1839 9.10132 5.0321L9.08301 5.14801L9.08276 5.15027C9.03735 5.43506 8.99097 5.72675 8.99097 6.01837C8.99097 7.67896 9.66309 9.19867 10.7568 10.2755C10.8271 10.3461 10.8979 10.4091 10.9751 10.4778L10.9812 10.4833L11.0078 10.507H5.23804C3.76294 10.507 2.54883 11.6241 2.37817 13.0532C2.37476 13.0949 2.37012 13.1354 2.36548 13.1756C2.35669 13.2516 2.34814 13.3264 2.34814 13.4055V23.52H0V27.3444H8.99097V28.3911H9.01099ZM21.0222 22.6042V15.9819H22.156V23.5099H21.0222V22.6042ZM7.81689 15.9819V23.5099H9.01099V15.9819H7.81689Z" transform="translate(35.2549 21.7795)" fill="#DA6F25"/>
<path fill-rule="evenodd" clip-rule="evenodd" d="M0 71.7877V0H44.3823V71.7877H0ZM3.11157 68.6683H41.2827V3.11029H3.11157V68.6683Z" transform="translate(28.0793 14.0397)" fill="#DA6F25"/>
</svg>
