<svg width="100" height="100" viewBox="0 0 100 100" fill="none" xmlns="http://www.w3.org/2000/svg">
<path fill-rule="evenodd" clip-rule="evenodd" d="M12.0212 9.56097C14.1584 12.2582 16.9783 14.3414 20.1792 15.5793L20.7612 14.0999C17.821 12.9727 15.2322 11.0505 13.2754 8.57465C11.3188 6.09888 10.0544 3.12994 9.63306 0L8.06763 0.211365C8.51929 3.63318 9.8938 6.86377 12.0212 9.56097ZM5.09741 14.6031C7.83691 18.0753 11.4595 20.7523 15.5835 22.3425L16.1455 20.8831C12.3022 19.3936 8.90063 16.8776 6.33179 13.6269C3.76294 10.3661 2.11719 6.47125 1.56543 2.37512L0 2.58649C0.592041 6.96436 2.34814 11.1209 5.09741 14.6031Z" transform="translate(41.0894 52.8597)" fill="#DA6F25"/>
<path fill-rule="evenodd" clip-rule="evenodd" d="M62.2649 17.562C62.626 17.7029 62.9573 17.9645 63.178 18.1658C63.6897 18.6187 63.74 19.6251 63.128 19.8667C62.907 19.8667 62.606 19.7459 62.295 19.5648C62.3553 29.0251 62.3653 40.7197 62.3653 43.92V44.6849V44.7755C61.7832 45.319 61.6026 48.6603 61.6026 49.1031C61.6026 51.4481 56.6055 52.2733 51.9695 52.2733H50.7454C46.0994 52.2733 41.1123 51.4581 41.1123 49.1031C41.1123 48.6703 40.9317 45.329 40.3496 44.7755V43.9301C40.3496 40.77 40.3697 29.3572 40.42 19.9774C40.0486 20.2189 39.6573 20.4001 39.3763 20.4001C38.7442 20.1887 38.8142 19.1823 39.3059 18.7294C39.5769 18.4879 39.9683 18.1658 40.43 18.045C40.45 15.4284 40.47 13.0331 40.5 11.131V10.9095C40.5103 10.7485 40.5103 10.5875 40.5103 10.4365C40.5103 10.3607 40.5125 10.2826 40.5149 10.2054L40.5154 10.1873L40.5157 10.1832L40.5164 10.1577V10.1533L40.5166 10.1488L40.5174 10.1226V10.119V10.1155V10.1119V10.1084V10.1049V10.1013V10.0978V10.0942V10.0907C40.5188 10.0438 40.5203 9.99786 40.5203 9.95349C40.5303 9.8327 40.5303 9.70184 40.5303 9.58112V9.45026L40.5315 9.31494L40.532 9.2854L40.5325 9.25793L40.533 9.2326L40.5335 9.20898L40.534 9.18713L40.5345 9.1665L40.535 9.14703L40.5354 9.12854L40.5357 9.12189L40.5364 9.09167V9.08777V9.08405V9.08051V9.07715V9.07397V9.07117V9.06836V9.06555V9.06274V9.05994V9.05707V9.05438C40.5384 8.98157 40.5403 8.90961 40.5403 8.83636V8.70551L40.5415 8.58429L40.542 8.55701L40.5425 8.53113L40.543 8.50702L40.5435 8.48438L40.544 8.46344L40.5445 8.44391L40.545 8.42572L40.5454 8.40881L40.5457 8.40204L40.5464 8.37335V8.36871V8.36426V8.35992V8.35596V8.35236V8.34875V8.34515V8.34155V8.33832V8.33508V8.33185V8.32861C40.5484 8.26581 40.5503 8.2041 40.5503 8.14191V7.99097C40.5547 7.90308 40.5572 7.81708 40.5594 7.73553L40.5599 7.71851L40.5601 7.71356C40.5625 7.6167 40.565 7.52661 40.5704 7.44751C40.8113 1.81152 45.5574 0 50.7251 0H51.9595C57.1272 0 61.8836 1.80151 62.1143 7.44751C62.1197 7.54126 62.1221 7.64581 62.1246 7.75836L62.1248 7.76379V7.76904L62.1253 7.78979C62.1275 7.8855 62.1299 7.98663 62.1343 8.09161C62.1446 8.17212 62.1446 8.27277 62.1446 8.37341C62.1446 8.45044 62.1468 8.52753 62.1492 8.60785C62.1519 8.69543 62.1546 8.78693 62.1546 8.88666C62.1546 8.92126 62.156 8.95734 62.1575 8.99432V8.99713V8.99994V9.00275V9.00555V9.00836V9.01117V9.01398V9.01703V9.02026V9.02368L62.1582 9.04553L62.1585 9.04938L62.1592 9.07086L62.1595 9.07513L62.16 9.08917L62.1604 9.10461C62.1626 9.16302 62.1646 9.22205 62.1646 9.27917V9.43011V9.44019C62.1746 9.56097 62.1746 9.68176 62.1746 9.81256C62.1846 9.95349 62.1846 10.1246 62.1846 10.2755C62.1846 10.3301 62.1861 10.3864 62.1875 10.4438V10.4475V10.4512V10.4553V10.4594V10.4635V10.468V10.4724V10.4772V10.4821V10.4872L62.1883 10.5204L62.1885 10.5266L62.1892 10.5597L62.1895 10.5672L62.19 10.5872L62.1905 10.6089L62.191 10.6325L62.1914 10.6577C62.1932 10.7343 62.1946 10.812 62.1946 10.8894V11.1008C62.2246 12.9023 62.2449 15.1265 62.2649 17.562ZM60.0374 2.96893C59.1243 2.14368 57.6792 1.52979 56.1341 1.13727L55.6724 1.50964C57.2378 1.88202 58.6927 2.47583 59.5857 3.37152C59.907 3.68353 60.1678 4.04584 60.3184 4.45844C60.3299 4.4928 60.3379 4.52386 60.3465 4.55725L60.3482 4.56372L60.3684 4.63959C60.4688 4.87109 60.6795 5.26355 61.0708 5.42462V5.05225C61.0708 4.23706 60.6795 3.55267 60.0374 2.96893ZM58.24 30.7005L58.2415 30.6708L58.242 30.6606L58.2425 30.6497L58.243 30.6391L58.2434 30.6288L58.2439 30.618L58.2466 30.5612L58.2491 30.5074C58.2535 30.4089 58.2576 30.3108 58.261 30.2126C59.0337 30.1824 59.7261 30.0214 60.3985 29.7598L60.1477 41.3537C60.1499 41.2117 60.0484 41.0629 59.8907 40.8314C59.3103 39.98 57.9685 38.0114 58.221 31.1587C58.2259 31.004 58.2329 30.8516 58.24 30.7005ZM58.6424 29.2272C59.1997 29.1445 59.9649 29.031 60.4287 28.7734L60.6897 16.5153C60.6897 16.5153 58.8533 20.9133 58.3216 29.2766C58.4136 29.2612 58.5186 29.2456 58.6329 29.2286L58.6424 29.2272ZM51.3577 14.2106C53.8763 14.2106 58.7029 15.2975 60.0474 16.5656C59.1443 17.8337 58.482 20.239 58.0506 23.1476C56.4651 21.96 52.5518 21.8593 51.3374 21.8593C50.1233 21.8593 46.2701 21.9499 44.6646 23.1174C44.2232 20.2289 43.5608 17.8337 42.6678 16.5656C44.0125 15.3176 48.8389 14.2106 51.3577 14.2106ZM42.7954 40.8372C43.3782 39.989 44.7266 38.027 44.4737 31.1587C44.4637 30.8366 44.4436 30.5146 44.4236 30.2126C43.6609 30.1624 42.9585 30.0013 42.2862 29.7598L42.5371 41.3537C42.5371 41.2129 42.6385 41.0654 42.7954 40.8372ZM42.0152 16.5153C42.0152 16.5153 43.8413 20.8932 44.3833 29.2465L44.1475 29.2131C43.543 29.129 42.7618 29.0203 42.2762 28.7634L42.0152 16.5153ZM42.6573 2.97894C42.0052 3.56268 41.6238 4.24707 41.6238 5.06226V5.42456C42.0252 5.26355 42.2359 4.87103 42.3262 4.63953C42.3362 4.57916 42.3562 4.50873 42.3765 4.45837C42.5269 4.05585 42.7779 3.69354 43.1089 3.37146C44.012 2.47577 45.4671 1.88196 47.0325 1.51965L46.5608 1.14728C45.0154 1.54987 43.5806 2.15369 42.6573 2.97894ZM41.7044 49.5157C41.5437 49.2641 41.4534 48.9823 41.4534 48.6703C41.4534 48.2275 41.4434 47.7847 41.4234 47.3721L41.9954 47.0601C42.1158 47.6639 42.2764 48.2375 42.5371 48.7307C42.8482 49.3245 43.2598 49.7975 43.8819 50.0793C44.0323 50.1498 44.243 50.2101 44.4839 50.2705L45.0157 51.0153C43.4302 50.7536 42.2061 50.3007 41.7044 49.5157ZM43.8921 44.1515C44.1329 44.9767 46.18 46.124 51.3577 46.124C56.5154 46.124 58.5725 44.9667 58.8235 44.1515C58.2415 42.7425 57.8401 40.4378 57.6192 37.7305C56.9771 38.3646 54.7193 38.586 51.3377 38.586C48.0264 38.586 45.7886 38.3746 45.0962 37.7708C44.8755 40.468 44.4742 42.7526 43.8921 44.1515ZM61.2412 48.6703C61.2412 48.9923 61.1509 49.2741 60.9903 49.5157C60.4886 50.3007 59.2644 50.7535 57.669 51.0253L58.2007 50.2805C58.4417 50.2302 58.6524 50.1598 58.8028 50.0893C59.4151 49.8075 59.8465 49.3245 60.1475 48.7407C60.3985 48.2476 60.5689 47.6739 60.6892 47.0701L61.2613 47.3821C61.2513 47.7846 61.2412 48.2275 61.2412 48.6703ZM21.3445 81.6003H20.5721V81.5601H5.20927C4.42655 76.4676 3.31278 73.8207 3.31278 73.8207L3.47318 81.5601H1.58671C1.59159 80.8783 1.59428 80.1989 1.59672 79.5269C1.59916 78.8399 1.6016 78.1606 1.60673 77.4941C1.19535 77.7558 0.783974 77.947 0.482949 77.947C-0.179405 77.6954 -0.119102 76.6185 0.412636 76.1455C0.683632 75.8939 1.11503 75.5518 1.60673 75.4209C1.61601 74.5644 1.62431 73.7305 1.63212 72.9271L1.63505 72.6366L1.63529 72.6054L1.63725 72.3998L1.63822 72.3092C1.65385 70.7289 1.66825 69.2794 1.68705 68.0237V67.7922C1.69706 67.6312 1.69706 67.4601 1.69706 67.2991C1.69706 67.2187 1.69926 67.136 1.7017 67.0543L1.70219 67.0347V67.0307V67.0267V67.0226V67.0187C1.70463 66.9388 1.70707 66.8602 1.70707 66.7858C1.71708 66.6349 1.71708 66.504 1.71708 66.3732V66.2625V66.2424C1.71708 66.124 1.71976 66.0083 1.72245 65.8952L1.72269 65.8881L1.72343 65.8537V65.8482V65.8429C1.72538 65.7529 1.72733 65.6647 1.72733 65.5781V65.4473C1.72733 65.3679 1.72904 65.2912 1.73051 65.2164L1.731 65.1941L1.73148 65.1733L1.73197 65.1538L1.73246 65.1355L1.7327 65.1288L1.73344 65.0988V65.0942V65.0901C1.73539 65.0104 1.73734 64.9319 1.73734 64.8535V64.6925C1.74174 64.5995 1.74418 64.5085 1.74638 64.4221L1.74686 64.405L1.74711 64.3985C1.74955 64.2972 1.75199 64.2026 1.75736 64.1188C2.0081 58.0803 7.09574 56.148 12.6145 56.148H13.9292C19.458 56.148 24.5354 58.0803 24.7864 64.1188C24.7915 64.2291 24.7942 64.3448 24.7967 64.4661L24.7969 64.48L24.7972 64.4942L24.7974 64.5086L24.7979 64.5237C24.8001 64.6171 24.8025 64.7136 24.8064 64.8132C24.8164 64.9139 24.8164 65.0246 24.8164 65.1252C24.8164 65.1995 24.8184 65.272 24.8204 65.3458V65.3496V65.3535L24.8211 65.3809L24.8213 65.3873L24.8218 65.4032L24.8223 65.42L24.8228 65.438L24.8233 65.4575C24.8247 65.5283 24.8265 65.6013 24.8265 65.6788C24.8265 65.7255 24.8279 65.776 24.8294 65.8281L24.8301 65.8533L24.8304 65.8584L24.8311 65.8829L24.8313 65.8873L24.8318 65.9039C24.8343 65.9741 24.8365 66.045 24.8365 66.1115V66.2726V66.2827C24.8467 66.4034 24.8467 66.5342 24.8467 66.6751C24.8467 66.73 24.8482 66.7889 24.8496 66.8494L24.8504 66.8776L24.8506 66.8825L24.8514 66.9097L24.8516 66.9139L24.8521 66.9332C24.8545 67.0125 24.8567 67.0926 24.8567 67.1683C24.8567 67.2733 24.8592 67.376 24.8616 67.4799V67.4831V67.4863V67.4894V67.493C24.8643 67.6036 24.8667 67.7155 24.8667 67.8325V68.054C24.9068 69.9863 24.9268 72.3513 24.9471 74.968C25.3384 75.129 25.6795 75.4008 25.9202 75.6222C26.4422 76.1154 26.5122 77.1821 25.8501 77.4236C25.5992 77.4236 25.2781 77.2928 24.9471 77.1016C24.9522 77.8424 24.9546 78.5934 24.9571 79.3508C24.9595 80.0958 24.9622 80.8468 24.9671 81.6003H23.0806L23.241 73.861C23.241 73.861 22.1372 76.4977 21.3445 81.6003ZM2.87089 61.6129C2.87089 60.7372 3.29227 60.0026 3.97465 59.3887C4.96806 58.4929 6.49345 57.8589 8.14896 57.4261L8.65067 57.8187C6.98515 58.2112 5.41972 58.8452 4.46635 59.7912C4.11527 60.1334 3.85429 60.5159 3.67362 60.9587C3.6536 61.0291 3.63358 61.0895 3.60331 61.1499C3.50297 61.4015 3.28226 61.8242 2.86088 61.9852C2.87089 61.8745 2.87089 61.7437 2.87089 61.6129ZM22.8396 60.9688C22.8697 61.0291 22.8899 61.0895 22.91 61.16C23.0103 61.4116 23.241 61.8343 23.6424 62.0154V61.6229C23.6424 60.7574 23.221 60.0126 22.5386 59.3987C21.5652 58.503 20.0201 57.869 18.3643 57.4362L17.8626 57.8287C19.5284 58.2112 21.0938 58.8553 22.0469 59.8013C22.3982 60.1536 22.6792 60.536 22.8396 60.9688ZM20.6116 81.0968C20.5967 81.0868 20.584 81.0742 20.5704 81.0604L20.5638 81.0537C20.5799 81.0673 20.5967 81.082 20.6116 81.0968ZM20.5638 81.0537L20.5579 81.0488C20.5435 81.0367 20.5306 81.0256 20.5215 81.0165C20.5384 81.0292 20.5518 81.0418 20.5638 81.0537ZM5.8914 81.097C5.91459 81.0804 5.93705 81.0627 5.95902 81.0446C5.93534 81.0612 5.91288 81.0786 5.8914 81.097ZM5.97489 81.0314C5.96952 81.0358 5.96439 81.0402 5.95902 81.0446C6.01273 81.0069 6.07279 80.9741 6.14237 80.9461C7.84818 79.6881 11.9925 79.5875 13.2869 79.5875C14.5813 79.5875 18.7557 79.6881 20.4515 80.9562C20.9131 77.8564 21.6255 75.29 22.5789 73.9314C21.1238 72.5727 15.9661 71.4053 13.2769 71.4053C10.5777 71.4053 5.40971 72.5828 3.97489 73.9314C4.92826 75.28 5.64066 77.8463 6.10209 80.936C6.05497 80.9657 6.01444 80.9988 5.97489 81.0314Z" transform="translate(18.019 9.06042)" fill="#DA6F25"/>
</svg>
