<svg width="100" height="100" viewBox="0 0 100 100" fill="none" xmlns="http://www.w3.org/2000/svg">
<path fill-rule="evenodd" clip-rule="evenodd" d="M35.2759 27.757H23.3047V22.3928C28.1614 22.3827 33.3794 21.5172 33.3794 19.0414C33.3794 18.5785 33.56 15.066 34.1821 14.4824V14.3918V13.5967C34.1821 11.5436 34.1821 6.1593 34.1621 0.0100708H32.2153L32.0649 10.9196C32.0649 10.7728 31.9958 10.6183 31.8889 10.3795C31.4905 9.48816 30.5661 7.42139 30.7402 0.191223V0H14.7856C14.7856 0.0603638 14.7856 0.120789 14.7956 0.191223C15.0012 7.42096 13.8967 9.48792 13.4204 10.3793C13.2927 10.6183 13.2102 10.7728 13.2102 10.9196L13.0295 0.0100708H11.0627C11.0427 6.1593 11.0427 11.5436 11.0427 13.5967V14.4924C11.6648 15.0761 11.8454 18.5785 11.8454 19.0515C11.8454 21.487 16.8828 22.3626 21.6792 22.3928V27.757H9.70799C8.54418 27.757 7.59081 28.7131 7.59081 29.8806V55.826H37.4031V29.8906C37.3931 28.7131 36.4399 27.757 35.2759 27.757ZM3.25023 81.4316L3.25316 81.4326C3.27391 81.4399 3.28832 81.4449 3.29613 81.4493L11.3137 81.4594L11.1782 81.389C9.54589 80.5401 5.41576 78.3926 5.15233 76.055C4.94213 73.5969 6.32347 73.1617 8.12718 72.5934C8.30272 72.5381 8.48216 72.4816 8.66454 72.4218C9.76756 72.0601 10.7065 71.7933 11.5276 71.5601C13.813 70.9108 15.1821 70.5218 16.6218 69.0704C17.6453 68.0237 18.3579 66.5544 18.3476 65.397C18.3276 63.8672 18.0869 62.8206 15.6584 60.5461H9.66796C10.0015 60.8179 10.3403 61.0618 10.6662 61.2963L10.6726 61.3009L10.677 61.304C12.073 62.3077 13.237 63.1449 12.7988 65.2863C12.2668 67.0073 9.84862 67.591 7.66112 68.064C2.42308 69.2113 0.927965 71.3449 0.245592 73.8811C-0.256117 75.7631 -0.0554331 78.098 1.46971 79.9599C2.45726 81.1555 3.07396 81.3702 3.25023 81.4316ZM21.844 81.4316L21.8469 81.4326C21.8677 81.4399 21.8821 81.4449 21.8899 81.4493L29.9075 81.4594L29.772 81.389C28.1396 80.5401 24.0095 78.3926 23.7461 76.055C23.5359 73.5969 24.9172 73.1617 26.7209 72.5934C26.8965 72.5381 27.0759 72.4816 27.2583 72.4218C28.3613 72.0601 29.3003 71.7933 30.1213 71.5601C32.4067 70.9108 33.7759 70.5218 35.2156 69.0704C36.239 68.0237 36.9516 66.5544 36.9414 65.397C36.9214 63.8672 36.6807 62.8206 34.2522 60.5461H28.2617C28.5952 60.8179 28.9341 61.0618 29.26 61.2963L29.2663 61.3009L29.2707 61.304C30.6667 62.3077 31.8308 63.1449 31.3926 65.2863C30.8606 67.0073 28.4424 67.591 26.2549 68.064C21.0168 69.2113 19.5217 71.3449 18.8393 73.8811C18.3376 75.7631 18.5383 78.098 20.0635 79.9599C21.051 81.1555 21.6677 81.3702 21.844 81.4316ZM32.4358 16.9581C32.3054 17.5922 32.1348 18.186 31.8638 18.7093C31.5427 19.3333 31.1013 19.8365 30.459 20.1284C30.2883 20.1988 30.0776 20.2692 29.8169 20.3297V20.3397L29.2649 21.1247C30.9307 20.8429 32.2251 20.3699 32.7468 19.5446C32.9175 19.283 33.0078 18.9911 33.0078 18.6489C33.0078 18.1759 33.0078 17.713 33.0378 17.2802L32.4358 16.9581ZM12.4475 19.5345C12.2768 19.2729 12.1865 18.9709 12.1865 18.6389C12.1865 18.1759 12.1765 17.713 12.1565 17.2601L12.7585 16.938C12.8889 17.5821 13.0596 18.186 13.3306 18.6891C13.6516 19.3131 14.0932 19.8163 14.7453 20.1082C14.906 20.1887 15.1267 20.2491 15.3877 20.3095V20.3196L15.9394 21.1046C14.2637 20.8228 12.9692 20.3497 12.4475 19.5345ZM16.0098 13.9086C15.7788 15.2572 15.3574 16.4045 14.7453 17.109C14.9963 17.5217 17.1435 18.0953 22.5823 18.0953C28.021 18.0953 30.1785 17.5217 30.4292 17.109C29.8271 16.4045 29.3957 15.2572 29.1648 13.8986C28.4927 14.2106 26.1145 14.3212 22.5723 14.3212C19.0803 14.3212 16.7222 14.2106 16.0098 13.9086Z" transform="translate(31.0657 9.03021)" fill="#DA6F25"/>
</svg>
