<svg width="100" height="100" viewBox="0 0 100 100" fill="none" xmlns="http://www.w3.org/2000/svg">
<path d="M3.2612 16.304C3.2612 11.2115 5.23799 6.42094 8.84036 2.8079C9.48256 2.1638 9.47253 1.12719 8.84036 0.48308C8.52929 0.171091 8.11788 0 7.6864 0C7.25491 0 6.8435 0.171091 6.53243 0.48308C2.31796 4.69997 0 10.3258 0 16.304C0 22.2821 2.31796 27.8979 6.53243 32.1248C6.8435 32.4368 7.25491 32.6079 7.6864 32.6079C8.11788 32.6079 8.52929 32.4368 8.84036 32.1248C9.48256 31.4807 9.48256 30.4441 8.84036 29.8C5.23799 26.187 3.2612 21.3964 3.2612 16.304V16.304Z" transform="translate(35.9451 47.6088)" fill="#DA6F25"/>
<path fill-rule="evenodd" clip-rule="evenodd" d="M0 17.6324C0 7.91046 7.89722 0 17.5803 0C27.2737 0 35.1606 7.91046 35.1606 17.6324C35.1606 27.3544 27.2737 35.2649 17.5803 35.2649C7.88696 35.2649 0 27.3544 0 17.6324ZM31.8796 17.6324C31.8696 9.74213 25.4475 3.30109 17.5806 3.29102C9.70361 3.30109 3.2915 9.74213 3.28149 17.6425C3.2915 25.5328 9.71362 31.9639 17.5806 31.9839C25.4475 31.9639 31.8696 25.5228 31.8796 17.6324Z" transform="translate(40.6614 46.2803)" fill="#DA6F25"/>
<path fill-rule="evenodd" clip-rule="evenodd" d="M11.6499 23.7414C10.8774 25.4523 10.3958 27.3242 10.0847 29.2968C9.58301 29.6591 9.86377 63.1829 9.87402 63.1728H0V39.2704C0.00488281 39.0629 0.012207 38.8506 0.0195312 38.6371C0.0273438 38.4155 0.0349121 38.1925 0.0400391 37.9721L0.0427246 37.8853C0.212646 32.18 0.404785 25.7243 3.07056 19.8365C4.5957 16.465 6.81348 13.5665 9.66309 11.2417C12.0413 9.30939 14.9211 7.70917 18.2527 6.47125L16.4365 0L38.3115 5.58563L22.5474 21.799L20.8115 15.6096C16.2659 17.4312 13.3157 20.0579 11.6499 23.7414ZM52.772 29.5486C53.2034 29.5486 53.6147 29.7197 53.9258 30.0317C58.1404 34.2485 60.4683 39.8745 60.4482 45.8626C60.4482 51.8408 58.1304 57.4565 53.9158 61.6835C53.6047 61.9955 53.2034 62.1666 52.7617 62.1666C52.3303 62.1666 51.9189 61.9955 51.6079 61.6835C50.9656 61.0394 50.9656 60.0027 51.6079 59.3586C55.2102 55.7456 57.187 50.9551 57.187 45.8626C57.187 40.7802 55.2202 35.9897 51.6379 32.3867C51.6313 32.3733 51.6245 32.3688 51.6179 32.3644C51.6145 32.3621 51.6113 32.3599 51.6079 32.3565C50.9656 31.7124 50.9656 30.6758 51.6079 30.0317C51.929 29.7197 52.3403 29.5486 52.772 29.5486Z" transform="translate(20.0801 18.0602)" fill="#DA6F25"/>
</svg>
