<svg width="100" height="100" viewBox="0 0 100 100" fill="none" xmlns="http://www.w3.org/2000/svg">
<path fill-rule="evenodd" clip-rule="evenodd" d="M5.53906 0L0 5.43463L8.02759 13.6068L3.51196 18.045L17.6306 18.3973L17.791 4.01562L13.5566 8.17212L5.53906 0ZM41.7532 9.79248C50.3328 9.79248 58.4104 13.1539 64.4812 19.2427C70.562 25.3315 73.9036 33.4232 73.9136 42.0381C73.9136 51.277 69.95 60.0831 63.0464 66.2021L60.5979 63.4244L55.5505 58.3622L59.2231 54.6787L63.6685 59.1371C66.8997 54.9605 68.9065 49.9485 69.3982 44.6548H62.354V39.4415H69.4082C68.8965 33.9163 66.7791 28.7333 63.2771 24.4459L59.0225 28.7131L55.3499 25.0297L59.6345 20.7322C55.2998 17.0688 50.0215 14.8447 44.3823 14.3314V20.7825H39.1843V14.3314C33.4749 14.8648 28.1365 17.1293 23.7715 20.8731L39.8967 37.0463C40.4788 36.8248 41.1111 36.7041 41.7732 36.7041C44.7134 36.7041 47.1016 39.0893 47.1016 42.0482C47.1016 44.9969 44.7134 47.3922 41.7732 47.3922C38.8333 47.3922 36.4451 45.007 36.4451 42.0482C36.4451 41.706 36.4851 41.3738 36.5352 41.0518L20.1389 24.6069C16.7073 28.8641 14.6401 33.9767 14.1384 39.4315H20.1389V44.6447H14.1384C14.4194 47.7244 15.2019 50.7134 16.4863 53.5314C17.3694 55.4838 18.4431 57.2953 19.7275 58.966L24.0022 54.6787L27.6748 58.3622L21.9553 64.0988L21.9351 64.0786L20.2192 65.9707C16.918 62.9816 14.3088 59.4089 12.4727 55.353C10.5662 51.1663 9.60278 46.6777 9.60278 42.0381C9.60278 33.4332 12.9543 25.3315 19.0251 19.2427C25.0859 13.1439 33.1738 9.79248 41.7532 9.79248Z" transform="translate(13.0901 17)" fill="#DA6F25"/>
</svg>
