<svg width="100" height="100" viewBox="0 0 100 100" fill="none" xmlns="http://www.w3.org/2000/svg">
<path fill-rule="evenodd" clip-rule="evenodd" d="M57.7986 29.5082H58.1899C60.7688 29.5082 62.876 27.4047 62.876 24.8082V4.69995C62.876 2.11346 60.7788 0 58.1899 0H57.7986C55.2197 0 53.1125 2.10339 53.1125 4.69995V24.8082C53.1125 27.4047 55.2097 29.5082 57.7986 29.5082ZM26.752 24.2546C41.5024 24.2546 53.4937 36.2914 53.4937 51.0757C53.4937 52.8469 53.313 54.578 52.9919 56.2587H45.5264V53.4407H50.9048C50.9851 52.6658 51.0251 51.8707 51.0251 51.0857C51.0251 47.825 50.3831 44.7151 49.219 41.8669L44.593 43.9301L43.5696 41.6254L48.1553 39.5824C46.5598 36.6034 44.3723 34.0068 41.7434 31.9336L30.1836 47.8551C30.8259 48.6301 31.197 49.6163 31.197 50.6932C31.197 53.1489 29.2102 55.1517 26.752 55.1517C24.3035 55.1517 22.3066 53.1589 22.3066 50.6932C22.3066 48.2275 24.2935 46.2348 26.752 46.2348C27.2336 46.2348 27.6951 46.3153 28.1267 46.4562L39.7063 30.5045C36.2947 28.3407 32.321 27.0021 28.0464 26.7808V31.8028H25.4373V26.7808C21.2429 27.0021 17.3296 28.3004 13.948 30.3938L16.9282 34.4799L14.8911 35.9694L11.8809 31.8329C9.19165 33.9263 6.94385 36.5833 5.31836 39.6125L9.81372 41.6154L8.79028 43.92L4.24463 41.8871C3.09058 44.7252 2.46851 47.8149 2.46851 51.0555C2.46851 51.8506 2.50854 52.6356 2.58887 53.4105H8.41895V56.2285H0.501709C0.170654 54.5579 0 52.8268 0 51.0455C0.0100098 36.2813 12.0012 24.2546 26.752 24.2546ZM53.4939 36.241C53.4939 33.7451 55.5208 31.7323 57.9893 31.7323C60.4678 31.7323 62.4749 33.7451 62.4849 36.241C62.4849 38.7369 60.4778 40.7498 57.9893 40.7498C55.5007 40.7498 53.4939 38.7169 53.4939 36.241Z" transform="translate(25.8408 28.6205)" fill="#DA6F25"/>
<path d="M21.8592 41.3491C20.043 38.6217 17.8956 36.4679 15.9489 34.5256C12.0154 30.5804 9.17565 27.7322 9.07531 21.6535C8.985 16.1584 11.4434 11.8007 15.6479 9.97904C18.026 8.95249 20.8156 8.81159 23.7256 9.58653C26.4851 10.3112 29.3148 11.851 32.0341 14.0752L28.3415 17.8693L47.6177 22.8109L42.2492 3.59835L38.396 7.55357C34.4725 4.19214 30.3283 1.9277 26.0335 0.790446C21.1468 -0.497768 16.3102 -0.205907 12.0555 1.62577C8.34279 3.22598 5.26221 5.9433 3.13491 9.47583C1.0076 13.0084 -0.0761185 17.2756 0.00415714 21.8044C0.0743983 26.1924 1.14809 30.0269 3.28543 33.5393C5.09163 36.4981 7.34938 38.7626 9.52686 40.9566C12.1559 43.5934 14.4437 45.888 15.7783 49.1085C17.3939 46.2 19.4409 43.5833 21.8592 41.3491V41.3491Z" transform="translate(11.0859 16.0146)" fill="#DA6F25"/>
</svg>
