<svg width="100" height="100" viewBox="0 0 100 100" fill="none" xmlns="http://www.w3.org/2000/svg">
<path fill-rule="evenodd" clip-rule="evenodd" d="M15.4326 25.0296L17.6702 25.0698C17.7395 21.7748 18.8628 20.5351 20.0391 19.2369L20.0886 19.1823L20.0996 19.1705C21.3914 17.7946 22.8574 16.2331 22.6272 12.55C22.4165 9.23889 20.751 7.59845 19.2659 6.16931C17.6702 4.61945 16.416 3.3916 16.6367 0.15094L14.4092 0C14.1284 4.28418 16.0317 6.13641 17.7168 7.77594L17.7205 7.7796L17.7588 7.8175C19.0876 9.13007 20.2505 10.2787 20.3997 12.701C20.5603 15.4284 19.6873 16.3643 18.4629 17.6626C17.1484 19.0615 15.5129 20.8228 15.4326 25.0296ZM29.0093 25.0698L26.7717 25.0397C26.842 20.8355 28.4854 19.0739 29.7996 17.6653L29.802 17.6626C31.0264 16.3643 31.8994 15.4284 31.7388 12.701C31.5896 10.2787 30.4268 9.13007 29.0979 7.8175L29.0596 7.7796L29.0559 7.77594C27.3708 6.13641 25.4675 4.28418 25.7483 0L27.9858 0.15094C27.7651 3.3916 29.0195 4.61945 30.615 6.16931C32.1001 7.59845 33.7656 9.23889 33.9766 12.55C34.2065 16.2331 32.7405 17.7946 31.4487 19.1705L31.4377 19.1823L31.3989 19.2247C30.209 20.5273 29.0789 21.7644 29.0093 25.0698ZM40.3481 25.0699L38.1104 25.0397C38.1807 20.8355 39.8242 19.0739 41.1382 17.6653L41.1406 17.6627C42.365 16.3644 43.238 15.4285 43.0774 12.7111C42.928 10.2801 41.7571 9.13196 40.4124 7.81348L40.3882 7.78973L40.3723 7.77423C38.7004 6.13757 36.8069 4.284 37.0869 0.0101318L39.3245 0.161072C39.1038 3.40173 40.3582 4.62958 41.9536 6.17944C43.4287 7.60858 45.0942 9.24902 45.3152 12.5602C45.5452 16.2432 44.0791 17.8047 42.7874 19.1807L42.7764 19.1924L42.77 19.1991C41.5483 20.505 40.3982 21.7343 40.3481 25.0699ZM42.3555 63.8472H57.5376L53.825 68.6176H3.71265L0 63.8472H14.6101C12.4226 63.0823 9.56274 59.1472 9.56274 57.5068V27.9181H47.7239L47.7942 33.1011C49.0686 32.2256 50.5234 31.7526 52.0388 31.7526C56.7449 31.7526 60.5781 36.3418 60.5781 41.9777C60.5781 52.4847 52.7412 52.3942 48.0349 52.2633C47.9819 52.2633 47.929 52.2605 47.8789 52.2579C47.8342 52.2555 47.7917 52.2532 47.7539 52.2532V57.4967C47.7239 59.2579 44.533 63.1628 42.3555 63.8472ZM46.8706 42.1085C46.8706 38.5558 49.1785 35.6674 52.0183 35.6674C54.8682 35.6674 57.166 38.5558 57.166 42.1085C57.166 45.6611 54.8582 48.5496 52.0183 48.5496C49.1785 48.5496 46.8706 45.6611 46.8706 42.1085Z" transform="translate(20.0208 16.01)" fill="#DA6F25"/>
</svg>
