<svg width="100" height="100" viewBox="0 0 100 100" fill="none" xmlns="http://www.w3.org/2000/svg">
<path fill-rule="evenodd" clip-rule="evenodd" d="M48.5823 10.5674C48.8936 10.5674 49.887 11.2618 49.9671 11.6442C50.0374 12.0367 49.9671 13.8885 49.947 14.2609C49.947 14.6534 49.6863 15.4787 49.2647 15.6296C48.7429 15.8008 45.6021 15.68 45.6021 15.68C45.6021 15.68 45.6624 15.9215 45.7427 16.465C45.7476 16.4941 45.75 16.5256 45.7525 16.556C45.7552 16.5886 45.7576 16.6201 45.7627 16.6461C45.7671 16.6995 45.7735 16.7549 45.7801 16.8123C45.7886 16.8846 45.7971 16.9601 45.8028 17.0386C45.833 17.2399 45.8531 17.5016 45.8731 17.7733C45.8831 17.9545 45.8931 18.1558 45.9031 18.3671C45.9534 19.3333 45.9534 20.5611 45.8831 22.1412C45.874 22.4688 45.8567 22.7964 45.8389 23.1389L45.833 23.2482C45.813 23.4395 45.8028 23.6307 45.7928 23.832C45.7793 24.0107 45.7642 24.1915 45.7486 24.3751C45.729 24.6049 45.7093 24.8393 45.6924 25.0799C45.6812 25.1976 45.667 25.3091 45.6531 25.4178C45.6421 25.5043 45.6311 25.589 45.6223 25.6737C45.6175 25.719 45.6096 25.7592 45.6023 25.7995C45.5945 25.8398 45.5872 25.88 45.5821 25.9253L45.5794 25.95C45.5701 26.0339 45.5603 26.1247 45.542 26.2071C45.512 26.3178 45.4917 26.4285 45.4717 26.5392C45.4666 26.5594 45.4617 26.5845 45.4568 26.6097C45.4517 26.6348 45.4466 26.66 45.4417 26.6801C45.4243 26.7557 45.4036 26.8314 45.3833 26.905C45.3684 26.9588 45.354 27.0116 45.3413 27.0626C44.7193 29.3672 43.5752 30.5951 43.5752 30.5951C43.5752 30.5951 43.4749 36.6437 43.5552 37.1066C43.6255 37.5696 42.6521 37.7608 42.6521 37.7608C42.6521 37.7608 37.1231 37.7608 36.6614 37.6802C36.2 37.5997 36.0493 37.2173 36.0493 37.2173V30.5951H13.9334V37.2173C13.9334 37.2173 13.783 37.5997 13.3213 37.6802C12.8596 37.7608 7.33084 37.7608 7.33084 37.7608C7.33084 37.7608 6.34744 37.5696 6.42776 37.1066C6.50784 36.6437 6.4075 30.5951 6.4075 30.5951C6.4075 30.5951 4.61135 28.6729 4.29031 25.0799C3.67825 18.1255 4.38064 15.6901 4.38064 15.6901C4.38064 15.6901 1.22976 15.8309 0.718043 15.6397C0.286647 15.4787 0.0356702 14.6534 0.0356702 14.271C0.0356702 14.1713 0.0305433 13.9775 0.0241956 13.7375C0.00515264 13.0327 -0.0241442 11.9296 0.0356702 11.6442C0.115992 11.2618 1.1094 10.5674 1.42044 10.5674H5.87576C5.87576 10.5674 8.40432 4.01562 9.6387 2.62677C10.291 1.89209 12.5586 0.855469 14.094 0.543457C15.6392 0.231506 25.0015 0 25.0015 0C25.0015 0 34.3736 0.231506 35.909 0.543457C37.4441 0.855469 39.6719 1.93231 40.3643 2.62677C41.739 4.01562 44.1272 10.5674 44.1272 10.5674H48.5823ZM8.43313 11.755C8.43313 11.755 8.00173 13.9289 8.09207 14.1503H41.6975C41.7776 13.9289 41.3062 11.755 41.3062 11.755C41.3062 11.755 39.1988 5.98822 38.075 4.93152C37.4629 4.34778 35.5564 3.4118 34.2417 3.15015C32.9273 2.88849 24.8697 2.68719 24.8697 2.68719C24.8697 2.68719 16.812 2.88849 15.4976 3.15015C14.1729 3.4118 12.3164 4.37799 11.6643 4.93152C10.8113 5.65613 8.43313 11.755 8.43313 11.755Z" transform="translate(27.8044 14.0906)" fill="#DA6F25"/>
<path fill-rule="evenodd" clip-rule="evenodd" d="M31.1213 29.73C31.1472 29.7387 31.1653 29.7447 31.1753 29.7497V29.7698H42.5845L42.3337 29.6387C39.9743 28.4057 34.1816 25.3785 33.8142 22.0707C33.5119 18.5707 35.4922 17.9468 38.0605 17.1375C38.3061 17.0602 38.5569 16.9811 38.8115 16.8978C40.3911 16.3785 41.7353 15.9967 42.9096 15.663C46.1513 14.7421 48.1001 14.1885 50.1404 12.1273C51.5952 10.6378 52.6089 8.55457 52.5989 6.90399C52.5786 4.73016 52.2375 3.24066 48.7756 0H40.2463C40.7268 0.391296 41.2151 0.741638 41.685 1.07886C43.6684 2.5022 45.3264 3.69183 44.7016 6.74298C43.959 9.19867 40.5073 10.0239 37.3965 10.6982C29.9309 12.3387 27.7937 15.3781 26.8303 18.981C26.1179 21.6581 26.3987 24.9893 28.5762 27.6362C30.0039 29.3582 30.8865 29.6519 31.1213 29.73ZM4.64036 29.7302C4.66624 29.7388 4.6843 29.7448 4.69431 29.7498V29.77H16.1035L15.8528 29.6388C13.4934 28.4058 7.70066 25.3786 7.33323 22.0709C7.03098 18.5708 9.01121 17.9469 11.5796 17.1376C11.8252 17.0603 12.0759 16.9813 12.3305 16.8979C13.9101 16.3787 15.2544 15.9968 16.4287 15.6631C19.6704 14.7422 21.6191 14.1887 23.6594 12.1274C25.1142 10.6379 26.1279 8.55469 26.1179 6.90411C26.0976 4.73029 25.7566 3.24078 22.2947 0.00012207H13.7654C14.2458 0.391418 14.7341 0.74176 15.2041 1.07898C17.1875 2.50232 18.8454 3.69196 18.2207 6.7431C17.478 9.19879 14.0263 10.024 10.9155 10.6984C3.44993 12.3388 1.31272 15.3782 0.349344 18.9811C-0.363059 21.6582 -0.0822971 24.9894 2.09519 27.6364C3.52293 29.3583 4.4055 29.652 4.64036 29.7302Z" transform="translate(22.0718 55.8167)" fill="#DA6F25"/>
</svg>
