<svg width="100" height="100" viewBox="0 0 100 100" fill="none" xmlns="http://www.w3.org/2000/svg">
<path d="M5.6795 28.3105C5.6795 19.454 9.12132 11.131 15.3628 4.87106C16.4766 3.75394 16.4665 1.95245 15.3628 0.835326C14.8209 0.291861 14.1085 0 13.3559 0C12.6033 0 11.8808 0.301925 11.349 0.835326C4.03385 8.16204 0 17.9344 0 28.3206C0 38.7068 4.02382 48.459 11.349 55.8058C11.8908 56.3493 12.6033 56.6412 13.3559 56.6412C14.1185 56.6412 14.8309 56.3392 15.3628 55.8058C16.4766 54.6887 16.4766 52.8872 15.3628 51.7701C9.12132 45.48 5.6795 37.1569 5.6795 28.3105Z" transform="translate(10.9998 21.3853)" fill="#DA6F25"/>
<path fill-rule="evenodd" clip-rule="evenodd" d="M0 30.6253C0 13.7376 13.707 0 30.5349 0C47.3726 0 61.0698 13.7376 61.0698 30.6253C61.0698 47.5029 47.3726 61.2505 30.5349 61.2505C13.697 61.2505 0 47.5129 0 30.6253ZM55.3701 30.6152C55.3499 16.9078 44.2117 5.72656 30.5347 5.70642C16.8577 5.73663 5.71948 16.9078 5.69946 30.6354C5.71948 44.3327 16.8577 55.514 30.5347 55.5442C44.2017 55.504 55.3499 44.3327 55.3701 30.6152Z" transform="translate(19.208 19.0704)" fill="#DA6F25"/>
<path d="M4.86922 0.835326C4.32736 0.291861 3.61491 0 2.86233 0C2.10974 0 1.38726 0.301925 0.835369 0.835326C-0.278456 1.95245 -0.278456 3.75394 0.835369 4.87106C0.845403 4.88112 0.865472 4.89119 0.875507 4.91132C7.09687 11.1712 10.5186 19.4842 10.5186 28.3105C10.5186 37.167 7.0768 45.4901 0.835369 51.75C-0.278456 52.8671 -0.278456 54.6686 0.835369 55.7958C1.37723 56.3392 2.08968 56.6311 2.84226 56.6311C3.60488 56.6311 4.31733 56.3292 4.84915 55.7958C12.1643 48.459 16.1981 38.6967 16.1981 28.3105C16.2282 17.9344 12.1944 8.17211 4.86922 0.835326V0.835326Z" transform="translate(72.2578 21.3752)" fill="#DA6F25"/>
<path fill-rule="evenodd" clip-rule="evenodd" d="M19.8857 14.9755C20.2068 15.0963 20.4778 15.3177 20.6685 15.4888C21.0898 15.8712 21.1401 16.7267 20.5681 16.8877C20.3674 16.8877 20.1167 16.787 19.8557 16.6361C19.8608 17.2825 19.8633 17.9417 19.8657 18.6085C19.8682 19.2604 19.8708 19.9196 19.8757 20.5812H18.3706L18.511 14.0697C18.511 14.0697 17.5879 16.2939 16.9558 20.5812H4.19189C3.61792 16.688 2.79565 14.4961 2.65674 14.126C2.64258 14.0885 2.6355 14.0697 2.63647 14.0697L2.7771 20.5812H1.25171C1.25659 19.9974 1.25903 19.4136 1.26147 18.8353V18.8185V18.8011C1.26416 18.1848 1.26685 17.575 1.27197 16.9783C0.950684 17.1896 0.619629 17.3406 0.378906 17.3406C-0.143066 17.1494 -0.0927734 16.2838 0.328613 15.9114C0.549316 15.7001 0.890625 15.4284 1.28198 15.3278L1.29639 13.5972L1.29663 13.5581L1.29688 13.5178C1.30933 11.9963 1.32056 10.6107 1.34204 9.44019V9.25903C1.35205 9.12823 1.35205 8.99738 1.35205 8.86652C1.35205 8.80493 1.354 8.74341 1.3562 8.68268L1.35669 8.66705L1.35718 8.65259L1.35742 8.64868L1.35815 8.62714C1.36011 8.56805 1.36206 8.51007 1.36206 8.45392C1.37231 8.3432 1.37231 8.23248 1.37231 8.13184V8.02112C1.37231 7.94244 1.37427 7.8656 1.37646 7.78986L1.37695 7.77051L1.37744 7.75195V7.74854V7.74512C1.37988 7.66193 1.38232 7.5799 1.38232 7.4978V7.39716C1.38232 7.23615 1.38232 7.07513 1.39233 6.92413V6.79333C1.39673 6.7229 1.39917 6.65253 1.40161 6.58459L1.40186 6.57562L1.4021 6.56635C1.40454 6.48566 1.40723 6.40894 1.41235 6.34045C1.61304 1.53979 5.65698 0 10.052 0H11.1057C15.5007 0 19.5447 1.52972 19.7454 6.34045C19.7505 6.42957 19.7532 6.52136 19.7556 6.61737L19.7559 6.62811L19.7561 6.63922C19.7585 6.72083 19.761 6.80548 19.7654 6.89398C19.7754 6.96442 19.7754 7.05499 19.7754 7.1355C19.7754 7.19421 19.7773 7.25305 19.7791 7.31329L19.7793 7.31793L19.78 7.34204C19.7827 7.4173 19.7854 7.49512 19.7854 7.57831C19.7854 7.62042 19.7874 7.66779 19.7893 7.71674L19.79 7.73712L19.7903 7.74139L19.7908 7.75403L19.7913 7.76849C19.7935 7.82019 19.7954 7.87231 19.7954 7.92053V8.05133V8.07147C19.8054 8.16205 19.8054 8.27277 19.8054 8.38348C19.8054 8.43488 19.8074 8.48987 19.8093 8.5462L19.8101 8.56787L19.8103 8.57196L19.8108 8.58612L19.8113 8.60181C19.8135 8.6601 19.8154 8.71899 19.8154 8.77594C19.8154 8.86023 19.8179 8.94458 19.8206 9.03015L19.821 9.04871L19.8215 9.06805C19.8237 9.1438 19.8257 9.22064 19.8257 9.29932V9.4704C19.8472 10.5811 19.8584 11.8698 19.8708 13.2837L19.8711 13.3238L19.8713 13.3622L19.8857 14.9755ZM2.32568 4.62952C2.66675 4.49866 2.8374 4.16656 2.91772 3.96527C2.92773 3.92499 2.94775 3.86462 2.96777 3.80426C3.1084 3.46204 3.31909 3.15009 3.6001 2.87836C4.36279 2.12354 5.60693 1.6203 6.9314 1.30835L6.53003 0.996338C5.21558 1.3385 3.99146 1.84174 3.20874 2.55627C2.66675 3.04944 2.33569 3.63318 2.33569 4.32758C2.33569 4.43829 2.33569 4.53894 2.32568 4.62952ZM16.3032 19.7258C14.9485 18.7194 11.6372 18.6389 10.5938 18.6389C9.56006 18.6389 6.2688 18.7194 4.90405 19.7158C4.53271 17.2501 3.97095 15.2171 3.19824 14.1301C4.34229 13.0634 8.4563 12.1173 10.5938 12.1173C12.741 12.1173 16.835 13.0432 17.989 14.1301C17.2366 15.207 16.6746 17.2601 16.3032 19.7258ZM18.2803 3.99548C18.3606 4.18671 18.5312 4.5188 18.8723 4.65973V4.34772C18.8723 3.65332 18.5413 3.06958 17.9995 2.57642C17.2268 1.87195 16.0024 1.35864 14.678 1.01648L14.2766 1.32849C15.6011 1.64044 16.8455 2.14368 17.5979 2.91858C17.8789 3.19037 18.0999 3.50232 18.2302 3.84448C18.2402 3.86963 18.2478 3.89484 18.2554 3.91998C18.2627 3.94513 18.2703 3.97034 18.2803 3.99548Z" transform="translate(38.728 50.209)" fill="#DA6F25"/>
<path fill-rule="evenodd" clip-rule="evenodd" d="M0 21.3361L11.9209 0L24.7751 21.3361H0ZM22.8484 20.2692L11.9609 2.19397L1.8562 20.2692H22.8484Z" transform="translate(37.5513 26.3569)" fill="#DA6F25"/>
<path fill-rule="evenodd" clip-rule="evenodd" d="M2.43921 0H0.352051V8.50421H2.43921V0ZM1.40479 9.79236C1.77612 9.79236 2.10718 9.92322 2.37817 10.1748C2.65918 10.4365 2.79956 10.7485 2.79956 11.1309C2.79956 11.5033 2.65918 11.8253 2.38818 12.087C2.10718 12.3486 1.77612 12.4795 1.39478 12.4795C1.2041 12.4795 1.02344 12.4392 0.863037 12.3688C0.692383 12.3084 0.552002 12.2178 0.421387 12.097C0.291016 11.9863 0.190674 11.8354 0.110352 11.6744C0.0300293 11.5033 0 11.3322 0 11.1409C0 10.7686 0.140381 10.4465 0.411377 10.1849C0.692383 9.92322 1.02344 9.79236 1.40479 9.79236Z" transform="translate(48.1777 33.2811)" fill="#DA6F25"/>
</svg>
