<svg width="105" height="100" viewBox="0 0 105 100" fill="none" xmlns="http://www.w3.org/2000/svg">
<path d="M0.00163828 18.929C0.00163828 19.1404 -0.0184306 19.4121 0.081914 19.553C0.182259 19.704 1.09539 20.3984 2.27946 20.7003C3.46353 21.0123 4.72787 20.962 5.12925 21.1734C5.54066 21.1532 5.97214 21.1734 5.97214 21.1734V21.1633L6.68459 20.5997L7.01573 20.5896C7.678 22.6729 9.61465 24.1825 11.9025 24.1825C13.3675 24.1825 14.672 23.5787 15.6052 22.5924C16.2474 22.0389 16.7391 21.3344 17.0201 20.5292L17.0903 20.5393L18.174 20.5091C18.174 20.7708 18.164 20.9922 18.174 21.0526L47.7155 20.6299V20.6198H47.7255V20.4991C47.7255 20.3883 47.7356 20.2173 47.7456 20.0059L47.7556 20.016L48.448 20.3582L48.729 20.3682C48.9999 21.2539 49.5217 22.0187 50.204 22.6125C51.1372 23.5888 52.4618 24.2027 53.9068 24.2027C56.5257 24.2027 58.6731 22.2301 58.9942 19.6939H59.0243L59.1648 19.3517L59.9676 19.8449V19.9153C59.9676 19.9153 59.9876 19.9153 60.0177 19.9254H60.0378C60.1582 19.9455 60.389 19.9657 60.5696 19.9657C60.8205 19.9657 60.9509 19.0599 61.5731 18.8485C61.8842 18.3353 62.0748 17.3389 62.1451 16.413V16.3929C62.1952 15.6884 62.1751 15.0141 62.0648 14.6316C61.8039 14.0781 61.1416 13.8265 61.0914 13.2327C61.0413 12.6389 60.9811 11.4212 60.9008 11.0085C60.9008 10.9985 60.8907 10.9884 60.8907 10.9783C60.9008 10.9683 60.9108 10.9482 60.9108 10.9482C60.9108 10.9482 60.7804 9.91154 60.6499 9.68007C60.5195 9.44859 60.1883 8.63339 59.6565 8.16038C59.6063 8.12012 59.5461 8.07987 59.496 8.05974C59.2852 7.73768 58.643 6.85204 57.8102 6.38908C57.76 6.35889 57.7801 6.39915 57.8102 6.4696L57.6697 6.39915L57.6195 6.34883C57.4188 6.01671 55.9538 4.67817 54.6593 3.64156C54.3483 3.38996 54.0573 3.15848 53.7663 2.9572C53.3549 2.65528 53.0338 2.44393 52.8431 2.38354V2.39361L52.8331 2.38354C52.8331 2.38354 52.6424 2.15207 52.4518 2.13194C52.6324 1.94072 53.0639 1.78976 53.0639 1.47777C53.0639 1.31674 52.5019 1.20604 51.9199 1.11546C51.7293 1.09533 51.5587 1.0752 51.3881 1.04501C51.067 1.01482 50.7961 0.994687 50.6656 0.994687C50.4549 0.984623 48.0868 0.682698 45.3373 0.431094C44.8456 0.390837 44.364 0.330452 43.9024 0.290195C41.163 0.038591 38.2731 -0.202949 33.4967 0.270067C29.3625 0.682698 28.1784 1.63879 28.1784 1.63879C28.1383 1.65892 28.0881 1.66899 28.048 1.70924C28.048 1.71931 28.048 1.71931 28.058 1.72937C28.048 1.72937 28.048 1.73944 28.058 1.73944C22.2179 4.63792 18.5754 6.76146 18.0336 7.21435C18.0135 7.22441 17.9834 7.24454 17.9533 7.2546C17.883 7.26467 17.6422 7.29486 17.572 7.33512C17.301 7.37537 16.9097 7.43576 16.428 7.51627C16.4782 7.49614 16.5284 7.49614 16.5284 7.49614C15.0433 7.72762 13.7187 7.95909 12.5046 8.19057C8.5811 8.93532 3.7746 10.1229 2.45005 11.6426L2.41994 11.6728H2.42998C2.40991 11.6929 2.38984 11.7231 2.35974 11.7533C0.392982 14.37 0.392982 14.9134 0.242465 15.5877C0.0919484 16.262 0.112017 17.6408 0.122052 17.7012C0.142121 17.7515 0.332775 17.7817 0.332775 17.7817L0.2525 18.607C0.262534 18.5667 0.00163828 18.7278 0.00163828 18.929V18.929Z" transform="translate(37.1228 32.1282)" fill="#DA6F25"/>
<path d="M36.2244 6.77319H12.1317V0L0 12.1776L12.1317 24.3553V17.5821H36.2244" transform="translate(46.5867 58.5046)" fill="#DA6F25"/>
<path d="M26.4207 14.6368C26.1598 14.0833 25.4976 13.8317 25.4474 13.2379C25.3972 12.6441 25.337 11.4264 25.2567 11.0137C25.2567 11.0037 25.2467 10.9936 25.2467 10.9835C25.2567 10.9735 25.2668 10.9534 25.2668 10.9534C25.2668 10.9534 25.1363 9.91674 25.0059 9.68527C24.8754 9.45379 24.5443 8.63859 24.0125 8.16558C23.9623 8.12532 23.9021 8.08506 23.8519 8.06494C23.6412 7.74288 22.999 6.85724 22.1661 6.39428C22.1159 6.36409 22.136 6.40435 22.1661 6.4748L22.0256 6.40435L21.9755 6.35403C21.7748 6.02191 20.3097 4.68337 19.0153 3.64676C18.7042 3.39516 18.4132 3.16368 18.1222 2.9624C17.7108 2.66048 17.3897 2.44913 17.1991 2.38874V2.39881L17.189 2.38874C17.189 2.38874 16.9984 2.15727 16.8077 2.13714C16.9883 1.94592 17.4198 1.79496 17.4198 1.48297C17.4198 1.32194 16.8579 1.21123 16.2759 1.12066C16.0852 1.10053 15.9147 1.0804 15.7441 1.05021C15.423 1.02002 15.152 0.999887 15.0216 0.999887C14.8109 0.989823 12.4427 0.687897 9.69329 0.436293C9.2016 0.396036 8.71995 0.335651 8.25836 0.295395C5.96047 0.0840471 3.5522 -0.1273 0 0.0941113V20.8062L12.0614 20.625V20.615H12.0715V20.4942C12.0715 20.3835 12.0815 20.2124 12.0915 20.001L12.1016 20.0111L12.7939 20.3533L13.0749 20.3634C13.3458 21.249 13.8676 22.0139 14.55 22.6077C15.4832 23.5839 16.8077 24.1978 18.2527 24.1978C20.8717 24.1978 23.019 22.2252 23.3402 19.6891H23.3703L23.5107 19.3469L24.3135 19.84V19.9105C24.3135 19.9105 24.3336 19.9105 24.3637 19.9205H24.3837C24.5041 19.9407 24.7349 19.9608 24.9156 19.9608C25.1664 19.9608 25.2969 19.055 25.919 18.8437C26.2301 18.3304 26.4207 17.334 26.491 16.4081V16.388C26.5411 15.6936 26.511 15.0394 26.4207 14.6368V14.6368Z" transform="translate(1.00024 32.1229)" fill="#DA6F25"/>
<path d="M26.0896 20.8932C18.2426 16.4549 14.5199 16.0423 16.7375 19.8566C14.5199 16.0423 12.0614 18.8905 10.5864 27.0022C12.0715 18.8905 11.2988 15.1969 8.66977 17.7532C11.2988 15.1969 7.84695 13.7376 0 14.0898C7.84695 13.7376 11.0981 11.8657 8.17808 9.39994C11.1081 11.8556 11.4192 8.11172 8.97081 0C11.4192 8.11172 14.1988 10.6479 15.9347 6.35049C14.1988 10.6479 17.8613 9.79244 25.1062 4.19676C17.8613 9.78238 16.3261 13.2143 21.2329 12.8016C16.296 13.2344 18.2426 16.4549 26.0896 20.8932V20.8932Z" transform="translate(21.1199 17.0804)" fill="#DA6F25"/>
</svg>
