<svg width="100" height="100" viewBox="0 0 100 100" fill="none" xmlns="http://www.w3.org/2000/svg">
<path d="M22.7582 51.2671H22.718C22.1661 51.247 21.7045 50.8142 21.6544 50.2607L19.3163 25.1405L18.0821 36.3721C18.0219 36.9357 17.5503 37.3584 16.9883 37.3584H1.10379C0.491688 37.3584 0 36.8653 0 36.2513C0 35.6374 0.491688 35.1443 1.10379 35.1443H16.005L18.3129 14.0699C18.3731 13.5063 18.8447 13.0836 19.4066 13.0836H19.4167C19.9786 13.0836 20.4502 13.5264 20.5104 14.09L23.0492 41.3941L25.9491 23.3491C26.0294 22.8157 26.491 22.4232 27.0228 22.4232H27.0429C27.5747 22.4232 28.0262 22.7955 28.1266 23.3189L30.4445 35.416L36.1742 0.926098C36.2645 0.392697 36.7161 0.0102582 37.2479 0.000194075C37.7797 -0.0098701 38.2413 0.372568 38.3417 0.895905L44.8942 35.1544H60.0061L62.2738 19.5247C62.3541 18.9712 62.8358 18.5585 63.3977 18.5787C63.9596 18.5988 64.4212 19.0215 64.4714 19.5851C65.0835 26.3784 65.9164 35.3053 66.5084 41.5149C67.1406 38.8781 67.7828 36.4828 67.9233 35.9796C68.0537 35.4965 68.4852 35.1644 68.9869 35.1644H88.4337C89.0458 35.1644 89.5375 35.6576 89.5375 36.2715C89.5375 36.8854 89.0458 37.3785 88.4337 37.3785H69.8398C68.7461 41.525 67.3011 47.5031 67.3111 48.9523C67.3212 49.8883 66.6288 50.1701 66.2575 50.1902C65.8863 50.2104 65.234 50.0191 65.0935 49.1939C65.0835 49.1234 65.0634 49.0328 65.0534 48.902C65.0233 48.6806 64.9832 48.3686 64.943 47.9459C64.8627 47.181 64.7423 46.0539 64.6018 44.6046C64.361 42.1691 64.0399 38.7674 63.6385 34.5002C63.468 32.6584 63.2974 30.8167 63.1368 29.0857L62.0732 36.4426C61.9929 36.986 61.5313 37.3886 60.9794 37.3886H43.9911C43.4592 37.3886 43.0077 37.0162 42.9073 36.4929L37.3483 7.40743L31.6286 41.8873C31.5383 42.4207 31.0868 42.8031 30.5549 42.8132H30.5449C30.0131 42.8132 29.5615 42.4408 29.4612 41.9175L27.1532 29.9109L23.8519 50.3412C23.7616 50.8746 23.3 51.2671 22.7582 51.2671V51.2671Z" transform="translate(5 7.08008)" fill="#DA6F25"/>
<path fill-rule="evenodd" clip-rule="evenodd" d="M37.9805 6.53168C33.7759 2.31476 28.1868 0 22.2463 0C16.3059 0 10.7168 2.32483 6.51245 6.53168C2.30786 10.7485 0 16.3543 0 22.3123C0 28.2703 2.31787 33.876 6.51245 38.0929C10.7168 42.3098 16.3059 44.6245 22.2463 44.6245C28.1868 44.6245 33.7759 42.2997 37.9805 38.0929C42.1848 33.876 44.4927 28.2703 44.4927 22.3123C44.4927 16.3543 42.1848 10.7485 37.9805 6.53168ZM8.11841 8.14191C11.8914 4.35779 16.9087 2.27448 22.2468 2.27448C27.5852 2.27448 32.6025 4.35779 36.3755 8.14191C40.1484 11.926 42.2256 16.9581 42.2256 22.3123C42.2256 22.9564 42.1953 23.6005 42.1353 24.2345L27.9265 21.0743C27.3545 18.4476 25.0264 16.475 22.2368 16.475C19.4373 16.475 17.0991 18.4576 16.5474 21.1046L2.35864 24.2748C2.29834 23.6307 2.26831 22.9765 2.26831 22.3223C2.26831 16.9581 4.34546 11.9361 8.11841 8.14191ZM22.2468 42.35C27.5852 42.35 32.6025 40.2668 36.3755 36.4826C38.6433 34.2283 40.2888 31.5109 41.2522 28.5319L27.1838 25.3919C26.1604 27.0424 24.334 28.1394 22.2568 28.1394C20.1899 28.1394 18.3735 27.0525 17.3401 25.4221L3.26172 28.5621C4.21509 31.5109 5.8606 34.2182 8.11841 36.4826C11.8914 40.2668 16.9087 42.35 22.2468 42.35Z" transform="translate(27.5271 48.5952)" fill="#DA6F25"/>
</svg>
