<svg width="100" height="100" viewBox="0 0 100 100" fill="none" xmlns="http://www.w3.org/2000/svg">
<path fill-rule="evenodd" clip-rule="evenodd" d="M59.2834 29.5082H59.6748C62.2537 29.5082 64.3608 27.4047 64.3608 24.8082V4.69995C64.3608 2.11346 62.2637 0 59.6748 0H59.2834C56.7046 0 54.5974 2.10339 54.5974 4.69995V24.8082C54.5974 27.3947 56.6946 29.5082 59.2834 29.5082ZM26.752 20.7322C41.5024 20.7322 53.4937 32.769 53.4937 47.5533C53.4937 49.3245 53.313 51.0556 52.9919 52.7363H45.5264V49.9183H50.9048C50.9851 49.1434 51.0251 48.3483 51.0251 47.5633C51.0251 44.3026 50.3831 41.1927 49.219 38.3445L44.593 40.4077L43.5696 38.103L48.1553 36.06C46.5598 33.081 44.3723 30.4844 41.7434 28.4112L30.1836 44.3327C30.8259 45.1077 31.197 46.0939 31.197 47.1708C31.197 49.6265 29.2102 51.6293 26.752 51.6293C24.3035 51.6293 22.3066 49.6365 22.3066 47.1708C22.3066 44.7051 24.2935 42.7124 26.752 42.7124C27.2336 42.7124 27.6951 42.7929 28.1267 42.9338L39.7063 26.9821C36.2947 24.8183 32.321 23.4797 28.0464 23.2584V28.2804H25.4373V23.2584C21.2429 23.4797 17.3296 24.778 13.948 26.8714L16.9282 30.9575L14.8911 32.447L11.8809 28.3105C9.19165 30.4039 6.94385 33.0609 5.31836 36.0901L9.81372 38.093L8.79028 40.3976L4.24463 38.3647C3.09058 41.2028 2.46851 44.2925 2.46851 47.5331C2.46851 48.3282 2.50854 49.1132 2.58887 49.8881H8.41895V52.7061H0.501709C0.170654 51.0355 0 49.3044 0 47.5231C0.0100098 32.7589 12.0012 20.7322 26.752 20.7322ZM54.9788 36.231C54.9788 33.7351 57.0056 31.7223 59.4741 31.7223C61.9526 31.7223 63.9697 33.7351 63.9697 36.231C63.9697 38.7269 61.9626 40.7398 59.4741 40.7398C56.9856 40.7398 54.9788 38.7068 54.9788 36.231Z" transform="translate(18.0103 24.02)" fill="#DA6F25"/>
</svg>
