<svg width="100" height="100" viewBox="0 0 100 100" fill="none" xmlns="http://www.w3.org/2000/svg">
<path fill-rule="evenodd" clip-rule="evenodd" d="M13.0547 18.1759C13.0547 8.16205 21.1826 0 31.177 0C41.1611 0 49.2991 8.16205 49.2791 18.1658C49.2791 23.369 47.0515 28.3407 43.158 31.7927L41.7732 30.2227L38.9236 27.3645L41.0007 25.2812L43.5093 27.7972C45.3354 25.4322 46.4595 22.6041 46.7405 19.6251H42.7566V16.6864H46.7405C46.4395 13.496 45.1951 10.5875 43.2786 8.24255L40.8801 10.6479L38.8032 8.56464L41.2114 6.14923C38.8333 4.14642 35.863 2.84814 32.6118 2.53619V6.16931H29.6819V2.53619C26.3904 2.84814 23.3901 4.18671 21.002 6.22974L23.8518 9.07788L21.7747 11.1612L18.9751 8.35327C17.1086 10.6882 15.8945 13.5665 15.5935 16.7065H18.9751V19.6453H15.5935C15.8643 22.584 16.968 25.3818 18.7441 27.7167L21.1526 25.3013L23.2297 27.3846L20.0085 30.6152L19.9985 30.6052L19.0352 31.6719C15.2322 28.23 13.0547 23.3086 13.0547 18.1759ZM0 27.6564L1.58545 31.7424L7.58594 29.3672L8.88062 32.6985L12.1919 25.4423L4.78638 22.1714L6.00049 25.2913L0 27.6564Z" transform="translate(13.05 13)" fill="#DA6F25"/>
<path fill-rule="evenodd" clip-rule="evenodd" d="M13.4895 2.50598C13.7303 1.07684 14.9646 0 16.4498 0C18.1053 0 19.45 1.35864 19.44 3.01923C19.44 4.67987 18.0953 6.02844 16.4395 6.02844C15.6871 6.02844 14.9947 5.74664 14.4627 5.28369L5.21098 9.11816L4.09721 6.40082L13.4895 2.50598ZM48.931 42.1991L58.1526 39.7032L59.0254 42.8029L2.42119 58.1005L1.58818 54.9705L11.7232 52.2331C10.4085 51.8708 9.2144 51.1059 8.30132 50.029L7.75957 50.1296C7.62895 50.1498 7.49858 50.1599 7.36821 50.1599C7.28789 50.1599 7.20757 50.1599 7.12724 50.1498L5.36137 49.9485C5.00005 49.9183 4.64873 49.7774 4.33769 49.566L1.68852 47.6942C1.28716 47.4124 0.986131 46.9896 0.84575 46.5166C0.775437 46.2952 0.193406 44.3025 0.0830546 43.8798C0.0830546 43.8748 0.0806132 43.8698 0.0779277 43.8647C0.0754863 43.8597 0.0730448 43.8547 0.0730448 43.8496C-0.00727742 43.5175 -0.027297 43.1854 0.0430155 42.8533C0.113328 42.3802 0.233689 42.0079 0.36406 41.6959C0.464402 40.8907 0.715379 39.3308 1.10674 38.3043C1.33745 37.6501 1.84917 37.1469 2.54155 36.6437C3.1436 36.2009 3.91631 35.7178 4.80937 35.2347C6.36479 34.3893 9.01372 33.1414 12.9573 31.8934C15.3492 28.7774 17.0381 26.3414 17.4581 25.7355L17.543 25.6133C18.8374 23.5905 20.0416 23.0067 21.4766 22.4431C21.4898 22.4387 21.501 22.4362 21.5113 22.434C21.5242 22.4311 21.5357 22.4286 21.5469 22.423C25.5799 20.9943 39.7081 17.2364 43.3545 16.2665C43.8179 16.1432 44.1121 16.065 44.1946 16.0423C44.3853 15.9819 44.566 15.9618 44.7566 15.9618C44.9874 15.9618 45.2081 16.0021 45.4288 16.0725C45.4571 16.0806 45.4983 16.0903 45.5606 16.105C45.6529 16.1267 45.7911 16.1592 46.0008 16.2134L46.0337 16.2224C46.2618 16.2841 46.6634 16.3928 47.0645 16.7568L47.0711 16.7635C47.0923 16.7848 47.1106 16.8032 47.1285 16.822C47.232 16.931 47.3223 17.0526 47.8873 17.8136C48.6097 18.7999 50.6468 21.5676 51.3392 22.4834C51.5098 22.6142 51.6802 22.7652 51.8309 22.9564C52.0716 23.2482 52.2122 23.5703 52.4429 24.2647C52.4478 24.2798 52.4529 24.2999 52.4578 24.32L52.46 24.3287L52.4612 24.3333C52.4651 24.3488 52.469 24.3637 52.4729 24.3754L52.6636 25.09C53.647 27.9583 53.7674 28.3105 53.7977 28.4112V28.4313V28.4514L54.3294 30.4341L54.6807 31.7424C55.0618 33.1614 54.7811 35.1038 53.2959 36.2512C52.764 36.6638 51.9112 37.0764 51.2288 37.3582C51.1851 37.3873 51.1346 37.4165 51.0782 37.449L51.0748 37.451L51.0672 37.4554C51.0096 37.4887 50.9456 37.5255 50.8775 37.5696C50.8174 38.8477 50.4461 40.0957 49.7737 41.1423C49.523 41.5248 49.242 41.877 48.931 42.1991ZM9.2249 47.5432L8.20146 47.8149V47.825L7.32842 47.976L5.5623 47.7747L2.91338 45.9027C2.91338 45.9027 2.27104 43.7087 2.1707 43.3162C2.1707 43.3112 2.16826 43.3062 2.16582 43.3012C2.16313 43.2961 2.16069 43.2911 2.16069 43.2861C2.24101 42.6218 2.4417 42.3903 2.4417 42.3903C2.4417 42.3903 2.69243 40.0957 3.12407 39.0591C3.2144 38.6867 6.47539 36.1606 14.2222 33.7855C17.0118 30.171 18.9512 27.3593 19.2801 26.8824L19.3296 26.811C20.2527 25.3315 20.9754 24.9592 22.2195 24.4761C26.7352 22.8759 44.6968 18.1458 44.6968 18.1458C44.7068 18.1558 45.5196 18.3571 45.5196 18.3571C45.5215 18.359 45.6753 18.5678 45.9236 18.9051L46.0223 19.0392C47.1475 20.5683 49.7749 24.1382 49.8143 24.1541C49.9146 24.1742 50.0049 24.2446 50.0752 24.3352C50.1456 24.4157 50.306 24.9391 50.306 24.9391L50.5166 25.7039L50.5269 25.7241C50.5269 25.7241 51.6507 28.9949 51.6507 29.005C51.751 29.3875 52.3931 31.7827 52.5437 32.306C52.6841 32.8193 52.6941 33.8962 51.9417 34.49C51.47 34.8624 50.2256 35.3655 50.2256 35.3655C50.1456 35.4058 48.6404 36.3116 48.6404 36.3116L48.6604 36.9154C48.8108 39.1195 47.5567 41.1525 45.5596 41.6859C45.2186 41.7764 44.8775 41.8167 44.5462 41.8167C42.8907 41.8167 41.3052 40.7599 40.5022 39.1094L22.6409 43.9201L19.3196 44.8158L19.0386 44.8963L18.4969 45.0372L17.3931 45.3392C17.5535 47.5533 16.3094 49.5963 14.3023 50.1297C13.9612 50.2203 13.6202 50.2605 13.2889 50.2605C11.6331 50.2706 10.0477 49.2139 9.2249 47.5432ZM19.49 47.0601C19.3294 47.9558 18.9983 48.8113 18.5267 49.556C18.2757 49.9586 17.9747 50.3209 17.6336 50.6329L42.9004 43.8094C42.2281 43.6182 41.5857 43.3162 40.9837 42.9237C40.462 42.5715 39.9803 42.1387 39.5589 41.6556L23.2127 46.0537L19.8914 46.9494L19.6104 47.0299L19.49 47.0601Z" transform="translate(27.7771 28.1667)" fill="#DA6F25"/>
</svg>
