<svg width="100" height="100" viewBox="0 0 100 100" fill="none" xmlns="http://www.w3.org/2000/svg">
<path fill-rule="evenodd" clip-rule="evenodd" d="M68.7361 15.0109C68.8464 15.1015 68.9167 15.2223 68.9468 15.3631C68.9629 15.4336 68.9441 15.6736 68.9282 15.8784C68.9146 16.0537 68.9028 16.2031 68.9167 16.1985L68.7361 17.215V17.2452C68.7361 17.2452 68.2544 21.7237 68.2544 21.7338C68.2129 21.9697 68.0696 22.7691 67.9153 23.6305C67.7336 24.6433 67.5366 25.7419 67.4717 26.1117C67.3513 26.8061 66.7793 28.0742 65.5452 28.3459C64.7725 28.5271 63.0364 28.4264 63.0364 28.4264C62.926 28.4365 60.6482 28.668 60.6482 28.668L60.3271 29.3926C59.5444 31.3954 57.8787 32.8547 55.9922 33.2472L67.9333 35.3808L67.9233 36.0551H0L0.0100098 23.2032L10.8171 25.1456C9.14136 24.1089 8.05762 22.1464 8.0376 19.9424L6.68286 19.7008V19.7109L5.56909 19.409L3.60229 18.2013L1.51514 14.5177C1.51514 14.5177 1.9668 11.5891 2.06714 11.0557C2.06714 11.0439 2.07056 11.0321 2.07349 11.0223C2.07544 11.0154 2.07715 11.0095 2.07715 11.0054H2.08716C2.54883 10.2606 2.91992 10.1197 2.91992 10.1197C2.91992 10.1197 4.48535 7.54332 5.55908 6.57713C5.87012 6.18462 11.1182 5.02727 21.5339 6.54692C27.3237 3.58806 31.3877 1.1928 31.3977 1.18273C33.3044 -0.0350478 34.3579 -0.0752699 36.084 0.0455187C42.2852 0.679552 66.0369 5.0977 66.0369 5.0977C66.0469 5.12792 66.8896 5.80217 66.8896 5.80217C66.8896 5.83238 68.6958 14.9707 68.7361 15.0109ZM18.8647 21.8949C18.082 23.948 16.3962 25.4174 14.4697 25.7999L52.2092 32.563C50.5637 31.5465 49.51 29.6041 49.48 27.4302L25.8086 23.1529L21.4136 22.3579L21.0422 22.2875L20.3298 22.1566L18.8647 21.8949Z" transform="translate(15.0403 32.0851)" fill="#DA6F25"/>
</svg>
