<svg width="101" height="100" viewBox="0 0 101 100" fill="none" xmlns="http://www.w3.org/2000/svg">
<path d="M0.83286 31.3398L0 30.6253C3.85323 26.0964 5.90026 20.9234 5.90026 15.6699C5.90026 10.4164 3.85323 5.24343 0 0.714556L0.83286 0C4.86671 4.73016 6.99402 10.1548 6.99402 15.68C6.99402 21.1851 4.86671 26.6097 0.83286 31.3398V31.3398Z" transform="translate(61.865 17.0001)" fill="#DA6F25"/>
<path fill-rule="evenodd" clip-rule="evenodd" d="M5.89038 23.5804L6.72314 24.2949C9.84399 20.6315 11.5098 16.4348 11.4998 12.1475C11.4998 7.87018 9.84399 3.66333 6.72314 0L5.89038 0.7146C8.84058 4.17664 10.406 8.12177 10.406 12.1475C10.406 16.1631 8.85059 20.1183 5.89038 23.5804ZM0 20.863L0.832764 21.5775C3.26123 18.7394 4.53564 15.4786 4.53564 12.1575C4.53564 8.82623 3.26123 5.56543 0.832764 2.71729L0 3.43188C2.25781 6.05859 3.44189 9.07782 3.44189 12.1474C3.44189 15.2069 2.25781 18.2161 0 20.863Z" transform="translate(51.519 20.5226)" fill="#DA6F25"/>
<path d="M0.712447 7.01473L0 6.1794C4.7162 2.1336 10.1248 0 15.6337 0C21.1426 0 26.5512 2.1336 31.2674 6.1794L30.5549 7.01473C26.0394 3.15009 20.8817 1.09699 15.6437 1.09699C10.3857 1.10706 5.22795 3.14002 0.712447 7.01473V7.01473Z" transform="translate(63.7815 43.6902)" fill="#DA6F25"/>
<path fill-rule="evenodd" clip-rule="evenodd" d="M12.1116 1.09698C16.1152 1.09698 20.0588 2.65692 23.5107 5.62585L24.2231 4.79053C20.5706 1.65051 16.3862 0 12.1116 0C7.84692 0 3.65259 1.66058 0 4.79053L0.712402 5.62585C4.16431 2.66699 8.0979 1.09698 12.1116 1.09698ZM12.1118 8.0816C15.1624 8.0816 18.1626 9.26917 20.8015 11.5336L21.5342 10.6983C18.6943 8.27283 15.4431 6.98462 12.1218 6.98462C8.80029 6.98462 5.54932 8.26276 2.70947 10.6983L3.42188 11.5336C6.04102 9.26917 9.06128 8.0816 12.1118 8.0816Z" transform="translate(67.3035 49.5375)" fill="#DA6F25"/>
<path d="M54.758 30.585H52.7813V1.98264H0V0H54.758" transform="translate(5.08008 52.1945)" fill="#DA6F25"/>
<path fill-rule="evenodd" clip-rule="evenodd" d="M0 17.5117L9.78369 0L20.3298 17.5117H0ZM18.7747 16.6362L9.83398 1.80164L1.54541 16.6362H18.7747Z" transform="translate(74.1675 19.5664)" fill="#DA6F25"/>
<path fill-rule="evenodd" clip-rule="evenodd" d="M2.01733 0H0.301514V6.97449H2.01733V0ZM1.15405 8.03119C1.46509 8.03119 1.72583 8.14191 1.95679 8.35327C2.1875 8.56458 2.30786 8.81622 2.29785 9.12817C2.29785 9.44019 2.17749 9.70184 1.95679 9.92328C1.72583 10.1447 1.46509 10.2554 1.14404 10.2554C0.983398 10.2554 0.842773 10.2151 0.702393 10.1648C0.572021 10.1145 0.45166 10.0339 0.341064 9.93329C0.230713 9.84271 0.160645 9.72198 0.090332 9.59113C0.0300293 9.46033 0 9.30933 0 9.15839C0 8.84637 0.120361 8.58472 0.341064 8.36328C0.572021 8.14191 0.832764 8.03119 1.15405 8.03119Z" transform="translate(82.8877 25.2628)" fill="#DA6F25"/>
<path fill-rule="evenodd" clip-rule="evenodd" d="M37.7195 1.38638C37.5891 1.37625 37.4385 1.37625 37.2681 1.37625H37.1375C37.0696 1.37625 36.9946 1.37393 36.9172 1.37149L36.9143 1.37137C36.8325 1.3688 36.7478 1.36624 36.666 1.36624H36.5554C36.4775 1.36624 36.3975 1.36392 36.3147 1.36148L36.3105 1.36136C36.2244 1.3588 36.1353 1.35623 36.0437 1.35623H35.9333C35.833 1.35623 35.7227 1.35623 35.6123 1.3461C35.4819 1.3461 35.3413 1.3461 35.2009 1.33609C35.0703 1.33609 34.9399 1.33609 34.8096 1.32596H34.6189C33.0134 1.30582 31.0066 1.28568 28.8088 1.27567C28.7085 0.893219 28.4377 0.551056 28.2371 0.32962C27.8657 -0.0931091 27.0127 -0.143402 26.832 0.379913C26.832 0.62149 26.9727 0.943512 27.1833 1.26566C19.2961 1.22537 9.68335 1.21524 7.03418 1.21524H6.32178C5.86011 1.7084 3.05054 1.86942 2.66919 1.86942C0.692383 1.86942 0 6.09641 0 10.0114V11.0379C0 14.9629 0.692383 19.1798 2.66919 19.1798C3.04053 19.1798 5.86011 19.3308 6.32178 19.834H7.04419C9.7334 19.834 19.5771 19.8239 27.5347 19.7837C27.384 20.0453 27.2837 20.297 27.2837 20.4983C27.4744 20.9914 28.3171 20.9411 28.6885 20.5183C28.8491 20.3271 29.0698 20.0554 29.2002 19.7434C31.2573 19.7334 33.1238 19.7132 34.6289 19.6931H34.8096C34.8982 19.6931 34.9841 19.6906 35.0679 19.6882L35.0728 19.6881L35.0769 19.688L35.0803 19.6878C35.1631 19.6854 35.2434 19.683 35.3213 19.683C35.4517 19.683 35.5823 19.683 35.7126 19.6729C35.823 19.6729 35.9233 19.6729 36.0337 19.6629H36.1743C36.2847 19.6629 36.405 19.6629 36.5154 19.6529C36.5935 19.6529 36.6714 19.6502 36.7466 19.6476C36.8164 19.6451 36.884 19.6428 36.9468 19.6428C37.0271 19.6428 37.1074 19.6428 37.1877 19.6327C37.2825 19.628 37.3728 19.6255 37.4587 19.6231L37.4619 19.623L37.4656 19.6229C37.5586 19.6203 37.6467 19.6178 37.7295 19.6126C42.4758 19.4113 44.0012 15.3857 44.0012 11.0279V9.99124C43.991 5.60324 42.4758 1.58768 37.7195 1.38638ZM30.0527 2.58414C30.0627 2.59415 26.3701 4.14407 19.3459 4.59695L19.3616 4.47891C19.4302 3.95987 19.5249 3.24429 19.7573 2.80557L30.0527 2.58414ZM18.5332 4.64719C18.5735 3.99301 18.7039 3.38919 18.9146 2.82559L9.16113 3.0369C9.27759 3.0369 9.40015 3.12198 9.59009 3.25369C10.3008 3.74637 11.9526 4.89182 17.7405 4.6774L18.5332 4.64719ZM4.10376 18.888C3.75269 18.878 3.38135 18.878 3 18.878C2.729 18.878 2.49829 18.7975 2.2876 18.6667C1.62524 18.2439 1.25391 17.1973 1.02319 15.8587L1.64526 16.3015C1.68555 16.5129 1.74561 16.684 1.80591 16.8048C2.04663 17.318 2.448 17.6904 2.9397 17.942C3.36133 18.1534 3.83276 18.2943 4.34448 18.405L4.10376 18.888ZM1.81616 4.1843C2.04688 3.66092 2.45825 3.29861 2.94995 3.04703C3.37158 2.82559 3.84302 2.68472 4.36499 2.58401L4.11401 2.10098C3.75269 2.11099 3.38159 2.12112 3.01025 2.12112C2.74927 2.12112 2.50854 2.20157 2.29785 2.33243C1.6355 2.76517 1.25415 3.79178 1.03345 5.13028L1.65552 4.68747C1.70581 4.49625 1.76587 4.31509 1.81616 4.1843ZM6.81323 16.7946C6.12085 16.6135 5.15747 14.8724 5.15747 10.5045C5.15747 6.12662 6.12085 4.38553 6.81323 4.18423C7.9873 4.6774 9.92383 5.01956 12.2017 5.20071C11.6899 5.77438 11.5093 7.66641 11.5093 10.4844C11.5093 13.3024 11.6799 15.2045 12.2017 15.7782C9.92383 15.9694 7.9873 16.3116 6.81323 16.7946ZM18.5334 16.3418L17.761 16.3116C11.9651 16.1051 10.3115 17.2459 9.60059 17.7363C9.4104 17.8674 9.28784 17.9521 9.17139 17.9521L18.9148 18.1634C18.6841 17.5898 18.5537 16.996 18.5334 16.3418ZM19.3738 16.6996L19.3733 16.6956C19.3567 16.5837 19.3413 16.4807 19.3259 16.3921C26.3601 16.8551 30.0627 18.4049 30.0627 18.4049L19.7573 18.1836C19.5391 17.8022 19.4446 17.1721 19.3738 16.6996ZM24.5039 16.1506C26.9321 16.523 28.9492 17.0765 30.0129 17.8413C31.0664 16.7041 31.9895 12.6281 31.9895 10.4945C31.9895 8.36093 31.0764 4.28494 30.0129 3.1376C28.9492 3.89243 26.9321 4.45602 24.5039 4.8284C25.4973 6.17697 25.5776 9.45792 25.5776 10.4845C25.5776 11.511 25.4973 14.802 24.5039 16.1506ZM41.4521 17.8514C40.9705 18.3949 40.3884 18.727 39.7061 18.727H39.395C39.5254 18.3848 39.8567 18.2137 40.0574 18.1332C40.1074 18.1231 40.1577 18.103 40.2078 18.0829C40.5491 17.9521 40.8601 17.7407 41.1208 17.469C41.8635 16.7242 42.3752 15.4864 42.6863 14.1579L42.9973 14.5504C42.6663 15.8587 42.1545 17.0765 41.4521 17.8514ZM41.1208 3.53012C41.8735 4.29501 42.3752 5.53293 42.6863 6.85135L42.9873 6.4689C42.6562 5.15048 42.1545 3.94278 41.4521 3.15775C40.9705 2.61429 40.3884 2.28214 39.7061 2.28214C39.6497 2.28214 39.5957 2.27957 39.5432 2.27701L39.5391 2.27676L39.5354 2.27664C39.4878 2.27432 39.4414 2.27213 39.395 2.27213C39.5254 2.61429 39.8567 2.78543 40.0574 2.86588C40.0825 2.87589 40.1074 2.88345 40.1326 2.89102C40.1577 2.89859 40.1826 2.90616 40.2078 2.91629C40.5491 3.03702 40.8501 3.25845 41.1208 3.53012ZM81.4395 54.4146C81.2488 54.2435 80.9778 54.0221 80.6567 53.9013L80.6423 52.2881L80.6421 52.2497L80.6418 52.2096L80.6414 52.1676C80.6292 50.7701 80.6179 49.4959 80.5967 48.3962V48.2251C80.5967 48.1465 80.5947 48.0696 80.5925 47.9939L80.592 47.9745L80.5916 47.956C80.5889 47.8705 80.5864 47.7861 80.5864 47.7018C80.5864 47.6448 80.5845 47.5859 80.5823 47.5276L80.5818 47.5119L80.5813 47.4978L80.5811 47.4937L80.5803 47.472L80.5801 47.4678C80.5784 47.4129 80.5764 47.3594 80.5764 47.3093C80.5764 47.1986 80.5764 47.0879 80.5664 46.9973V46.9872V46.8564C80.5664 46.8082 80.5645 46.7561 80.5623 46.7044L80.5618 46.6899L80.5613 46.6773L80.561 46.673L80.5603 46.6526L80.5601 46.6475C80.5581 46.6004 80.5564 46.5548 80.5564 46.5142C80.5564 46.431 80.5537 46.3532 80.551 46.2779L80.5503 46.2538L80.55 46.2492L80.5493 46.2262C80.5479 46.1739 80.5464 46.1226 80.5464 46.0714C80.5464 45.9909 80.5464 45.9003 80.5364 45.8299C80.5322 45.7455 80.5298 45.6647 80.5273 45.5867L80.5271 45.5751L80.5269 45.564L80.5266 45.5533C80.5242 45.4572 80.5215 45.3654 80.5164 45.2763C80.3157 40.4656 76.2717 38.9359 71.8767 38.9359H70.823C66.428 38.9359 62.384 40.4757 62.1833 45.2763C62.1782 45.3448 62.1755 45.4215 62.1731 45.5022L62.1729 45.5115L62.1726 45.5205L62.1724 45.5293C62.1699 45.5945 62.1675 45.6618 62.1633 45.7292V45.86C62.1533 46.011 62.1533 46.172 62.1533 46.333V46.4337C62.1533 46.5147 62.1509 46.5956 62.1484 46.6776V46.681V46.6844V46.6878L62.1479 46.7064L62.1475 46.7257C62.1453 46.8015 62.1433 46.8783 62.1433 46.957V47.0677C62.1433 47.1684 62.1433 47.2791 62.1331 47.3898C62.1331 47.4449 62.1311 47.5017 62.1292 47.5597V47.563L62.1284 47.5846L62.1282 47.5885L62.1277 47.6029L62.1272 47.6186C62.125 47.6793 62.123 47.7408 62.123 47.8024C62.123 47.9333 62.123 48.0641 62.113 48.1949V48.3761C62.0918 49.5359 62.0806 50.9071 62.0681 52.4123L62.0679 52.4536L62.0676 52.494L62.0674 52.5331L62.053 54.2636C61.6616 54.3643 61.3203 54.636 61.0996 54.8473C60.6782 55.2197 60.6279 56.0852 61.1499 56.2765C61.3906 56.2765 61.7217 56.1255 62.043 55.9142C62.0378 56.5108 62.0352 57.1207 62.0325 57.737V57.7544V57.7712V57.7875C62.03 58.3605 62.0276 58.9388 62.0227 59.5171H63.5481L63.4075 53.0056C63.4065 53.0056 63.4136 53.0244 63.4277 53.0619C63.5667 53.432 64.3889 55.6239 64.9629 59.5171H77.7268C78.3589 55.2298 79.282 53.0056 79.282 53.0056L79.1416 59.5171H80.6467C80.6418 58.8554 80.6392 58.1963 80.6367 57.5444C80.6343 56.8775 80.6318 56.2184 80.6267 55.572C80.8877 55.7229 81.1384 55.8236 81.3391 55.8236C81.9111 55.6525 81.8608 54.787 81.4395 54.4146ZM63.0962 43.5453C63.4373 43.4145 63.6079 43.0824 63.6882 42.8811C63.7029 42.8516 63.7122 42.8167 63.7239 42.7726L63.7383 42.7201C63.8789 42.3778 64.0896 42.0659 64.3706 41.7942C65.1333 41.0393 66.3774 40.5361 67.7019 40.2242L67.3005 39.9121C65.9861 40.2543 64.762 40.7575 63.9792 41.4721C63.4373 41.9652 63.1062 42.549 63.1062 43.2434C63.1062 43.3541 63.1062 43.4547 63.0962 43.5453ZM77.0745 58.6415C75.7197 57.6351 72.4084 57.5546 71.365 57.5546C70.3313 57.5546 67.04 57.6351 65.6753 58.6314C65.304 56.1657 64.7422 54.1328 63.9695 53.0458C65.1135 51.979 69.2275 51.033 71.365 51.033C73.5122 51.033 77.6062 51.9589 78.7603 53.0458C78.0078 54.1328 77.4458 56.1758 77.0745 58.6415ZM79.051 42.9112C79.1313 43.1024 79.302 43.4345 79.6431 43.5755V43.2635C79.6431 42.5691 79.312 41.9853 78.7703 41.4922C77.9976 40.7877 76.7732 40.2744 75.4487 39.9322L75.0474 40.2442C76.3718 40.5562 77.6162 41.0594 78.3687 41.8343C78.6497 42.1061 78.8706 42.4181 79.001 42.7602C79.011 42.7854 79.0186 42.8106 79.0259 42.8357C79.0334 42.8609 79.041 42.886 79.051 42.9112Z" transform="translate(8.13086 21.7025)" fill="#DA6F25"/>
</svg>
