<svg width="100" height="100" viewBox="0 0 100 100" fill="none" xmlns="http://www.w3.org/2000/svg">
<path fill-rule="evenodd" clip-rule="evenodd" d="M49.7207 0L55.7715 3.66333L50.353 12.6104L55.29 15.6096L42.8271 18.8904L39.6562 6.13916L44.2922 8.93701L49.7207 0ZM0 43.2357C0 28.4514 11.9912 16.4147 26.7419 16.4147C41.4924 16.4147 53.4836 28.4413 53.4937 43.2055C53.4937 44.9869 53.323 46.7179 52.9919 48.3885H45.0747V45.5706H50.9048C50.9851 44.7957 51.0251 44.0106 51.0251 43.2156C51.0251 39.9749 50.4031 36.8852 49.249 34.0471L44.7036 36.0801L43.6799 33.7754L48.1755 31.7726C46.5498 28.7433 44.3022 26.0864 41.6128 23.993L38.6025 28.1294L36.5657 26.6399L39.5459 22.5538C36.1643 20.4604 32.2507 19.1622 28.0564 18.9408V23.9628H25.4475V18.9408C21.1726 19.1622 17.199 20.5007 13.7874 22.6646L25.3672 38.6162C25.7986 38.4753 26.2603 38.3948 26.7419 38.3948C29.2002 38.3948 31.187 40.3875 31.187 42.8533C31.187 45.319 29.1902 47.3117 26.7419 47.3117C24.2834 47.3117 22.2966 45.3089 22.2966 42.8533C22.2966 41.7764 22.6677 40.7901 23.3101 40.0151L11.7502 24.0936C9.12134 26.1669 6.93384 28.7634 5.33838 31.7424L9.92407 33.7855L8.90063 36.0901L4.27466 34.027C3.1106 36.8751 2.46851 39.985 2.46851 43.2457C2.46851 44.0308 2.50854 44.8258 2.58887 45.6008H7.96729V48.4188H0.501709C0.180664 46.738 0 45.007 0 43.2357Z" transform="translate(27.6694 31.6003)" fill="#DA6F25"/>
<path fill-rule="evenodd" clip-rule="evenodd" d="M6.05078 0H29.0095C32.3411 0 35.0603 2.72742 35.0603 6.05865V25.1705C20.8015 26.6801 9.42236 37.8413 7.53589 52.0217H6.05078C2.71924 52.0217 0 49.2943 0 45.953V6.06873C0 2.72742 2.71924 0 6.05078 0ZM1.80566 46.587L3.88281 44.9767V8.28278C3.88281 5.89758 5.70898 3.9552 7.95679 3.9552H27.3535C29.6011 3.9552 31.4275 5.89758 31.4275 8.28278V23.2079L33.5046 22.8054V8.28278C33.5046 4.75024 30.7451 1.88196 27.3535 1.88196H7.95679C4.56519 1.88196 1.80566 4.75024 1.80566 8.28278V46.587ZM6.51221 28.2803H9.1814V28.7533C9.1814 30.0616 9.8938 31.2291 11.4792 31.2291C13.426 31.2291 13.9678 29.2968 13.9678 27.2437C13.9678 25.2107 13.426 23.5098 11.6196 23.5098C10.4358 23.5098 9.57275 24.1539 9.32178 25.1201L6.83325 25.0195L7.69629 15.8309H16.1152V18.0853H9.79346L9.22144 22.6946L9.27173 22.7449C10.0142 21.8996 11.0779 21.3863 12.2117 21.3863C15.8643 21.3863 16.7773 24.4861 16.7773 27.1833C16.7773 30.6957 15.1719 33.3727 11.3989 33.3727C8.28833 33.3727 6.51221 31.7625 6.51221 28.6727V28.2803ZM23.4702 23.4998C24.5139 23.4998 25.136 24.0835 25.4771 24.9691L28.0459 23.9124C27.4338 22.4631 26.2297 21.3762 24.0623 21.3762C22.9285 21.3762 21.8647 21.8895 21.1223 22.7349L21.072 22.6846L21.644 18.0752H27.9658V15.8208H19.5469L18.6838 25.0094L21.1724 25.11C21.4233 24.1439 22.2861 23.4998 23.4702 23.4998Z" transform="translate(15.9998 19.0403)" fill="#DA6F25"/>
</svg>
