<svg width="100" height="100" viewBox="0 0 100 100" fill="none" xmlns="http://www.w3.org/2000/svg">
<path fill-rule="evenodd" clip-rule="evenodd" d="M0.000732422 0H5.07812V7.05499H0.000732422V0ZM5.07739 66.1921H0V51.3474H5.07739V66.1921ZM0 46.4764H5.07739V31.6317H0V46.4764ZM5.07739 26.7708H0V11.9261H5.07739V26.7708ZM5.07739 71.0631H0V78.1181H5.07739V71.0631Z" transform="translate(19.0696 10.01)" fill="#DA6F25"/>
<path fill-rule="evenodd" clip-rule="evenodd" d="M5.07739 0V12.9124C3.80298 11.4329 2.10718 10.1447 0 9.05774V0H5.07739ZM4.37183 32.7352C4.56152 32.1752 4.76465 31.5755 5.04736 30.746L5.0874 30.6555V79.0842H0.0100098V45.3693C0.278809 44.5912 0.547852 43.7623 0.814209 42.9419C1.06445 42.1705 1.31226 41.4067 1.55542 40.6995C2.97021 40.931 4.29468 38.5458 3.05054 36.6034C3.71997 34.6606 4.02319 33.7651 4.37183 32.7352Z" transform="translate(74.0891 10.0201)" fill="#DA6F25"/>
<path fill-rule="evenodd" clip-rule="evenodd" d="M35.8855 1.91045L34.3403 1.35692C27.8379 -0.977979 21.0347 -0.847181 18.1948 6.16759C18.1619 6.25048 18.1287 6.33843 18.0942 6.43016L18.0896 6.44249C18.0417 6.56981 17.991 6.70421 17.9338 6.84185C17.9192 6.89318 17.8992 6.93914 17.8782 6.98747L17.8762 6.99187L17.8748 6.99492L17.8538 7.04314C17.7634 7.26457 17.6731 7.49602 17.5828 7.74767C17.5627 7.79796 17.5427 7.84825 17.5125 7.90868C17.4434 8.09319 17.3687 8.28362 17.2878 8.48888L17.2114 8.68358C17.2114 8.68859 17.209 8.69365 17.2063 8.69872L17.2114 8.69365C17.1914 8.73393 17.1714 8.80437 17.1614 8.84465C17.1189 8.97197 17.0623 9.11357 17.0095 9.24541L16.9807 9.31768C16.9004 9.51891 16.8301 9.71013 16.75 9.93157C16.7156 10.0131 16.6855 10.0947 16.6553 10.1769L16.6482 10.196L16.6462 10.2016L16.6411 10.2156L16.6372 10.2264L16.634 10.2352L16.6311 10.243L16.6289 10.2488L16.6248 10.2602C16.5945 10.3439 16.5637 10.4287 16.5291 10.5153C16.5139 10.5611 16.4961 10.607 16.4783 10.6528C16.4609 10.6976 16.4436 10.7423 16.4287 10.787C15.5356 13.1823 14.4319 16.1814 13.2278 19.4724C12.5857 19.4221 11.9534 19.6334 11.512 19.8246C10.689 20.1669 10.1572 21.4047 10.8396 21.9582C11.1907 22.0891 11.7627 22.0387 12.3447 21.9079C8.06006 33.7132 2.91236 48.0848 1.49756 52.0702C1.25659 52.7647 1.11621 53.1371 1.11621 53.1371C1.60791 54.0931 0.323488 58.3805 0.122805 58.9441C-0.930906 61.9231 4.97949 65.204 10.8296 67.2974L11.6023 67.5691L12.385 67.8408C18.2349 69.9342 24.8777 71.162 25.9514 68.183C26.1521 67.6294 27.8782 63.4931 28.8616 63.0704C28.8616 63.0704 28.8716 63.0301 28.9016 62.9597C28.9519 62.8087 29.0623 62.4867 29.2427 62.0036L30.0635 59.6926L30.1091 59.5642C32.1997 53.6791 36.5391 41.4634 40.0901 31.2676C40.4011 31.6299 40.7322 31.9218 41.0132 32.0124C41.8662 31.9822 42.2576 30.694 41.8259 29.8989C41.6353 29.5466 41.3442 29.0736 40.9429 28.7214C42.0166 25.6317 42.99 22.8238 43.7527 20.5492L43.7705 20.492L43.7759 20.4745L43.7778 20.4678C43.7966 20.4051 43.8149 20.3439 43.843 20.2876L43.9321 20.0218L43.9485 19.9734L43.9631 19.9292C44.012 19.784 44.0593 19.6418 44.1038 19.5026C44.1397 19.4001 44.1729 19.3002 44.2061 19.2002L44.2083 19.1933L44.2105 19.1867L44.2136 19.1774L44.218 19.1639C44.2461 19.0797 44.2744 18.9952 44.3044 18.9088C44.3328 18.8182 44.3643 18.7276 44.3953 18.6388L44.3977 18.6315L44.4028 18.6169C44.4243 18.5554 44.4453 18.4948 44.4651 18.4358L44.4751 18.4156C44.4951 18.3452 44.5151 18.2848 44.5454 18.2144C44.5642 18.1536 44.5859 18.0885 44.6079 18.023C44.6443 17.9148 44.6809 17.8052 44.7058 17.7112C44.7366 17.6225 44.7644 17.5369 44.7915 17.4531L44.7959 17.4397C44.8379 17.3093 44.8789 17.1832 44.9268 17.057L44.9617 16.9555L44.9697 16.9323L44.9739 16.9206L44.9768 16.9125C45.0029 16.8369 45.0288 16.7621 45.0471 16.6947L45.113 16.4906C45.187 16.2623 45.2534 16.0567 45.3079 15.8694C47.5657 8.67357 42.398 4.24529 35.8855 1.91045ZM20.5527 3.66167C20.9138 2.63512 21.7166 1.94072 22.7803 1.49785C24.3157 0.873889 26.3926 0.763171 28.53 0.954394L28.9614 1.63878C26.8142 1.3972 24.717 1.48778 23.1917 2.20238C22.6299 2.46404 22.1482 2.8062 21.7769 3.24901V3.25908C21.7622 3.27959 21.7466 3.2993 21.731 3.31865L21.7261 3.32482L21.7202 3.33214L21.7151 3.33849L21.7136 3.34026C21.6816 3.37956 21.6504 3.41814 21.6262 3.46038C21.4055 3.71196 20.9641 4.11455 20.3921 4.13469L20.4412 3.99156L20.4541 3.95415C20.4878 3.85814 20.522 3.75994 20.5527 3.66167ZM28.6804 19.5832C25.5198 18.4459 18.937 17.6508 16.6692 18.6271C17.2312 20.6298 16.9905 23.951 16.2378 27.7955C18.7866 27.0508 23.7034 28.6711 25.2288 29.2247C26.7639 29.7782 31.6506 31.6601 33.1157 33.8642C34.9622 30.4021 36.8787 27.6747 38.5845 26.4872C37.4407 24.2831 31.8413 20.7204 28.6804 19.5832ZM15.8967 18.2748C15.8967 18.2748 16.238 24.6253 13.1575 35.3839L13.0342 35.3205C12.2942 34.9406 11.2507 34.4048 10.719 33.824L15.8967 18.2748ZM0.744875 58.5718C0.594484 58.9643 0.584475 59.3669 0.674562 59.7493C0.945559 60.9469 2.29029 62.0842 4.16675 63.1611L3.83545 61.9836V61.9735C3.55445 61.7923 3.32373 61.6112 3.16333 61.4603C2.521 60.8262 2.19995 60.0412 2.07959 59.1556C1.98926 58.4209 2.0293 57.6258 2.14966 56.8005L1.29688 56.9213C1.12622 57.4547 0.945559 58.0082 0.744875 58.5718ZM5.40088 49.826L10.3076 35.0921C11.0503 35.706 11.863 36.2193 12.8064 36.6218C12.7153 36.9255 12.6189 37.2291 12.521 37.537L12.4251 37.8396C9.65552 46.5997 7.07862 48.4718 5.96216 49.2829C5.65869 49.5033 5.46314 49.6454 5.40088 49.826ZM10.217 46.4444C8.72193 49.7354 7.18677 52.4527 5.83203 53.9523C5.76172 55.0896 7.83887 57.4748 14.3513 59.8198C20.8638 62.1647 23.9744 61.6413 24.6367 60.7054C24.5364 58.6724 25.0681 55.5928 26.0012 52.0804C24.9075 52.5836 21.9675 51.8288 17.7129 50.3091C13.5286 48.7995 10.7991 47.5213 10.217 46.4444ZM25.6902 67.4987C25.5498 67.9114 25.3088 68.2133 24.9978 68.4548C24.0244 69.2197 22.2683 69.2298 20.1411 68.8473L21.1445 68.1428V68.1328C21.4756 68.163 21.7666 68.173 21.9876 68.163C22.8906 68.0824 23.6331 67.6799 24.2854 67.076C24.8272 66.5728 25.2988 65.9287 25.7202 65.2142L26.3022 65.8583C26.0916 66.3916 25.8809 66.9452 25.6902 67.4987ZM27.5051 57.0242C27.5999 57.3817 27.6606 57.612 27.5969 57.7868L33.116 43.2944C32.1526 43.3246 31.1992 43.2038 30.2158 42.8918C30.1411 43.0821 30.0635 43.2725 29.9849 43.4653L29.9705 43.5007L29.9607 43.5246C29.8892 43.7 29.8169 43.8776 29.7444 44.0593C26.3355 52.6026 27.1533 55.6939 27.5051 57.0242ZM33.5874 42.0364C32.905 42.1557 31.9529 41.9668 31.2271 41.8228C31.0349 41.7847 30.8586 41.7497 30.7075 41.7244C35.1428 31.4187 39.4275 26.7187 39.4275 26.7187L33.5874 42.0364ZM44.9382 12.8215C44.9807 12.7036 45.0269 12.5757 45.0669 12.4477C45.428 11.4212 45.2476 10.3745 44.7056 9.36809C43.9229 7.91887 42.3677 6.4998 40.6016 5.30217L39.8289 5.55376C41.635 6.72124 43.2105 8.12017 43.9429 9.63982C44.2239 10.2034 44.3745 10.767 44.3845 11.3508V11.3608C44.3845 11.4061 44.3821 11.4464 44.3796 11.4866C44.377 11.5268 44.3745 11.5671 44.3745 11.6124C44.3945 11.9445 44.4749 12.5282 44.9063 12.9107L44.9382 12.8215Z" transform="translate(34.5012 17.2983)" fill="#DA6F25"/>
</svg>
