<svg width="100" height="100" viewBox="0 0 100 100" fill="none" xmlns="http://www.w3.org/2000/svg">
<path fill-rule="evenodd" clip-rule="evenodd" d="M3.771 0L5.28076 7.70251L1.50977 8.44604L0 0.74353L3.771 0ZM10.1343 52.401L8.03711 41.6625L11.8101 40.9178L13.9072 51.6562L10.1343 52.401ZM5.15723 27.0192L7.25439 37.7576L11.0273 37.0129L8.93018 26.2744L5.15723 27.0192ZM4.38477 23.0941L2.2876 12.3556L6.06055 11.6108L8.15771 22.3493L4.38477 23.0941ZM16.168 63.2954L14.6582 55.5929L10.8872 56.3364L12.397 64.0389L16.168 63.2954Z" transform="translate(72.8425 18.0938)" fill="#DA6F25"/>
<path fill-rule="evenodd" clip-rule="evenodd" d="M12.4062 0L16.1772 0.743469L14.6675 8.44598L10.8965 7.70251L12.4062 0ZM6.04736 52.4213L2.27441 51.6766L4.37158 40.9381L8.14453 41.6829L6.04736 52.4213ZM5.14404 37.0332L8.91699 37.778L11.0142 27.0395L7.24121 26.2947L5.14404 37.0332ZM11.7969 23.1144L8.02393 22.3696L10.1211 11.6312L13.894 12.3759L11.7969 23.1144ZM5.28076 56.3375L1.50977 55.594L0 63.2965L3.771 64.04L5.28076 56.3375Z" transform="translate(11.0537 18.0735)" fill="#DA6F25"/>
<path fill-rule="evenodd" clip-rule="evenodd" d="M47.5289 10.3359C47.8299 10.3359 48.8033 11.0203 48.8836 11.3926C48.9434 11.6788 48.9139 12.7596 48.8951 13.4416C48.8887 13.671 48.8836 13.8552 48.8836 13.949C48.8836 14.3314 48.6426 15.1466 48.2212 15.2875C47.7195 15.4586 44.639 15.3378 44.639 15.3378C44.639 15.3378 44.699 15.5693 44.7793 16.1027C44.7842 16.1279 44.7869 16.1555 44.7894 16.1832C44.7918 16.2109 44.7945 16.2386 44.7994 16.2637C44.8035 16.3087 44.8091 16.3571 44.8152 16.408C44.8243 16.4825 44.8338 16.5625 44.8396 16.6461C44.8472 16.8123 44.8604 16.984 44.8748 17.1742L44.8897 17.3708L44.8982 17.5314C44.9053 17.6668 44.9126 17.8029 44.92 17.9545C44.97 18.8904 44.97 20.1082 44.8997 21.648C44.8907 21.955 44.8736 22.2699 44.8558 22.6003L44.8497 22.7148C44.8296 22.9061 44.8196 23.0872 44.8094 23.2885C44.7967 23.4552 44.782 23.6237 44.7671 23.7956C44.7471 24.0284 44.7264 24.2673 44.709 24.5163C44.6983 24.6231 44.6849 24.7271 44.6717 24.8297C44.66 24.9205 44.6482 25.0103 44.639 25.1C44.6336 25.149 44.625 25.1951 44.617 25.2399C44.6099 25.2778 44.6033 25.3147 44.5987 25.3516L44.5933 25.3958C44.5848 25.4673 44.5752 25.5488 44.5586 25.6234C44.5286 25.7341 44.5083 25.8347 44.4883 25.9454C44.4834 25.9656 44.4783 25.9907 44.4732 26.0159C44.4683 26.0411 44.4634 26.0662 44.4583 26.0864C44.4444 26.1769 44.4209 26.2626 44.3978 26.3469C44.3875 26.3843 44.3772 26.4215 44.368 26.4587C43.7559 28.7231 42.6421 29.9107 42.6421 29.9107C42.6421 29.9107 42.5418 35.8284 42.6219 36.2814C42.6922 36.7343 41.7388 36.9255 41.7388 36.9255C41.7388 36.9255 36.3304 36.9255 35.8787 36.8449C35.4273 36.7644 35.2767 36.392 35.2767 36.392V29.9107H13.6324V36.392C13.6324 36.392 13.482 36.7644 13.0303 36.8449C12.5789 36.9255 7.17021 36.9255 7.17021 36.9255C7.17021 36.9255 6.20683 36.7343 6.28715 36.2814C6.35747 35.8284 6.26713 29.9107 6.26713 29.9107C6.26713 29.9107 4.50102 28.0287 4.18999 24.5163C3.59795 17.7331 4.28032 15.3378 4.28032 15.3378C4.28032 15.3378 1.19975 15.4686 0.698043 15.2875C0.286666 15.1365 0.0356896 14.3213 0.0356896 13.949C0.0356896 13.8552 0.0305627 13.6703 0.024215 13.4401C0.00541619 12.7558 -0.024369 11.6713 0.0356896 11.3926C0.116012 11.0203 1.39043 10.3359 1.39043 10.3359H5.74541C5.74541 10.3359 8.23393 3.93512 9.42802 2.57642C10.0701 1.84174 12.2779 0.835327 13.783 0.533386C15.2881 0.231506 24.4595 0 24.4595 0C24.4595 0 33.6311 0.231506 35.1363 0.533386C36.6314 0.845398 38.8089 1.89209 39.4913 2.57642C40.8457 3.93512 43.1739 10.3359 43.1739 10.3359H47.5289ZM8.25395 11.4932C8.25395 11.4932 7.84257 13.6168 7.9229 13.8281H40.8257C40.9061 13.6168 40.4444 11.4932 40.4444 11.4932C40.4444 11.4932 38.3875 5.8573 37.2835 4.82068C36.6714 4.24701 34.8252 3.33118 33.5308 3.06952C32.2264 2.81793 24.3492 2.61664 24.3492 2.61664C24.3492 2.61664 16.4622 2.80786 15.1678 3.06952C13.8631 3.33118 12.0569 4.27722 11.4148 4.82068C10.5718 5.52521 8.25395 11.4932 8.25395 11.4932Z" transform="translate(25.7349 41.2785)" fill="#DA6F25"/>
</svg>
