<svg width="100" height="100" viewBox="0 0 100 100" fill="none" xmlns="http://www.w3.org/2000/svg">
<path fill-rule="evenodd" clip-rule="evenodd" d="M39.2114 8.52435C39.4521 8.52435 40.2648 9.08795 40.3252 9.39996C40.3657 9.60358 40.3515 10.3519 40.341 10.904C40.3361 11.1706 40.332 11.3915 40.3352 11.4832C40.3352 11.7852 40.1345 12.4595 39.7932 12.5802C39.3718 12.7312 36.8332 12.6306 36.8332 12.6306C36.8332 12.6306 36.8933 12.8218 36.9536 13.2545C36.9585 13.2797 36.9611 13.3023 36.9636 13.325C36.966 13.3476 36.9687 13.3702 36.9736 13.3954C36.9775 13.4303 36.9829 13.4682 36.9885 13.5085C36.9975 13.5728 37.0075 13.6432 37.0136 13.7175C37.021 13.8456 37.0329 13.9787 37.0466 14.1275L37.0639 14.3213C37.0739 14.4723 37.0839 14.6333 37.094 14.8044C37.1242 15.5793 37.1242 16.5757 37.0739 17.8538C37.0651 18.1012 37.0485 18.3563 37.0312 18.626L37.0239 18.7395C37.0036 18.8904 36.9936 19.0515 36.9836 19.2125C36.9668 19.3882 36.9528 19.5734 36.9387 19.7646C36.9277 19.913 36.9165 20.065 36.9033 20.2189C36.9033 20.3477 36.884 20.4829 36.8662 20.6092L36.8532 20.702C36.8474 20.7433 36.8381 20.7881 36.8293 20.8303C36.8232 20.86 36.8171 20.8884 36.8129 20.9133C36.8029 20.9938 36.7929 21.0744 36.7729 21.1448C36.7644 21.2225 36.7485 21.2928 36.7312 21.3683L36.7226 21.4065L36.6926 21.5273C36.6726 21.6379 36.6525 21.7386 36.6223 21.8392C36.1106 23.7011 35.1975 24.6874 35.1975 24.6874C35.1975 24.6874 35.1171 29.5786 35.1774 29.951C35.2478 30.3234 34.455 30.4743 34.455 30.4743C34.455 30.4743 29.9897 30.4743 29.6184 30.4139C29.247 30.3535 29.1167 30.0416 29.1167 30.0416V24.6874H11.2553V30.0416C11.2553 30.0416 11.1247 30.3535 10.7536 30.4139C10.3823 30.4743 5.91695 30.4743 5.91695 30.4743C5.91695 30.4743 5.13423 30.3234 5.19454 29.951C5.24459 29.5786 5.17427 24.6874 5.17427 24.6874C5.17427 24.6874 3.70943 23.1375 3.45845 20.2391C2.96675 14.6333 3.52877 12.6607 3.52877 12.6607C3.52877 12.6607 0.989947 12.7513 0.56856 12.6104C0.237505 12.4997 0.026812 11.8254 0.026812 11.5134C0.026812 11.4345 0.0229057 11.2803 0.0182671 11.0889C0.00410691 10.5234 -0.018354 9.633 0.026812 9.39996C0.0868706 9.08795 1.14058 8.52435 1.14058 8.52435H4.73287C4.73287 8.52435 6.77999 3.23059 7.77339 2.11346C8.29512 1.51971 10.1213 0.674316 11.3657 0.432739C12.6098 0.191223 20.176 0 20.176 0C20.176 0 27.7419 0.191223 28.9863 0.432739C30.2204 0.684387 32.0166 1.54987 32.5786 2.11346C33.6923 3.24066 35.6189 8.52435 35.6189 8.52435H39.2114ZM6.78023 9.47064C6.78023 9.47064 6.44893 11.2319 6.50923 11.403H33.6525C33.7126 11.2319 33.3313 9.47064 33.3313 9.47064C33.3313 9.47064 31.6254 4.82098 30.7224 3.96552C30.2307 3.49249 28.7055 2.73773 27.6318 2.5163C26.5581 2.30493 20.0559 2.14392 20.0559 2.14392C20.0559 2.14392 13.5534 2.29486 12.4797 2.5163C11.416 2.73773 9.91085 3.52271 9.38912 3.96552C8.69673 4.54926 6.78023 9.47064 6.78023 9.47064Z" transform="translate(23.0632 22.0903)" fill="#DA6F25"/>
<path fill-rule="evenodd" clip-rule="evenodd" d="M43.5093 32.7991H35.4316V0H43.5093V32.7991ZM34.0769 43.0546C34.0769 41.6255 34.5986 40.3674 35.6624 39.351C36.7061 38.3244 37.9802 37.8011 39.4753 37.8011C40.9004 37.8011 42.1748 38.3043 43.2383 39.2805C44.302 40.2769 44.844 41.4846 44.844 42.9238C44.844 44.3629 44.322 45.6109 43.2585 46.6274C42.1948 47.674 40.9404 48.1772 39.4453 48.1772C38.7229 48.1772 38.0405 48.0364 37.3782 47.7646C36.7161 47.4929 36.1541 47.1306 35.6523 46.6978C35.1506 46.2449 34.7693 45.7216 34.4683 45.0875C34.2375 44.4636 34.0769 43.7792 34.0769 43.0546ZM11.9612 48.1672L23.9121 39.9951L20.7312 40.136L18.042 22.0406H5.87012L3.18091 40.136L0 39.9951L11.9612 48.1672Z" transform="translate(31.2783 30.7054)" fill="#DA6F25"/>
</svg>
