<svg width="100" height="100" viewBox="0 0 100 100" fill="none" xmlns="http://www.w3.org/2000/svg">
<path fill-rule="evenodd" clip-rule="evenodd" d="M7.2749 43.0948L0 43.1451L14.4497 0.050293L16.0251 0L7.2749 43.0948ZM34.7893 43.0948L42.0645 43.1451L27.6248 0.050293L26.0293 0L34.7893 43.0948ZM20.5203 7.80975H21.9954L22.5771 20.8428H20.0486L20.5203 7.80975ZM21.6746 0H20.7715L20.5408 6.42096H21.9656L21.6746 0ZM23.4705 43.145H19.3262L20.0085 23.1375H22.6174L23.4705 43.145Z" transform="translate(37.4663 38.853)" fill="#DA6F25"/>
<path d="M8.71994 22.2318C8.71994 11.5939 17.3295 2.95887 27.9359 2.95887C28.4878 2.95887 29.0197 2.979 29.5615 3.02932C26.5712 1.10706 23.019 0 19.216 0C8.60957 0 0 8.63506 0 19.2729C0 29.3673 7.73657 37.6501 17.5904 38.4753C12.2621 35.0535 8.71994 29.0553 8.71994 22.2318V22.2318Z" transform="translate(21 18.0602)" fill="#DA6F25"/>
</svg>
