<svg width="100" height="100" viewBox="0 0 100 100" fill="none" xmlns="http://www.w3.org/2000/svg">
<path d="M1.02351 10.0944L0 8.88666C6.78329 3.06957 14.55 0 22.4672 0C30.3843 0 38.161 3.06957 44.9343 8.88666L43.9108 10.0944C37.4185 4.52888 30.003 1.58008 22.4672 1.58008C14.9212 1.6002 7.49574 4.53894 1.02351 10.0944V10.0944Z" transform="translate(27.0505 38.5612)" fill="#DA6F25"/>
<path fill-rule="evenodd" clip-rule="evenodd" d="M17.4097 1.59015C23.1594 1.59015 28.8391 3.83447 33.7961 8.10168L34.8196 6.89398C29.5715 2.37512 23.5608 0 17.4097 0C11.2788 0 5.24805 2.39526 0 6.89398L1.02344 8.10168C5.99048 3.84454 11.6399 1.59015 17.4097 1.59015ZM17.4099 11.6342C21.8052 11.6342 26.1199 13.345 29.9128 16.5958L30.9365 15.3881C26.8625 11.8958 22.1863 10.044 17.4099 10.044C12.6335 10.044 7.95752 11.8857 3.88354 15.3881L4.90698 16.5958C8.68994 13.345 13.0149 11.6342 17.4099 11.6342Z" transform="translate(32.0981 46.9749)" fill="#DA6F25"/>
<path fill-rule="evenodd" clip-rule="evenodd" d="M0 25.1805L14.0583 0L29.2305 25.1805H0ZM26.9727 23.9024L14.1284 2.57642L2.19751 23.9024H26.9727Z" transform="translate(34.8972 7.03015)" fill="#DA6F25"/>
<path fill-rule="evenodd" clip-rule="evenodd" d="M2.8999 0H0.431396V10.034H2.8999V0ZM1.66577 11.5536C2.10718 11.5536 2.48853 11.7146 2.81958 12.0165C3.15088 12.3185 3.32129 12.6808 3.31128 13.1236C3.31128 13.5664 3.13086 13.9489 2.81958 14.2609C2.47852 14.5728 2.10718 14.7339 1.64575 14.7339C1.4248 14.7339 1.21411 14.6835 1.01343 14.603C0.822754 14.5225 0.652344 14.4118 0.491699 14.2709C0.331055 14.1401 0.220703 13.969 0.130371 13.7778C0.050293 13.5966 0 13.3853 0 13.1639C0 12.721 0.180664 12.3386 0.491699 12.0266C0.832764 11.7146 1.2041 11.5536 1.66577 11.5536Z" transform="translate(47.4207 15.2024)" fill="#DA6F25"/>
<path fill-rule="evenodd" clip-rule="evenodd" d="M28.548 21.5273C29.0095 21.7084 29.3908 22.0204 29.6718 22.272C30.2739 22.8155 30.3542 24.0533 29.5915 24.2949C29.3005 24.2949 28.9394 24.1439 28.558 23.9326L28.5881 29.6088H26.4206L26.6213 20.2491C26.6213 20.2491 25.2868 23.4495 24.3837 29.6088H6.0307C5.18817 23.9257 3.98676 20.7617 3.8139 20.3064L3.80878 20.2932L3.80438 20.2814C3.79633 20.2599 3.79218 20.2491 3.79291 20.2491L3.99359 29.6088H1.80609L1.83636 24.4358C1.36469 24.7377 0.893005 24.9491 0.551941 24.9491C-0.210754 24.6774 -0.130432 23.4395 0.471619 22.896C0.792664 22.6041 1.28436 22.2116 1.84637 22.0607L1.86591 19.902C1.88666 17.546 1.9057 15.3952 1.93671 13.5967V13.335C1.94672 13.1539 1.94672 12.9626 1.94672 12.7714C1.94672 12.677 1.94891 12.5825 1.95135 12.4891L1.95184 12.4669V12.4634V12.46C1.95428 12.3644 1.95673 12.2698 1.95673 12.1777C1.96674 12.0166 1.96674 11.8657 1.96674 11.7147V11.5536C1.96674 11.4383 1.96893 11.3249 1.97089 11.2134L1.97137 11.1865L1.97186 11.1612L1.97211 11.1537L1.97284 11.115C1.97479 11.0078 1.97675 10.9024 1.97675 10.7988V10.6479C1.97675 10.4064 1.97675 10.1749 1.98676 9.9635V9.77234C1.99896 9.62225 2.0036 9.47992 2.008 9.34784L2.00824 9.34241L2.00848 9.33679L2.00897 9.31927C2.01117 9.24908 2.01337 9.18195 2.01678 9.11816C2.3078 2.20404 8.12787 0 14.4396 0H15.9448C22.2663 0 28.0764 2.20404 28.3674 9.11816C28.381 9.28448 28.3854 9.46039 28.3901 9.64911C28.392 9.73438 28.3942 9.82233 28.3974 9.91321C28.4074 10.0239 28.4074 10.1547 28.4074 10.2654C28.4074 10.3491 28.4094 10.4329 28.4111 10.5187L28.4113 10.5255L28.412 10.5602C28.4147 10.668 28.4174 10.7797 28.4174 10.8995C28.4174 10.9644 28.4194 11.0349 28.4213 11.1069L28.4221 11.1341L28.4223 11.1382C28.425 11.2239 28.4277 11.3109 28.4277 11.3926V11.5839V11.5939C28.4377 11.7348 28.4377 11.8858 28.4377 12.0468C28.4377 12.1276 28.4399 12.215 28.4423 12.3051L28.4426 12.3131L28.4431 12.3313L28.4435 12.3519C28.4455 12.4377 28.4477 12.525 28.4477 12.6104C28.4477 12.7325 28.4501 12.8524 28.4526 12.9733V12.9767V12.9804C28.4553 13.1061 28.4577 13.2331 28.4577 13.3652V13.6168C28.4882 15.3003 28.507 17.2688 28.5275 19.4294L28.528 19.4749L28.548 21.5273ZM3.2912 6.66254C3.7829 6.47131 4.03363 5.99829 4.14423 5.70642C4.16229 5.67035 4.17645 5.62689 4.19159 5.58069L4.19354 5.57489C4.20306 5.54565 4.21307 5.51532 4.2243 5.48499C4.42499 4.98181 4.72601 4.539 5.12762 4.14648C6.22137 3.06958 8.00751 2.34497 9.914 1.89209L9.33197 1.43921C7.43549 1.93237 5.68939 2.65698 4.5556 3.68353C3.7829 4.388 3.30121 5.2334 3.30121 6.22974C3.30121 6.38074 3.30121 6.53168 3.2912 6.66254ZM23.3903 28.3608C21.4435 26.9116 16.6772 26.7908 15.1921 26.7908C13.707 26.7908 8.97064 26.9116 7.0141 28.3407C6.48212 24.7982 5.66937 21.8694 4.56561 20.3196C6.21136 18.7797 12.1215 17.4312 15.2021 17.4312C18.2827 17.4312 24.183 18.7697 25.8386 20.3196C24.7348 21.8694 23.9221 24.8082 23.3903 28.3608ZM26.2302 5.74664C26.3405 6.01837 26.5915 6.50146 27.0832 6.7027V6.24982C27.0832 5.25348 26.6115 4.40808 25.8288 3.70361C24.715 2.68713 22.9489 1.95245 21.0524 1.45929L20.4704 1.91217C22.3769 2.35498 24.163 3.08966 25.2468 4.19672C25.6481 4.5993 25.9592 5.04211 26.1498 5.53528C26.1703 5.57623 26.1862 5.62177 26.2036 5.672C26.2119 5.69586 26.2204 5.7207 26.2302 5.74664Z" transform="translate(34.4458 62.9166)" fill="#DA6F25"/>
</svg>
