<svg width="100" height="100" viewBox="0 0 100 100" fill="none" xmlns="http://www.w3.org/2000/svg">
<path fill-rule="evenodd" clip-rule="evenodd" d="M14.9912 0L12.0413 0.654175C12.844 4.72009 12.6233 8.94702 11.3989 12.8721C10.1748 16.7971 8.01733 20.2894 5.12744 22.9664L7.09424 25.4623C10.3955 22.4129 12.874 18.4174 14.2588 13.9389C15.6636 9.46033 15.9146 4.63959 14.9912 0ZM22.0554 1.18756L19.1055 1.84174C20.0286 6.54169 19.7776 11.4128 18.3728 15.9517C16.968 20.4907 14.4595 24.5163 11.1179 27.6161L13.0847 30.112C16.8376 26.6398 19.6472 22.121 21.2227 17.0286C22.7981 11.9361 23.0891 6.46118 22.0554 1.18756ZM5.21802 0.774536L8.16797 0.120361C8.90063 3.76361 8.69995 7.53766 7.58594 11.0601C6.49219 14.5725 4.54565 17.7025 1.9668 20.0977L0 17.6018C2.1875 15.5789 3.81299 12.9522 4.73633 9.98328C5.65942 7.02441 5.82007 3.84412 5.21802 0.774536Z" transform="translate(40.8689 35.6716)" fill="#DA6F25"/>
<path fill-rule="evenodd" clip-rule="evenodd" d="M14.1987 0C18.323 0 21.5139 1.24799 23.6411 3.69354C25.6079 5.95801 26.6113 9.12823 26.6113 13.1337C26.6113 17.1494 25.4272 20.4907 23.1897 22.8155C20.9119 25.1906 17.5403 26.4487 13.4663 26.4487H7.62622V44.6245H0V0H14.1987ZM16.989 18.9005C18.3137 17.6525 18.9861 15.7605 18.9861 13.2545C18.9861 8.18219 16.7783 5.9278 11.7913 5.9278H7.61694V20.5309H12.293C14.2297 20.5309 15.8552 19.9673 16.989 18.9005ZM70.6633 46.8487C70.6633 45.7819 69.8005 44.9063 68.7268 44.9063H46.5708C45.5071 44.9063 44.634 45.7819 44.634 46.8487C44.634 47.9155 45.5071 48.7911 46.5708 48.7911H68.7268C69.7905 48.7911 70.6633 47.9155 70.6633 46.8487ZM57.6487 7.24615L67.7834 42.3802H47.5139L47.6243 42.0179L57.6487 7.24615Z" transform="translate(15.0291 26)" fill="#DA6F25"/>
</svg>
