<svg width="100" height="100" viewBox="0 0 100 100" fill="none" xmlns="http://www.w3.org/2000/svg">
<path fill-rule="evenodd" clip-rule="evenodd" d="M36.7761 8.51428C35.8831 9.40997 34.6489 9.97357 33.2742 9.97357C31.9197 9.97357 30.6753 9.42004 29.7622 8.51428C28.8591 7.61859 28.2971 6.36053 28.2971 4.98175C28.2971 4.74457 28.3354 4.49976 28.3718 4.26733L28.3875 4.16656C28.7788 1.81152 30.8157 0 33.2742 0C35.7427 0 37.7695 1.81152 38.1609 4.16656C38.2112 4.42822 38.2412 4.71002 38.2412 4.98175C38.2412 6.36053 37.6794 7.60852 36.7761 8.51428ZM40.6296 10.9498C41.7537 10.9498 42.6567 11.7952 42.7871 12.872C42.7871 12.9287 42.7952 12.9814 42.8032 13.0352L42.8037 13.0381L42.8042 13.0416L42.8057 13.0508C42.8098 13.0779 42.814 13.1053 42.8171 13.1337V28.7332C42.8171 29.337 42.5564 29.8906 42.165 30.283C41.7737 30.6655 41.2317 30.907 40.6396 30.907C40.0476 30.907 39.5059 30.6655 39.1145 30.283C38.7131 29.8906 38.4622 29.337 38.4622 28.7332V15.0861H37.9104V44.2219C37.9104 45.4296 36.937 46.4058 35.7329 46.4058C34.5288 46.4058 33.5554 45.4196 33.5554 44.2219V28.9546H33.0034V44.2219C33.0034 45.4296 32.02 46.4058 30.8259 46.4058C29.6218 46.4058 28.6484 45.4196 28.6484 44.2219V15.0861H28.0967V28.7332C28.0967 29.337 27.8357 29.8906 27.4443 30.283C27.053 30.6655 26.5112 30.907 25.9192 30.907C25.3271 30.907 24.7854 30.6655 24.394 30.283C23.9927 29.8906 23.7417 29.337 23.7417 28.7332V13.1337C23.7417 13.0532 23.7517 12.9626 23.7617 12.872C23.8923 11.7851 24.8054 10.9498 25.9192 10.9498H40.6296ZM14.3494 27.2235C14.249 26.4083 13.5667 25.7844 12.7236 25.7844H1.64575C0.812744 25.7844 0.120361 26.4184 0.0200195 27.2235L0.0166016 27.2471C0.0078125 27.3078 0 27.3624 0 27.4248V39.1697C0 39.6226 0.190674 40.0453 0.491699 40.3372C0.792725 40.629 1.19409 40.8102 1.64575 40.8102C2.09717 40.8102 2.49854 40.629 2.79956 40.3372C3.10059 40.0352 3.29126 39.6226 3.29126 39.1697V28.8942H3.70264V50.8341C3.70264 51.7399 4.4353 52.4745 5.33838 52.4745C6.24146 52.4745 6.97388 51.7399 6.97388 50.8341V39.3408H7.38525V50.8341C7.38525 51.7399 8.11792 52.4745 9.021 52.4745C9.92407 52.4745 10.6565 51.7399 10.6565 50.8341V28.8942H11.0681V39.1697C11.0681 39.6226 11.2585 40.0453 11.5598 40.3372C11.8608 40.629 12.2622 40.8102 12.7136 40.8102C13.1653 40.8102 13.5667 40.629 13.8677 40.3372C14.1687 40.0352 14.3594 39.6226 14.3594 39.1697V27.4248C14.3652 27.3829 14.3606 27.3445 14.356 27.3055C14.3525 27.2789 14.3494 27.2521 14.3494 27.2235ZM9.83325 23.9427C9.15112 24.617 8.22778 25.0397 7.19434 25.0397C6.1709 25.0397 5.22754 24.617 4.54517 23.9427C3.86279 23.2684 3.44141 22.3223 3.44141 21.2857C3.44141 21.1146 3.46777 20.95 3.49365 20.7866L3.51172 20.6718C3.81274 18.8904 5.33789 17.5318 7.19434 17.5318C9.06079 17.5318 10.5759 18.9005 10.877 20.6718C10.917 20.8731 10.9373 21.0744 10.9373 21.2857C10.9373 22.3223 10.5156 23.2583 9.83325 23.9427Z" transform="translate(28.9541 23.5344)" fill="#DA6F25"/>
<path fill-rule="evenodd" clip-rule="evenodd" d="M0 70.4794H34.8696V63.8471H61.4812V0H26.6113V15.4686H0V70.4794ZM31.408 67.0079H3.46191V18.9414H30.0732V3.47278H58.0193V60.3756H31.408V67.0079Z" transform="translate(19.0393 15.0295)" fill="#DA6F25"/>
</svg>
