<svg width="100" height="100" viewBox="0 0 100 100" fill="none" xmlns="http://www.w3.org/2000/svg">
<path d="M22.718 4.11625C22.718 4.94151 21.9253 5.61581 20.962 5.61581H1.75603C0.792722 5.61581 0 4.94151 0 4.11625V1.49956C0 0.6743 0.792722 0 1.75603 0H20.962C21.9253 0 22.718 0.6743 22.718 1.49956V4.11625V4.11625Z" transform="translate(38.4333 19.0302)" fill="#DA6F25"/>
<path fill-rule="evenodd" clip-rule="evenodd" d="M24.9658 5.00189V6.75305H27.1633V8.08154C26.8823 8.32306 26.5312 8.52435 26.1199 8.70551C25.7285 8.86655 25.3271 8.95712 24.9158 8.95712C24.1028 8.95712 23.4407 8.64511 22.939 8.03122C22.4272 7.4173 22.1763 6.49139 22.1763 5.25351C22.1763 4.10617 22.4272 3.25073 22.9189 2.66699C23.4104 2.07321 24.0828 1.79141 24.9258 1.79141C25.4775 1.79141 25.9392 1.93231 26.3105 2.23425C26.6919 2.52609 26.9426 2.93875 27.073 3.44196L28.9897 3.05951C28.8091 2.10342 28.3777 1.35867 27.7053 0.815186C27.033 0.271729 26.1099 0 24.9258 0C24.0127 0 23.25 0.171082 22.6379 0.513245C21.8352 0.966156 21.2332 1.62033 20.8115 2.45566C20.4001 3.29099 20.1895 4.26721 20.1895 5.34409C20.1895 6.34042 20.3801 7.26633 20.7515 8.11172C21.1226 8.95712 21.6746 9.62134 22.417 10.0742C23.1697 10.5271 24.0327 10.7586 25.0361 10.7586C25.8289 10.7586 26.5916 10.5976 27.364 10.2755C28.1267 9.95346 28.7087 9.58109 29.1201 9.14835V5.00189H24.9658ZM1.99707 10.5774V0.171082H9.07129V1.93231H3.91357V4.237H8.71021V5.98816H3.91357V8.82626H9.24194V10.5774H1.99707ZM10.9175 10.5774V0.171082H12.7939L16.6973 7.11536V0.171082H18.4934V10.5774H16.5569L12.7136 3.79419V10.5774H10.9175ZM30.8362 10.5774V0.171082H32.7627V10.5774H30.8362ZM34.6089 0.171082V10.5774H36.405V3.79419L40.2483 10.5774H42.1848V0.171082H40.3887V7.11536L36.4854 0.171082H34.6089ZM44.2119 10.5774V0.171082H51.2861V1.93231H46.1284V4.237H50.925V5.98816H46.1284V8.82626H51.4568V10.5774H44.2119ZM2.33813 23.5904L0 23.8219C0.160645 25.1705 0.64209 26.1769 1.4248 26.8914C2.22754 27.5859 3.3916 27.9381 4.89673 27.9381C5.93042 27.9381 6.80347 27.7771 7.49585 27.4953C8.19824 27.2034 8.72998 26.7505 9.11133 26.1568C9.49268 25.563 9.68335 24.9088 9.68335 24.2245C9.68335 23.4696 9.53271 22.8356 9.21167 22.3223C8.90063 21.8191 8.45898 21.4165 7.89722 21.1146C7.33521 20.8228 6.46216 20.5309 5.28809 20.2592C4.11401 19.9673 3.38159 19.7056 3.07056 19.454C2.82983 19.2628 2.70923 19.0112 2.70923 18.7294C2.70923 18.4275 2.83984 18.1859 3.09058 17.9947C3.48193 17.7029 4.03394 17.562 4.73633 17.562C5.4187 17.562 5.92041 17.7129 6.26147 17.9746C6.59253 18.2363 6.82349 18.6791 6.92383 19.293L9.33203 19.1823C9.29199 18.0853 8.90063 17.2097 8.13794 16.5455C7.38525 15.8813 6.25146 15.5491 4.75635 15.5491C3.83325 15.5491 3.06055 15.7001 2.4082 15.9718C1.7561 16.2436 1.25439 16.6461 0.913086 17.1795C0.582031 17.7129 0.401367 18.2866 0.401367 18.8904C0.401367 19.8365 0.772705 20.6416 1.50513 21.3058C2.02686 21.7688 2.93018 22.1613 4.22461 22.4833C5.23804 22.7249 5.88013 22.896 6.16113 22.9966C6.58252 23.1375 6.87354 23.3086 7.03418 23.5099C7.19482 23.7011 7.28491 23.9527 7.28491 24.2345C7.28491 24.6773 7.08423 25.0598 6.69287 25.3919C6.30176 25.724 5.71973 25.885 4.93701 25.885C4.20435 25.885 3.62256 25.7039 3.19092 25.3315C2.76953 24.9591 2.47852 24.3855 2.33813 23.5904ZM14.4297 27.7268V17.7733H10.8875V15.7404H20.3701V17.7733H16.8279V27.7268H14.4297ZM28.8291 27.7268H31.4583L26.6619 15.7504H24.113L19.467 27.7268H22.0259L23.0193 24.9994H27.7856L28.8291 27.7268ZM27.0327 22.9866L25.387 18.5483L23.7715 22.9866H27.0327ZM32.7524 15.7504V27.7167H35.1707V22.7249H35.6523C36.1943 22.7249 36.6057 22.7652 36.8564 22.8557C37.1074 22.9362 37.3481 23.1073 37.5791 23.3489C37.8098 23.5904 38.2412 24.1842 38.8533 25.1101L40.5994 27.7167H43.4792L42.0142 25.3818C41.4321 24.4559 40.9807 23.8018 40.6394 23.4395C40.3083 23.0771 39.8669 22.745 39.3552 22.433C40.3987 22.2821 41.1814 21.9097 41.7131 21.326C42.2451 20.7422 42.5059 20.0076 42.5059 19.1018C42.5059 18.3973 42.3455 17.7733 41.9941 17.2198C41.6531 16.6663 41.1914 16.2939 40.6094 16.0725C40.0273 15.8611 39.1042 15.7504 37.8298 15.7504H32.7524ZM35.1606 20.8127H36.9368C38.0908 20.8127 38.8132 20.7724 39.1042 20.6718C39.3853 20.5712 39.616 20.4101 39.7866 20.1686C39.957 19.9271 40.0273 19.6251 40.0273 19.2628C40.0273 18.8502 39.917 18.5382 39.7063 18.2866C39.4856 18.045 39.1946 17.874 38.7932 17.8136C38.5925 17.7935 38.0105 17.7733 37.0371 17.7733H35.1606V20.8127ZM47.4731 17.7733V27.7268H49.8813V17.7733H53.4136V15.7404H43.9309V17.7733H47.4731ZM4.77637 40.9612L7.1145 40.7297C7.25488 41.5248 7.5459 42.0984 7.96729 42.4708C8.39893 42.8432 8.98071 43.0244 9.71338 43.0244C10.4961 43.0244 11.0781 42.8633 11.4692 42.5312C11.8606 42.1991 12.0613 41.8167 12.0613 41.3738C12.0613 41.092 11.9712 40.8404 11.8105 40.6492C11.6499 40.458 11.3589 40.2768 10.9375 40.1359C10.6565 40.0353 10.0144 39.8642 9.00098 39.6227C7.70654 39.3006 6.80322 38.9081 6.28149 38.4452C5.54907 37.7809 5.17773 36.9758 5.17773 36.0298C5.17773 35.4259 5.3584 34.8522 5.68945 34.3188C6.03076 33.7854 6.53247 33.3829 7.18457 33.1111C7.83691 32.8394 8.60962 32.6884 9.53271 32.6884C11.0278 32.6884 12.1616 33.0206 12.9143 33.6848C13.667 34.349 14.0684 35.2246 14.1084 36.3216L11.7002 36.4323C11.5999 35.8184 11.3689 35.3756 11.0378 35.1139C10.6968 34.8522 10.1951 34.7013 9.5127 34.7013C8.8103 34.7013 8.2583 34.8422 7.86694 35.134C7.61621 35.3253 7.4856 35.5668 7.4856 35.8687C7.4856 36.1505 7.6062 36.4021 7.84692 36.5934C8.15796 36.8449 8.89038 37.1066 10.0645 37.3985C11.2385 37.6803 12.1116 37.9621 12.6736 38.2539C13.2354 38.5558 13.677 38.9584 13.988 39.4616C14.3091 39.9749 14.4597 40.6089 14.4597 41.3638C14.4597 42.0481 14.269 42.7023 13.8877 43.2961C13.5063 43.8899 12.9746 44.3427 12.2722 44.6346C11.5798 44.9164 10.7068 45.0775 9.6731 45.0775C8.16797 45.0775 7.00391 44.7252 6.20117 44.0308C5.40845 43.3263 4.94702 42.3098 4.77637 40.9612ZM19.2063 34.9126V44.8661H21.6045V34.9126H25.1467V32.8797H15.6641V34.9126H19.2063ZM25.9187 38.9484C25.9187 37.7205 26.1094 36.704 26.4707 35.8687C26.7415 35.2649 27.1128 34.7113 27.5845 34.2283C28.0562 33.7452 28.5779 33.3829 29.1196 33.1514C29.8623 32.8293 30.7251 32.6784 31.6885 32.6784C33.4446 32.6784 34.8494 33.2319 35.9131 34.3188C36.9666 35.4058 37.4985 36.9355 37.4985 38.8779C37.4985 40.8102 36.9666 42.3299 35.9231 43.4168C34.8794 44.5038 33.4746 45.0573 31.7288 45.0573C29.9526 45.0573 28.5376 44.5139 27.4941 43.4269C26.4404 42.35 25.9187 40.8505 25.9187 38.9484ZM29.3206 41.9575C28.6985 41.2531 28.3875 40.2265 28.3875 38.8678C28.3875 37.489 28.6985 36.4524 29.2805 35.7781C29.8926 35.0938 30.6953 34.7516 31.6887 34.7516C32.6821 34.7516 33.4749 35.0938 34.0769 35.7681C34.679 36.4524 34.98 37.479 34.98 38.8477C34.98 40.2366 34.6689 41.2732 34.0569 41.9676C33.4448 42.662 32.6521 43.0042 31.6987 43.0042C30.7356 43.0042 29.9429 42.652 29.3206 41.9575ZM39.3755 32.8897H43.2488C44.7139 32.8897 45.667 32.94 46.1187 33.0709C46.801 33.252 47.373 33.6445 47.8345 34.2383C48.2961 34.8422 48.5269 35.6171 48.5269 36.5732C48.5269 37.3079 48.3965 37.9319 48.1355 38.425C47.8748 38.9182 47.5334 39.3207 47.1221 39.6025C46.7107 39.8843 46.2993 40.0755 45.8677 40.1762C45.2959 40.2869 44.4629 40.3573 43.3691 40.3573H41.7837V44.8761L39.3755 44.8661V32.8897ZM41.7834 38.3043V34.9126H42.9475C43.8103 34.9126 44.4023 34.9428 44.6833 34.9931C45.0647 35.0636 45.3958 35.2448 45.6467 35.5266C45.8975 35.8083 46.0281 36.1606 46.0281 36.6034C46.0281 36.9557 45.9478 37.2676 45.7571 37.5293C45.5664 37.791 45.3157 37.9923 44.9944 38.113C44.6833 38.2338 44.0413 38.3043 43.0979 38.3043H41.7834Z" transform="translate(23.0806 36.0991)" fill="#DA6F25"/>
</svg>
