<svg width="100" height="100" viewBox="0 0 100 100" fill="none" xmlns="http://www.w3.org/2000/svg">
<path fill-rule="evenodd" clip-rule="evenodd" d="M0 39.9145L22.2866 0L46.3491 39.9145H0ZM42.7568 37.9218L22.3767 4.10614L3.49194 37.9218H42.7568Z" transform="translate(43.3105 15.9013)" fill="#DA6F25"/>
<path fill-rule="evenodd" clip-rule="evenodd" d="M0.662109 15.8914H4.57544V0H0.662109V15.8914ZM0.772705 19.0615C0.250977 19.5648 0 20.1686 0 20.863C0 21.2153 0.0803223 21.5474 0.200684 21.8392C0.341064 22.1512 0.531738 22.4028 0.772705 22.6243C1.01343 22.8255 1.28442 23.0067 1.60547 23.1375C1.92651 23.2684 2.25781 23.3388 2.60889 23.3388C3.33154 23.3388 3.9436 23.0972 4.45532 22.5941C4.97705 22.0908 5.22803 21.487 5.22803 20.7925C5.22803 20.0981 4.95703 19.5144 4.44531 19.0313C3.92358 18.5583 3.31128 18.3168 2.6189 18.3168C1.89648 18.3168 1.27441 18.5684 0.772705 19.0615Z" transform="translate(63.1992 28.874)" fill="#DA6F25"/>
<path fill-rule="evenodd" clip-rule="evenodd" d="M25.9202 19.4742C25.6795 19.2527 25.3384 18.981 24.9471 18.82C24.9268 16.2033 24.9068 13.8383 24.8667 11.9059V11.6845C24.8667 11.5674 24.8643 11.4556 24.8616 11.345V11.3414V11.3383V11.3351V11.3319V11.3287V11.3256V11.3224V11.3192V11.316V11.3129V11.3097V11.3065V11.3033C24.8592 11.2088 24.8567 11.1154 24.8567 11.0203C24.8567 10.9446 24.8545 10.8645 24.8521 10.7852L24.8516 10.7659L24.8514 10.7617L24.8506 10.7345L24.8504 10.7296L24.8496 10.7014V10.6965L24.8494 10.6915L24.8487 10.6629V10.6588V10.6548V10.6511V10.6473V10.6436V10.6399C24.8477 10.601 24.8467 10.5631 24.8467 10.5271C24.8467 10.3862 24.8467 10.2554 24.8365 10.1346V10.1246V9.9635C24.8365 9.89703 24.8343 9.82605 24.8318 9.75586L24.8313 9.73926L24.8311 9.73486L24.8304 9.71039L24.8301 9.70532L24.8294 9.68011L24.8291 9.67511L24.8284 9.64941V9.64526V9.6413V9.63751V9.63397V9.63043V9.62689V9.62372C24.8274 9.59149 24.8265 9.5603 24.8265 9.53076L24.8252 9.40552L24.8247 9.37866L24.8243 9.3537L24.8238 9.33069L24.8233 9.30945L24.8228 9.28998L24.8223 9.27197L24.8218 9.25519L24.8213 9.23932L24.8211 9.23291L24.8204 9.20544V9.2016V9.19775V9.19421V9.19086V9.18768V9.18469V9.18207V9.17944V9.17682V9.17419V9.17157C24.8184 9.10663 24.8164 9.0426 24.8164 8.97723C24.8164 8.87659 24.8164 8.76587 24.8064 8.66528C24.8025 8.56561 24.8001 8.46899 24.7979 8.37561L24.7974 8.36047L24.7972 8.34583L24.7969 8.33179L24.7967 8.31805C24.7942 8.19684 24.7915 8.08112 24.7864 7.97083C24.5354 1.93231 19.458 0 13.9292 0H12.6145C7.09574 0 2.0081 1.93231 1.75736 7.97083C1.75199 8.05457 1.74955 8.14923 1.74711 8.25049L1.74686 8.25696L1.74638 8.27405C1.74418 8.36053 1.74174 8.45154 1.73734 8.54449V8.70551C1.72733 8.89673 1.72733 9.08795 1.72733 9.29932V9.43011C1.72733 9.50403 1.72538 9.5791 1.72343 9.65533V9.659V9.66284V9.66687V9.67108V9.67548V9.68005V9.68481V9.68976V9.69489V9.7002V9.70569L1.72269 9.74005L1.72245 9.74719C1.71976 9.86029 1.71708 9.97601 1.71708 10.0944V10.2252C1.71708 10.356 1.71708 10.4869 1.70707 10.6378C1.70707 10.6945 1.70512 10.7535 1.70316 10.8137V10.8174V10.8211V10.8248V10.8286V10.8325V10.8367V10.841L1.70243 10.8665L1.70219 10.8707V10.8746V10.8787V10.8827V10.8867L1.7017 10.9062C1.69926 10.988 1.69706 11.0707 1.69706 11.1511C1.69706 11.3121 1.69706 11.4832 1.68705 11.6442V11.8757C1.66825 13.1314 1.65385 14.5809 1.63822 16.1612L1.63725 16.2518L1.63529 16.4574L1.63505 16.4886L1.63212 16.7791C1.62431 17.5825 1.61601 18.4164 1.60673 19.2729C1.11503 19.4037 0.683632 19.7459 0.412636 19.9975C-0.119102 20.4705 -0.179405 21.5474 0.482949 21.799C0.783974 21.799 1.19535 21.6078 1.60673 21.3461C1.55351 28.9625 1.54081 37.8256 1.53324 43.1289L1.533 43.2578V43.3333V43.4114V43.4926L1.53275 43.5771C1.5308 45.048 1.52909 46.2106 1.52665 46.9493V47.8552C2.14872 48.4388 2.33939 52.0217 2.33939 52.4847C2.33939 55.0107 7.66752 55.8763 12.6246 55.8763H13.9493C18.9063 55.8763 24.2344 54.9907 24.2344 52.4847C24.2344 52.0117 24.4251 48.4388 25.0474 47.8552V47.7545V46.9393C25.0474 43.5074 25.0374 31.0178 24.9671 20.9033C25.2981 21.0945 25.6192 21.2253 25.8702 21.2253C26.5122 21.0341 26.4522 19.9573 25.9202 19.4742ZM18.3841 1.2782C20.0398 1.71094 21.585 2.34497 22.5584 3.24072C23.2408 3.85461 23.6621 4.59937 23.6621 5.4649V5.85742C23.2308 5.67627 23.01 5.26361 22.9197 5.02209C22.8997 4.9516 22.8794 4.89124 22.8494 4.83087C22.6888 4.39807 22.408 4.01562 22.0567 3.66339C21.1136 2.69727 19.5481 2.05316 17.8824 1.67072L18.3841 1.2782ZM20.6429 32.8344L20.6419 32.8545C20.6343 33.0214 20.6267 33.1907 20.6219 33.3627C20.3526 40.713 21.7937 42.8108 22.4148 43.7147C22.5813 43.9568 22.6888 44.1133 22.6888 44.2622L22.9497 31.8833C22.2373 32.1651 21.4847 32.3362 20.6619 32.3664C20.657 32.5201 20.6502 32.6761 20.6429 32.8344ZM22.9698 30.8165C22.4839 31.0845 21.6973 31.2018 21.106 31.29C20.9646 31.311 20.8343 31.3305 20.722 31.3499C21.294 22.4028 23.2505 17.7029 23.2505 17.7029L22.9698 30.8165ZM22.5682 17.7733C21.1133 16.4146 15.9556 15.2472 13.2664 15.2472C10.5769 15.2472 5.40922 16.4247 3.98441 17.7733C4.94779 19.132 5.65018 21.6882 6.12186 24.788C7.82768 23.53 11.972 23.4294 13.2664 23.4294C14.5608 23.4294 18.7351 23.53 20.4309 24.7981C20.8924 21.6983 21.605 19.132 22.5682 17.7733ZM5.91093 33.3627C6.18021 40.7217 4.73856 42.8145 4.11771 43.7161C3.95145 43.9575 3.84403 44.1134 3.84403 44.2622L3.58305 31.8833C4.29545 32.145 5.04813 32.306 5.87089 32.3563C5.89091 32.6783 5.90092 33.0206 5.91093 33.3627ZM3.30863 17.7468C3.2974 17.7176 3.29179 17.7029 3.29227 17.7029L3.57328 30.8165C4.10648 31.0884 4.97367 31.2053 5.61723 31.292L5.82108 31.3197C5.28104 22.8922 3.49809 18.2409 3.30863 17.7468ZM2.87064 5.45477C2.87064 4.57916 3.29203 3.84448 3.9744 3.23059C4.96781 2.33484 6.4932 1.70081 8.14872 1.26807L8.65043 1.66058C6.9849 2.0531 5.41947 2.68713 4.4661 3.63312C4.11503 3.97534 3.85404 4.35779 3.67338 4.8006C3.65336 4.87103 3.63334 4.9314 3.60307 4.99182C3.50272 5.24341 3.28202 5.66614 2.86063 5.82715C2.87064 5.7265 2.87064 5.58557 2.87064 5.45477ZM2.68998 52.082C2.68998 52.4243 2.7703 52.7362 2.95097 52.9979C3.4827 53.8433 4.7974 54.3264 6.50321 54.5981L5.9412 53.793C5.6702 53.7225 5.4495 53.6621 5.28886 53.5816C4.63676 53.2797 4.1851 52.7664 3.85404 52.1425C3.58305 51.6292 3.40238 51.0153 3.27201 50.3611L2.65995 50.6832C2.67997 51.136 2.68998 51.6091 2.68998 52.082ZM13.2664 49.3647C7.73759 49.3647 5.54008 48.1268 5.2891 47.2614C5.90116 45.7618 6.3328 43.3062 6.57352 40.4177C7.28593 41.082 9.69413 41.3033 13.2564 41.3033C16.8589 41.3033 19.2771 41.0618 19.9595 40.3875C20.2002 43.286 20.6319 45.7517 21.2439 47.2513C20.993 48.1369 18.7954 49.3647 13.2664 49.3647ZM23.5918 52.9979C23.7522 52.7262 23.8526 52.4243 23.8526 52.0821C23.8526 51.6091 23.8526 51.1461 23.8829 50.6932L23.2708 50.3712C23.1402 51.0153 22.9595 51.6191 22.6888 52.1525C22.3675 52.7866 21.9161 53.2898 21.2537 53.5917C21.0833 53.6722 20.8623 53.7326 20.6016 53.803L20.0396 54.6082C21.7454 54.3163 23.0498 53.8333 23.5918 52.9979ZM42.9786 52.847C42.7576 53.0885 42.4869 53.4307 42.3262 53.8232C39.7173 53.8433 37.3592 53.8635 35.4327 53.9037H35.2117C35.095 53.9037 34.9834 53.9063 34.8733 53.9089C34.7654 53.9114 34.6587 53.9138 34.5496 53.9138C34.4681 53.9138 34.3811 53.9164 34.2957 53.9189L34.2918 53.9191L34.2871 53.9192L34.2818 53.9194C34.2037 53.9216 34.1275 53.9238 34.0579 53.9238C33.9173 53.9238 33.7869 53.9238 33.6665 53.9339H33.4959C33.4244 53.9339 33.3477 53.9365 33.2723 53.9391L33.2683 53.9392L33.2635 53.9394C33.1939 53.9417 33.1258 53.944 33.0645 53.944C32.9615 53.944 32.8665 53.9466 32.774 53.9492C32.6861 53.9517 32.6004 53.954 32.5125 53.954C32.4121 53.954 32.3018 53.954 32.2015 53.9641C32.094 53.9685 31.99 53.9708 31.8902 53.9731L31.876 53.9734L31.8614 53.9738L31.8553 53.9739C31.7344 53.9765 31.6189 53.979 31.5091 53.9843C25.4883 54.2358 23.5618 59.3283 23.5618 64.8737V66.1921C23.5618 71.7274 25.4883 76.8299 31.5091 77.0815C31.594 77.0869 31.6905 77.0894 31.7935 77.092L31.7957 77.092L31.7981 77.0921C31.8882 77.0945 31.9834 77.097 32.0811 77.1016H32.2415C32.4322 77.1117 32.6228 77.1117 32.8335 77.1117H32.9641C33.0672 77.1117 33.1724 77.1141 33.2801 77.1166C33.3929 77.1191 33.5083 77.1218 33.6263 77.1218H33.7569C33.8872 77.1218 34.0176 77.1218 34.1683 77.1318C34.2474 77.1318 34.3313 77.1343 34.4165 77.1368L34.4246 77.137C34.5096 77.1395 34.596 77.1419 34.68 77.1419C34.8406 77.1419 35.011 77.1419 35.1717 77.152H35.4024C36.7476 77.1719 38.316 77.1874 40.0298 77.2044L40.0445 77.2045C40.9212 77.2132 41.8357 77.2223 42.7779 77.2325C42.9082 77.7256 43.2493 78.1584 43.5003 78.4301C43.972 78.9635 45.0457 79.0239 45.2964 78.3597C45.2964 78.0577 45.1058 77.6451 44.845 77.2325C46.3099 77.2426 47.8252 77.2526 49.3504 77.2526V75.3303L41.1924 75.5015C41.1924 75.5023 41.2112 75.4951 41.2488 75.4807C41.6685 75.3205 44.4234 74.2686 49.3504 73.5389V57.4463C43.982 56.6512 41.1924 55.4838 41.1924 55.4838L49.3504 55.6549V53.8031L44.4034 53.8333C44.594 53.5012 44.7244 53.1791 44.7244 52.9275C44.5237 52.2532 43.45 52.3136 42.9786 52.847ZM29.3719 75.9744C29.2112 75.5518 28.7898 75.3303 28.5389 75.2297C28.4788 75.1995 28.4185 75.1794 28.3484 75.1592C27.9068 74.9781 27.5254 74.7164 27.1844 74.3642C26.241 73.4081 25.6089 71.8381 25.2176 70.1674L24.8262 70.6707C25.2576 72.3312 25.8899 73.861 26.783 74.8573C27.3951 75.5417 28.1275 75.9644 29.0005 75.9644C29.1309 75.9644 29.2615 75.9644 29.3719 75.9744ZM48.2766 58.3521C47.0122 60.0529 46.9119 64.2396 46.9119 65.5379C46.9119 66.8362 47.0122 70.9927 48.2666 72.7036C45.1761 73.1766 42.6272 73.8811 41.2725 74.8473C39.928 73.4081 38.7539 68.225 38.7539 65.5178C38.7539 62.8206 39.918 57.6476 41.2725 56.1883C42.6272 57.1746 45.1861 57.8892 48.2766 58.3521ZM28.5689 55.8662C28.8096 55.7756 29.221 55.5542 29.4016 55.1215H29.0103C28.1473 55.1215 27.4048 55.5441 26.7928 56.2285C25.8997 57.2048 25.2674 58.7546 24.836 60.4152L25.2273 60.9184C25.6087 59.2477 26.2508 57.6777 27.2141 56.7318C27.5655 56.3795 27.9466 56.0977 28.3782 55.9366C28.4383 55.9065 28.4986 55.8864 28.5689 55.8662Z" transform="translate(11.0991 11.0403)" fill="#DA6F25"/>
<path fill-rule="evenodd" clip-rule="evenodd" d="M0 9.37982C0 14.5528 4.19434 18.7596 9.35205 18.7596C14.5098 18.7596 18.7043 14.5528 18.7043 9.37982C18.7043 4.20685 14.5098 0 9.35205 0C4.19434 0 0 4.20685 0 9.37982ZM0.912842 9.38989C0.912842 4.72009 4.70581 0.925903 9.35181 0.925903C14.0078 0.925903 17.7908 4.72009 17.7908 9.38989C17.7908 14.0596 14.0078 17.8538 9.35181 17.8538C4.6958 17.8538 0.912842 14.0496 0.912842 9.38989Z" transform="translate(26.8945 55.7051)" fill="#DA6F25"/>
<path fill-rule="evenodd" clip-rule="evenodd" d="M0 6.86377C0 3.07965 3.06055 0 6.84351 0C10.6265 0 13.697 3.07965 13.687 6.86377C13.687 10.6479 10.6265 13.7275 6.84351 13.7275C3.07056 13.7275 0 10.6479 0 6.86377ZM12.6931 6.87384C12.6931 3.64325 10.064 1.00641 6.84302 1.00641C3.62207 1.00641 1.00293 3.62311 0.99292 6.87384C0.99292 10.1044 3.62207 12.7412 6.84302 12.7412C10.064 12.7412 12.6931 10.1044 12.6931 6.87384Z" transform="translate(29.4033 58.2211)" fill="#DA6F25"/>
<path d="M3.82313 7.6689C5.93458 7.6689 7.64626 5.95216 7.64626 3.83445C7.64626 1.71674 5.93458 0 3.82313 0C1.71167 0 0 1.71674 0 3.83445C0 5.95216 1.71167 7.6689 3.82313 7.6689Z" transform="translate(32.4233 61.2505)" fill="#DA6F25"/>
</svg>
