<svg width="100" height="100" viewBox="0 0 100 100" fill="none" xmlns="http://www.w3.org/2000/svg">
<path d="M0.00190002 17.6521C0.00190002 17.8433 -0.0181689 18.105 0.0721412 18.2459C0.162451 18.3868 1.01538 19.0409 2.12921 19.3227C3.233 19.6146 4.41706 19.5643 4.78834 19.7756C5.16965 19.7555 5.58106 19.7756 5.58106 19.7756V19.7655L6.24333 19.2422L6.5544 19.2321C7.1665 21.1745 8.98274 22.5835 11.1201 22.5835C12.4848 22.5835 13.709 22.0199 14.582 21.094C15.174 20.5807 15.6356 19.9266 15.9065 19.1617L15.9667 19.1718L16.9802 19.1416C16.9802 19.4032 16.9702 19.5945 16.9802 19.6448L44.5549 19.2523V19.2422H44.5649V19.1315C44.5649 19.0309 44.575 18.8598 44.585 18.6686L44.6051 18.6786L45.2473 19.0007L45.5182 19.0107C45.7791 19.836 46.2507 20.5506 46.8929 21.1041C47.7659 22.0199 48.9901 22.5936 50.3548 22.5936C52.8032 22.5936 54.8101 20.7518 55.1111 18.3868H55.1412L55.2717 18.0647L56.0142 18.5277V18.588C56.0142 18.588 56.0343 18.588 56.0644 18.5981H56.0845C56.1949 18.6182 56.4156 18.6384 56.5862 18.6384C56.817 18.6384 56.9475 17.793 57.5194 17.6018C57.8205 17.1187 57.991 16.1928 58.0512 15.3172V15.2971C58.1014 14.6429 58.0813 14.0088 57.981 13.6566C57.7402 13.1333 57.118 12.9118 57.0679 12.3483C57.0177 11.7947 56.9675 10.6675 56.8973 10.275C56.8973 10.265 56.8872 10.2549 56.8872 10.2448C56.8973 10.2348 56.9073 10.2146 56.9073 10.2146C56.9073 10.2146 56.7869 9.24849 56.6665 9.03714C56.5461 8.82579 56.235 8.06092 55.7433 7.60803C55.6931 7.56777 55.643 7.53758 55.5928 7.51745C55.4021 7.21552 54.79 6.39026 54.0274 5.9575C53.9773 5.92731 53.9973 5.96757 54.0274 6.02795C53.9873 6.00782 53.9371 5.97763 53.897 5.96757L53.8468 5.91725C53.6662 5.60526 52.2915 4.3573 51.0773 3.38107C50.7863 3.1496 50.5154 2.92819 50.2444 2.74703C49.8631 2.46523 49.5621 2.26395 49.3815 2.21363V2.22369L49.3714 2.21363C49.3714 2.21363 49.2009 2.00228 49.0102 1.98215C49.1707 1.81106 49.5822 1.6601 49.5822 1.3783C49.5822 1.22734 49.0604 1.11664 48.5185 1.03612C48.3479 1.01599 48.1773 0.995866 48.0268 0.975738C47.7258 0.945545 47.4649 0.925417 47.3545 0.925417C47.1639 0.915352 44.9462 0.633556 42.3774 0.40208C41.9158 0.361823 41.4543 0.311502 41.0328 0.271245C38.4841 0.0397695 35.7747 -0.191707 31.3194 0.251117C27.4562 0.633556 26.3524 1.52927 26.3524 1.52927L26.232 1.58965C26.232 1.59972 26.232 1.59972 26.242 1.60978C26.232 1.60978 26.232 1.61984 26.242 1.61984C20.7933 4.32711 17.3816 6.30975 16.8799 6.73244C16.8598 6.74251 16.8297 6.76264 16.8096 6.7727C16.7494 6.78276 16.5186 6.81296 16.4484 6.84315C16.1875 6.88341 15.8262 6.93373 15.3847 7.00418C15.4349 6.98405 15.475 6.98405 15.475 6.98405C14.0903 7.1954 12.856 7.41681 11.7221 7.62816C8.05957 8.32258 3.57417 9.43971 2.33993 10.8487L2.30983 10.8789H2.31986C2.29979 10.899 2.27972 10.9292 2.25965 10.9493C0.423347 13.3748 0.423347 13.8981 0.27283 14.5221C0.132348 15.1461 0.152417 16.4444 0.162451 16.4947C0.18252 16.545 0.353106 16.5651 0.353106 16.5651L0.282865 17.3401C0.252761 17.3099 0.00190002 17.4508 0.00190002 17.6521Z" transform="translate(5.07837 27.0908)" fill="#DA6F25"/>
<path d="M0 6.33036H22.4772V0L33.8061 11.3725L22.4772 22.735V16.4147H0" transform="translate(23.7847 51.2345)" fill="#DA6F25"/>
<path fill-rule="evenodd" clip-rule="evenodd" d="M0 27.1129L15.1421 0L31.468 27.1129H0ZM29.0303 25.7542L15.1926 2.78778L2.36865 25.7542H29.0303Z" transform="translate(63.4607 29.6469)" fill="#DA6F25"/>
<path fill-rule="evenodd" clip-rule="evenodd" d="M3.09082 0H0.44165V10.7988H3.09082V0ZM1.76611 12.4293C2.23779 12.4293 2.65918 12.6003 3.01025 12.9224C3.37158 13.2444 3.54224 13.647 3.53223 14.1301C3.53223 14.6031 3.37158 15.0157 3.02026 15.3479C2.66919 15.68 2.25781 15.8511 1.76611 15.8511C1.52515 15.8511 1.30444 15.7907 1.09375 15.7102C0.883057 15.6196 0.702393 15.5089 0.531738 15.3579C0.361328 15.217 0.240723 15.0359 0.140381 14.8245C0.0400391 14.6132 0 14.3918 0 14.1502C0 13.6772 0.160645 13.2646 0.511719 12.9325C0.863037 12.6003 1.27441 12.4293 1.76611 12.4293Z" transform="translate(76.9675 38.4631)" fill="#DA6F25"/>
</svg>
