<svg width="100" height="100" viewBox="0 0 100 100" fill="none" xmlns="http://www.w3.org/2000/svg">
<path fill-rule="evenodd" clip-rule="evenodd" d="M16.7776 46.0085V54.9253L58.0293 54.9354V59.0818H0V54.9354H8.14795V46.6124L4.03394 46.8942C2.71924 46.9948 1.57544 45.9884 1.48511 44.67L0.0100098 23.2735C-0.0100098 23.0723 0 22.8609 0.0400391 22.6596L3.41162 4.85607C3.6123 3.77922 4.51562 2.97411 5.59912 2.90367L47.3225 0.00517485C48.4062 -0.0652597 49.3997 0.588915 49.7507 1.62548L55.5107 18.5635C55.5808 18.7648 55.6311 18.9661 55.6411 19.1774L57.1362 40.8154C57.2366 42.1338 56.2332 43.2811 54.9187 43.3717L50.3127 43.6937V52.9527H41.6931V44.2875L16.7776 46.0085ZM7.78711 7.56359L4.81689 23.2435L6.10132 41.9227L52.1997 38.7222L50.895 19.8116L45.8276 4.92674L7.78711 7.56359Z" transform="translate(21.0803 20.0449)" fill="#DA6F25"/>
</svg>
