<svg width="100" height="100" viewBox="0 0 100 100" fill="none" xmlns="http://www.w3.org/2000/svg">
<path fill-rule="evenodd" clip-rule="evenodd" d="M32.5093 24.4056C32.208 24.1339 31.7866 23.7917 31.2749 23.5904C31.2549 20.3196 31.2248 17.3406 31.1846 14.9252V14.6534C31.1846 14.5411 31.1829 14.4287 31.1809 14.3176L31.1804 14.2852L31.1799 14.2544L31.1794 14.2256L31.1792 14.218L31.1785 14.1749V14.1685V14.162V14.1555V14.1494V14.1433V14.1372V14.1315C31.1765 14.0281 31.1746 13.9267 31.1746 13.8282C31.1746 13.7291 31.1724 13.6299 31.1699 13.5319L31.1694 13.5085V13.5048V13.5013V13.4979V13.4948V13.4918V13.489V13.4863V13.4839V13.4816C31.167 13.3879 31.1645 13.2948 31.1645 13.2042L31.1633 13.0921L31.1628 13.0674L31.1623 13.0441L31.1619 13.0225L31.1614 13.0028L31.1609 12.9846L31.1604 12.9677L31.1599 12.9521L31.1594 12.9377L31.1592 12.9309C31.1567 12.8528 31.1545 12.7769 31.1545 12.701V12.6808V12.4695C31.1545 12.3789 31.1521 12.2883 31.1497 12.1978C31.147 12.1072 31.1445 12.0166 31.1445 11.926C31.1409 11.8283 31.1384 11.7352 31.1362 11.6448L31.1357 11.6293L31.1355 11.6152L31.1352 11.6024L31.135 11.5904L31.1348 11.5792L31.1343 11.5604C31.1318 11.4484 31.1294 11.34 31.1245 11.2316C31.1245 11.1766 31.1223 11.1174 31.1201 11.0579L31.1194 11.0404L31.1186 11.0229C31.1165 10.9634 31.1143 10.9042 31.1143 10.8492C31.1042 10.5271 31.0942 10.2353 31.0842 9.99371C30.7632 2.42548 24.4014 0 17.4775 0H15.8318C8.9082 0 2.54638 2.42548 2.22509 9.99371C2.21508 10.2051 2.20507 10.4567 2.20507 10.7183C2.20507 10.7888 2.20507 10.8593 2.19506 10.9297C2.19018 11.0424 2.18774 11.1598 2.1853 11.2808L2.18481 11.3019L2.18457 11.3124L2.18432 11.3233L2.18408 11.3347L2.18383 11.3468L2.18359 11.3597L2.18334 11.3738L2.18286 11.3895C2.18066 11.4828 2.17822 11.578 2.17504 11.6744V11.8556C2.17016 11.9822 2.16772 12.1113 2.16528 12.2437L2.16479 12.2683L2.16455 12.2791L2.1643 12.2906L2.16406 12.303L2.16381 12.3163L2.16357 12.3308L2.16333 12.3468L2.16284 12.365C2.16064 12.4679 2.1582 12.5729 2.15502 12.6808V12.8519C2.15502 12.9255 2.15283 13.0032 2.15063 13.0812L2.1499 13.1036C2.14721 13.1891 2.14477 13.2747 2.14477 13.3552C2.14477 13.4508 2.14233 13.549 2.13989 13.6478V13.65V13.6525V13.6551V13.6579V13.6609V13.6641V13.6674V13.671V13.6747C2.1372 13.7853 2.13476 13.8973 2.13476 14.0093C2.13476 14.1084 2.13256 14.2075 2.13012 14.3055L2.12963 14.3289V14.3326V14.3362V14.3395V14.3427V14.3457V14.3485V14.3511V14.3536V14.3558C2.12719 14.4496 2.12475 14.5427 2.12475 14.6333V14.9151L2.11108 16.066C2.08325 18.4076 2.05029 21.1892 2.02441 24.1842C1.41235 24.3452 0.870601 24.778 0.519282 25.1C-0.153081 25.6938 -0.223149 27.0525 0.609614 27.3444C0.980952 27.3444 1.50268 27.1129 2.0144 26.7808C1.93408 39.361 1.92407 54.6585 1.92407 58.8855V60.0227C2.71679 60.7574 2.94775 65.236 2.94775 65.8298C2.94775 68.9899 9.63061 70.097 15.852 70.097H17.4976C23.709 70.097 30.4019 68.9899 30.4019 65.8298C30.4019 65.246 30.6328 60.7574 31.4255 60.0227V59.902V58.8855C31.4255 54.5981 31.4155 38.9182 31.3252 26.2474C31.7466 26.4889 32.1379 26.6399 32.449 26.6399C33.2617 26.3782 33.1814 25.0296 32.5093 24.4056ZM23.0566 1.59033C25.1338 2.12372 27.0603 2.92889 28.2944 4.04602C29.1475 4.82092 29.6792 5.74683 29.6792 6.83374V7.3269C29.1374 7.11554 28.8665 6.59222 28.7461 6.2702C28.7266 6.19153 28.6973 6.11285 28.668 6.03424L28.6658 6.02863V6.01855C28.4551 5.4751 28.114 4.992 27.6724 4.54919C26.4683 3.3717 24.5115 2.5766 22.4043 2.0835L23.0566 1.59033ZM25.9009 41.2071C25.8938 41.4089 25.8865 41.6129 25.8767 41.8168C25.5369 51.0196 27.3381 53.6547 28.1189 54.7965C28.3293 55.1044 28.4656 55.3038 28.4656 55.494L28.7966 39.965C27.9036 40.3173 26.9504 40.5286 25.9268 40.5688C25.9165 40.7772 25.9087 40.9908 25.9009 41.2071ZM28.8267 38.6165C28.2261 38.9537 27.2549 39.0988 26.5098 39.2101C26.321 39.2383 26.147 39.2643 25.9968 39.2907C26.7092 28.0792 29.1677 22.1917 29.1677 22.1917L28.8267 38.6165ZM28.3049 22.2621C26.4988 20.5714 20.0264 19.102 16.6548 19.102C13.2932 19.102 6.81103 20.5814 5.01489 22.2521C6.20898 23.9529 7.10205 27.1533 7.68408 31.028C9.83154 29.4681 14.9993 29.3373 16.6348 29.3373C18.2705 29.3373 23.4983 29.4681 25.6257 31.0582C26.2078 27.1735 27.1008 23.963 28.3049 22.2621ZM7.43334 41.8168C7.77392 51.0412 5.95678 53.6733 5.17675 54.8036C4.9685 55.105 4.83422 55.2996 4.83422 55.4839L4.50317 39.955C5.40625 40.277 6.3496 40.4883 7.37304 40.5488L7.43334 41.8168ZM7.30249 39.2505C6.59008 28.0591 4.13159 22.1917 4.13159 22.1917L4.48291 38.6064C5.12939 38.9439 6.19018 39.0933 6.99609 39.2067L7.30249 39.2505ZM5.00488 4.04602C6.23901 2.92889 8.16577 2.12372 10.2429 1.59033L10.885 2.0835C8.78784 2.5766 6.83105 3.3717 5.62695 4.55927C5.18554 4.992 4.84423 5.4751 4.63354 6.02863V6.0387C4.61743 6.08203 4.60424 6.1225 4.59057 6.16467L4.5874 6.17468L4.58447 6.18396L4.58178 6.19208L4.55346 6.28021C4.43286 6.59222 4.1621 7.11554 3.62011 7.33698C3.6101 7.15582 3.6101 6.99481 3.6101 6.83374C3.62011 5.74683 4.14184 4.83099 5.00488 4.04602ZM3.38916 65.3066C3.38916 65.7394 3.49951 66.1218 3.72045 66.4539C4.38256 67.4905 6.03833 68.0944 8.17578 68.4567L7.47314 67.4503V67.4402C7.14208 67.3698 6.87109 67.2892 6.6604 67.1886C5.82763 66.8062 5.26562 66.1721 4.85424 65.3771C4.51318 64.733 4.29223 63.958 4.13183 63.1428L3.35913 63.5555C3.37915 64.1291 3.38916 64.7128 3.38916 65.3066ZM16.6545 61.9049C9.7207 61.9049 6.97119 60.3651 6.65014 59.2581C7.42285 57.3861 7.96459 54.3065 8.26562 50.6834C9.17871 51.4986 12.1892 51.7804 16.6345 51.7804C21.1499 51.7804 24.1804 51.4885 25.0432 50.6431C25.3442 54.2763 25.8862 57.366 26.6589 59.2581C26.3376 60.345 23.5884 61.9049 16.6545 61.9049ZM29.5891 66.4741C29.7998 66.1319 29.9202 65.7595 29.9202 65.3268C29.9202 64.7229 29.9302 64.1191 29.9604 63.5857L29.1877 63.173C29.0271 63.9882 28.8064 64.743 28.4651 65.4073C28.0537 66.2023 27.4819 66.8464 26.6589 67.2188C26.4482 67.3094 26.1772 67.3899 25.8462 67.4705V67.4805L25.1438 68.4869C27.271 68.1246 28.9167 67.5208 29.5891 66.4741Z" transform="translate(25.0525 15.0702)" fill="#DA6F25"/>
<path d="M0 34.636C0 35.4411 0.662274 36.1053 1.46503 36.1053H15.5233C16.3261 36.1053 16.9883 35.4411 16.9883 34.636C16.9883 34.636 1.39479 0.780095 1.24427 0.297015C0.65224 -0.296772 0 0.0554745 0 0.860608V34.636H0Z" transform="translate(58.134 44.8552)" fill="#DA6F25"/>
</svg>
