<svg width="100" height="100" viewBox="0 0 100 100" fill="none" xmlns="http://www.w3.org/2000/svg">
<path fill-rule="evenodd" clip-rule="evenodd" d="M16.1968 0.74353L12.4258 0L10.916 7.70239L14.687 8.44598L16.1968 0.74353ZM58.9531 7.74249L57.4434 0.039856L53.6724 0.783508L55.1821 8.48602L58.9531 7.74249ZM61.7078 41.6823L63.8049 52.4208L67.5779 51.6761L65.4807 40.9376L61.7078 41.6823ZM60.9255 37.7674L58.8284 27.0289L62.6013 26.2842L64.6985 37.0226L60.9255 37.7674ZM55.9683 12.3654L58.0654 23.1039L61.8384 22.3591L59.7412 11.6207L55.9683 12.3654ZM68.345 55.6286L69.8547 63.3311L66.084 64.0746L64.5742 56.3721L68.345 55.6286ZM6.04663 52.4208L2.27368 51.6761L4.37085 40.9376L8.1438 41.6823L6.04663 52.4208ZM5.14404 37.0226L8.91699 37.7674L11.0142 27.0289L7.24121 26.2842L5.14404 37.0226ZM11.7964 23.1039L8.02344 22.3591L10.1206 11.6207L13.8936 12.3654L11.7964 23.1039ZM5.28076 56.3473L1.50977 55.6037L0 63.306L3.771 64.0498L5.28076 56.3473Z" transform="translate(15.0938 14.0557)" fill="#DA6F25"/>
<path fill-rule="evenodd" clip-rule="evenodd" d="M19.5579 32.7186C-4.28417 32.7186 19.5579 0 19.5579 0C19.5579 0 43.3997 32.7186 19.5579 32.7186ZM34.2681 66.9972L38.011 69.161C38.7534 69.5837 39.0044 70.5398 38.5627 71.3248C38.2817 71.828 37.76 72.1098 37.2183 72.1098C36.9573 72.1098 36.6863 72.0394 36.4456 71.8985L32.7026 69.7347L32.6926 74.4447C32.6926 75.3102 31.9902 76.0047 31.1372 76.0047C30.2744 76.0047 29.582 75.3102 29.582 74.4447L29.6021 67.9433L21.0928 63.0118V72.8445L26.7522 76.0952C27.4949 76.528 27.7556 77.4841 27.3242 78.2289C27.0332 78.7321 26.5115 79.0139 25.9695 79.0139C25.7087 79.0139 25.4377 78.9434 25.197 78.8025L21.0928 76.4374V80.7751C21.0928 81.6406 20.4004 82.335 19.5374 82.335C18.6746 82.335 17.9822 81.6406 17.9822 80.7751V76.4676L13.9382 78.7924C13.1856 79.2252 12.2424 78.9635 11.811 78.2188C11.3794 77.464 11.6404 76.5179 12.3828 76.0852L17.9722 72.8647V63.0017L9.48292 67.9131L9.50294 74.4145C9.50294 75.27 8.81055 75.9745 7.94776 75.9745C7.09473 75.9745 6.39234 75.27 6.39234 74.4145L6.38233 69.7045L2.64942 71.8683C2.4087 72.0092 2.1377 72.0796 1.87671 72.0796C1.34498 72.0796 0.823248 71.7979 0.532232 71.2946C0.100836 70.5499 0.361578 69.5938 1.10425 69.161L4.83692 66.9972L0.772955 64.6321C0.0305234 64.1994 -0.220453 63.2433 0.211187 62.4985C0.642584 61.7538 1.59595 61.5022 2.33838 61.9349L7.94776 65.2058L16.4468 60.2844L7.96778 55.3731L2.3584 58.644C2.10767 58.7849 1.83668 58.8553 1.57569 58.8553C1.04395 58.8553 0.522223 58.5836 0.231207 58.0804C-0.200189 57.3356 0.050543 56.3795 0.793219 55.9468L4.85718 53.5817L1.12427 51.4179C0.381598 50.9851 0.120855 50.029 0.552252 49.2843C0.983648 48.5395 1.93702 48.2779 2.67969 48.7106L6.41236 50.8744L6.42237 46.1644C6.42237 45.2989 7.12476 44.6044 7.97779 44.6044C8.84083 44.6044 9.53321 45.2989 9.53321 46.1644L9.51295 52.6658L17.9822 57.5671V47.7445L12.3928 44.5239C11.6504 44.0912 11.3894 43.1351 11.8211 42.3903C12.2524 41.6456 13.2058 41.3839 13.9482 41.8167L17.9922 44.1415V39.834C17.9922 38.9685 18.6846 38.2741 19.5476 38.2741C20.4104 38.2741 21.1028 38.9685 21.1028 39.834V44.1818L25.207 41.8167C25.9595 41.3839 26.9028 41.6355 27.3342 42.3903C27.7656 43.1451 27.5049 44.0912 26.7622 44.5239L21.1028 47.7747V57.5872L29.6021 52.6658L29.582 46.1644C29.582 45.3089 30.2744 44.6044 31.1372 44.6044C31.9902 44.6044 32.6926 45.3089 32.6926 46.1644L32.7026 50.8744L36.4356 48.7106C37.178 48.2779 38.1314 48.5395 38.5627 49.2843C38.9944 50.029 38.7334 50.9851 37.9907 51.4179L34.2581 53.5817L38.322 55.9468C39.0645 56.3795 39.3154 57.3356 38.8838 58.0804C38.593 58.5735 38.0711 58.8553 37.5393 58.8553C37.2683 58.8553 37.0076 58.7849 36.7566 58.644L31.1475 55.3731L22.6582 60.2844L31.1575 65.2058L36.7666 61.9349C37.5093 61.5022 38.4624 61.7538 38.894 62.4985C39.3254 63.2433 39.0745 64.1994 38.332 64.6321L34.2681 66.9972Z" transform="translate(30.292 9.09058)" fill="#DA6F25"/>
</svg>
