<svg width="100" height="100" viewBox="0 0 100 100" fill="none" xmlns="http://www.w3.org/2000/svg">
<path fill-rule="evenodd" clip-rule="evenodd" d="M65.7156 55.4938V51.0153L58.491 51.1058V55.5039H56.8452V45.2385H61.5312C62.896 45.2385 63.9998 44.1213 63.9998 42.7627V20.3497C63.9998 20.1284 63.9697 19.917 63.9094 19.7056L59.1731 1.84174C58.8923 0.754822 57.9089 0 56.7849 0H13.5667C12.4426 0 11.4595 0.764893 11.1685 1.85181L6.43213 19.9673C6.38184 20.1786 6.35181 20.39 6.35181 20.5913V42.7526C6.35181 44.1213 7.46558 45.2284 8.82031 45.2284H13.4963V55.4938H12.0815V51.3575H4.67603V55.4938H0V58.03H7.19482V53.8936H9.55273V58.03H25.9893V53.2093H30.7156V58.03H38.8535V54.4673H41.9341V58.03H61.0295V53.6118L63.197 53.5917V58.0502H69.0771V55.514H65.7258L65.7156 55.4938ZM11.3093 20.9136L15.4836 4.96185H54.8889L59.0532 20.672V40.2569H11.3093V20.9136ZM36.3149 55.4941V51.9314H44.4529V55.4941H48.1855V45.2286H22.1462V55.4941H23.4507V50.6733H33.2344V55.4941H36.3149Z" transform="translate(15.0803 21.0602)" fill="#DA6F25"/>
</svg>
