<svg width="100" height="100" viewBox="0 0 100 100" fill="none" xmlns="http://www.w3.org/2000/svg">
<path fill-rule="evenodd" clip-rule="evenodd" d="M5.54907 32.2456H5.11768C2.28784 32.2456 0 29.9409 0 27.1129V5.13275C0 2.30469 2.29785 0 5.11768 0H5.54907C8.36865 0 10.6667 2.29462 10.6667 5.13275V27.1129C10.6667 29.9409 8.36865 32.2456 5.54907 32.2456ZM0.411377 39.6025C0.411377 36.8751 2.62891 34.671 5.32837 34.671C8.0376 34.671 10.2351 36.8751 10.2451 39.6025C10.2451 42.3298 8.04761 44.5339 5.32837 44.5339C2.60889 44.5339 0.411377 42.3098 0.411377 39.6025Z" transform="translate(44.813 23.2334)" fill="#DA6F25"/>
<path d="M66.5586 5.88754C66.5285 5.83722 66.4783 5.01196 66.4482 4.96164V3.67342C66.4482 1.14732 64.2707 0 61.7521 0C59.2334 0 57.2064 1.15738 57.2064 3.67342L57.6379 7.10531C57.6379 7.74941 57.7684 8.37339 58.0293 8.95711C58.3002 9.58109 58.6815 10.1145 59.414 11.1511C61.5614 14.1905 67.5219 22.1311 67.5219 30.0416C67.5219 34.812 66.2977 40.1158 64.4714 44.1213C62.9562 47.4224 60.3974 50.0894 57.8286 52.4243L57.5878 52.5652H18.333L18.0921 52.4243C15.5333 50.0894 12.9746 47.4224 11.4493 44.1213C9.61301 40.1259 8.38881 34.8321 8.38881 30.0416C8.38881 22.1412 14.3593 14.2005 16.4967 11.1511C17.2292 10.1044 17.6004 9.58109 17.8814 8.95711C18.1423 8.37339 18.2728 7.74941 18.2728 7.10531L18.7042 3.67342C18.7042 1.14732 16.6672 0 14.1586 0C11.65 0 9.4625 1.15738 9.4625 3.67342V4.96164C9.43239 5.01196 9.38222 5.84728 9.35212 5.88754C6.75319 9.58109 0 19.3836 0 30.1825C0 36.2914 1.20414 42.0179 3.60237 47.2211C5.54906 51.4682 8.30853 55.3026 11.5898 58.4024V63.9377H19.9585V58.8452H23.5709V63.9377H30.866V58.8452H34.4784V63.9377H40.8202V58.8452H44.4426V63.9377H52.0989V58.8452H55.7113V63.9377H64.3209V58.4125C67.6122 55.3127 70.3616 51.4682 72.3083 47.2312C74.6965 42.028 75.9107 36.2914 75.9107 30.1925C75.9006 19.3937 69.1675 9.58109 66.5586 5.88754Z" transform="translate(12.0806 18.0403)" fill="#DA6F25"/>
</svg>
