<svg width="100" height="100" viewBox="0 0 100 100" fill="none" xmlns="http://www.w3.org/2000/svg">
<path d="M66.5586 5.88754C66.5285 5.83722 66.4783 5.01196 66.4482 4.96164V3.67342C66.4482 1.14732 64.2707 0 61.7521 0C59.2334 0 57.2064 1.15738 57.2064 3.67342L57.6379 7.10531C57.6379 7.74941 57.7684 8.37339 58.0293 8.95711C58.3002 9.58109 58.6815 10.1145 59.414 11.1511C61.5614 14.1905 67.5219 22.1311 67.5219 30.0416C67.5219 34.812 66.2977 40.1158 64.4614 44.1213C62.9462 47.4224 60.3874 50.0894 57.8186 52.4243L57.5777 52.5652H18.333L18.0921 52.4243C15.5333 50.0894 12.9746 47.4224 11.4493 44.1213C9.61301 40.1259 8.38881 34.8321 8.38881 30.0416C8.38881 22.1412 14.3593 14.2005 16.4967 11.1511C17.2292 10.1044 17.6004 9.58109 17.8814 8.95711C18.1423 8.37339 18.2728 7.74941 18.2728 7.10531L18.7042 3.67342C18.7042 1.14732 16.6672 0 14.1586 0C11.64 0 9.4625 1.15738 9.4625 3.67342V4.96164C9.43239 5.01196 9.38222 5.84728 9.35212 5.88754C6.76323 9.58109 0 19.3836 0 30.1825C0 36.2914 1.20414 42.0179 3.60237 47.2211C5.54906 51.4682 8.30853 55.3026 11.5898 58.4024V63.9377H19.9585V58.8452H23.5709V63.9377H30.866V58.8452H34.4784V63.9377H40.8202V58.8452H44.4426V63.9377H52.0989V58.8452H55.7113V63.9377H64.3209V58.4125C67.6122 55.3127 70.3616 51.4682 72.3083 47.2312C74.6965 42.028 75.9107 36.2914 75.9107 30.1925C75.9107 19.3937 69.1675 9.58109 66.5586 5.88754Z" transform="translate(12 18)" fill="#DA6F25"/>
<path fill-rule="evenodd" clip-rule="evenodd" d="M41.2317 28.703C39.5759 31.0278 37.0171 32.2053 33.6255 32.2053C29.6919 32.2053 27.093 30.9473 25.4875 28.23C23.9924 25.7341 23.3 21.8795 23.3 16.1027C23.3 10.3259 24.0024 6.47125 25.4976 3.97534C27.1233 1.26807 29.7322 0 33.6858 0C37.5288 0 40.2483 1.258 41.7534 3.73383C42.9875 5.77686 43.1282 8.21234 43.1282 9.85284V10.7385H37.6292V9.90314C37.6292 7.80981 37.1375 4.3175 33.8262 4.3175H33.6255C30.4045 4.3175 28.7788 6.12909 28.7788 15.9819C28.7788 26.0058 30.4846 27.8979 33.6255 27.8979C35.2612 27.8979 36.395 27.1129 37.0774 25.4926C37.5591 24.3452 37.7898 22.8456 37.7898 20.9033V20.0679H43.2886V21.0341C43.2886 24.1641 42.5762 26.821 41.2317 28.703ZM12.7036 5.33398V31.6216H7.21484V5.33398H0V0.59375H19.7878V5.33398H12.7036Z" transform="translate(28.647 32.4623)" fill="#DA6F25"/>
</svg>
